<svg width="1899" height="801" viewBox="0 0 1899 801" fill="none" xmlns="http://www.w3.org/2000/svg">
<path d="M382.379 367.738C378.304 367.738 375 364.435 375 360.359C375 356.284 378.304 352.98 382.379 352.98C386.454 352.98 389.758 356.284 389.758 360.359C389.758 364.435 386.454 367.738 382.379 367.738Z" fill="#E1E4E5"/>
<path d="M0 0.980469H1899V595.852C1899 650.256 1899 758.061 1899 800.981C1855.44 800.981 1753.65 800.98 1701.19 800.98H0V0.980469Z" fill="#555E75"/>
<g opacity="0.3">
<path d="M1170.08 474.785C1170.08 575.273 1088.66 656.719 988.204 656.719C887.748 656.719 806.328 575.273 806.328 474.785C806.328 374.297 887.748 292.85 988.204 292.85C1088.66 292.85 1170.08 374.297 1170.08 474.785Z" stroke="#E1E4E5" stroke-width="4" stroke-linecap="round" stroke-linejoin="round"/>
<path d="M1116.81 603.431L994.127 480.708C992.249 478.832 990.76 476.604 989.744 474.151C988.728 471.699 988.206 469.07 988.206 466.416V292.85M824.208 392.178H650.704C648.051 392.18 645.423 391.658 642.971 390.643C640.519 389.627 638.291 388.138 636.415 386.261L513.725 263.532M513.566 263.872H340.064C337.41 263.874 334.782 263.352 332.33 262.336C329.878 261.321 327.65 259.832 325.773 257.955L203.083 135.226M199.044 291.366L155.362 241.609C154.695 240.847 153.884 240.224 152.976 239.777C152.068 239.329 151.08 239.065 150.07 239L84.0078 234.712M824.209 558.574H650.706C648.052 558.576 645.424 558.054 642.972 557.039C640.52 556.023 638.292 554.534 636.415 552.657L513.725 429.928M513.566 430.268H340.062C337.409 430.27 334.781 429.748 332.329 428.732C329.877 427.717 327.65 426.228 325.773 424.351L203.083 301.622M989.618 473.976L1145.63 383.818" stroke="#E1E4E5" stroke-width="4" stroke-linecap="round" stroke-linejoin="round"/>
<path d="M332.348 447.219C342.864 447.219 351.388 438.692 351.388 428.173C351.388 417.655 342.864 409.127 332.348 409.127C321.833 409.127 313.309 417.655 313.309 428.173C313.309 438.692 321.833 447.219 332.348 447.219Z" fill="#E1E4E5"/>
<path d="M202.079 152.517C212.594 152.517 221.119 143.99 221.119 133.471C221.119 122.952 212.594 114.425 202.079 114.425C191.563 114.425 183.039 122.952 183.039 133.471C183.039 143.99 191.563 152.517 202.079 152.517Z" fill="#E1E4E5"/>
<path d="M202.079 318.913C212.594 318.913 221.119 310.386 221.119 299.867C221.119 289.348 212.594 280.821 202.079 280.821C191.563 280.821 183.039 289.348 183.039 299.867C183.039 310.386 191.563 318.913 202.079 318.913Z" fill="#E1E4E5"/>
<path d="M641.991 265.233C692.265 200.481 773.769 200.481 824.042 265.233M357.404 622.085C407.677 557.332 489.18 557.332 539.455 622.085M58.7852 457.692C109.06 392.94 190.563 392.94 240.836 457.692" stroke="#E1E4E5" stroke-width="4" stroke-linecap="round" stroke-linejoin="round"/>
<path d="M764.539 230.575C780.681 246.722 780.681 272.902 764.539 289.049C748.397 305.198 722.225 305.198 706.082 289.049C689.94 272.902 689.94 246.722 706.082 230.575C722.225 214.426 748.397 214.426 764.539 230.575ZM479.95 587.424C496.094 603.573 496.094 629.753 479.95 645.9C463.808 662.049 437.636 662.049 421.493 645.9C405.351 629.753 405.351 603.573 421.493 587.424C437.636 571.277 463.808 571.277 479.95 587.424ZM181.333 423.032C197.477 439.181 197.477 465.361 181.333 481.508C165.191 497.657 139.019 497.657 122.876 481.508C106.734 465.361 106.734 439.181 122.876 423.032C139.019 406.885 165.191 406.885 181.333 423.032Z" stroke="#E1E4E5" stroke-width="4" stroke-linecap="round" stroke-linejoin="round"/>
<path d="M1181.62 268.113C1152.14 282.743 1113.01 263.932 1113.01 263.932C1113.01 263.932 1121.7 221.41 1151.2 206.799C1180.69 192.169 1219.8 210.961 1219.8 210.961C1219.8 210.961 1211.11 253.483 1181.62 268.113Z" fill="url(#paint0_linear_523_607)"/>
<path d="M179.815 617.569C202.689 597.798 200.686 557.956 200.686 557.956C200.686 557.956 161.593 550.194 138.728 569.985C115.854 589.758 117.845 629.58 117.845 629.58C117.845 629.58 156.938 637.342 179.815 617.569Z" fill="url(#paint1_linear_523_607)"/>
<path d="M1002.83 714.832C1002.83 702.789 993.071 693.027 981.032 693.027C968.994 693.027 959.234 702.789 959.234 714.832C959.234 726.874 968.994 736.636 981.032 736.636C993.071 736.636 1002.83 726.874 1002.83 714.832Z" fill="#687391"/>
<path d="M315.313 555.476C315.313 544.404 306.341 535.428 295.272 535.428C284.203 535.428 275.23 544.404 275.23 555.476C275.23 566.548 284.203 575.523 295.272 575.523C306.341 575.523 315.313 566.548 315.313 555.476Z" fill="#687391"/>
<path d="M564.99 64.3049C546.638 64.3049 531.761 79.1868 531.761 97.5445C531.761 115.902 546.638 130.784 564.99 130.784C583.342 130.784 598.219 115.902 598.219 97.5445C598.219 79.1868 583.342 64.3049 564.99 64.3049Z" fill="#687391"/>
<path d="M974.392 208.639C959.099 208.639 946.701 196.237 946.701 180.94C946.701 165.642 959.099 153.24 974.392 153.24C989.685 153.24 1002.08 165.642 1002.08 180.94C1002.08 196.237 989.685 208.639 974.392 208.639Z" fill="#687391"/>
<path d="M1123.05 698.231C1116.56 691.741 1116.56 681.218 1123.05 674.728C1129.54 668.237 1140.06 668.237 1146.55 674.728C1153.04 681.218 1153.04 691.741 1146.55 698.231C1140.06 704.722 1129.54 704.722 1123.05 698.231Z" fill="#E1E4E5"/>
<path d="M35.6121 610.254C28.4555 610.254 22.6539 604.45 22.6539 597.291C22.6539 590.133 28.4555 584.329 35.6121 584.329C42.7687 584.329 48.5703 590.133 48.5703 597.291C48.5703 604.45 42.7687 610.254 35.6121 610.254Z" fill="#E1E4E5"/>
<path d="M755.663 157.403C747.12 157.403 740.194 150.475 740.194 141.928C740.194 133.382 747.12 126.454 755.663 126.454C764.207 126.454 771.133 133.382 771.133 141.928C771.133 150.475 764.207 157.403 755.663 157.403Z" fill="#E1E4E5"/>
<path d="M449.858 128.276C451.313 133.711 448.089 139.297 442.656 140.754C437.223 142.21 431.639 138.985 430.183 133.55C428.727 128.115 431.951 122.529 437.384 121.072C442.817 119.616 448.402 122.841 449.858 128.276Z" fill="#E1E4E5"/>
<path d="M789.459 692.036C782.172 684.747 780.991 674.11 786.821 668.278C792.651 662.447 803.284 663.628 810.571 670.918C817.858 678.207 819.04 688.844 813.21 694.676C807.38 700.507 796.747 699.326 789.459 692.036Z" fill="#E1E4E5"/>
<path d="M885.299 54.9218C888.359 66.3474 881.581 78.0915 870.159 81.1529C858.737 84.2144 846.997 77.434 843.936 66.0084C840.876 54.5828 847.654 42.8387 859.076 39.7773C870.498 36.7158 882.238 43.4962 885.299 54.9218Z" fill="#E1E4E5"/>
<path d="M1113.24 473.281H1113.54C1115.3 498.254 1133.87 498.638 1133.87 498.638C1133.87 498.638 1113.39 499.039 1113.39 527.894C1113.39 499.039 1092.92 498.638 1092.92 498.638C1092.92 498.638 1111.48 498.254 1113.24 473.281ZM315.568 106.406H315.834C317.42 129.246 334.131 129.598 334.131 129.598C334.131 129.598 315.704 129.964 315.704 156.355C315.704 129.964 297.277 129.598 297.277 129.598C297.277 129.598 313.981 129.246 315.568 106.406Z" fill="#E1E4E5"/>
<path fill-rule="evenodd" clip-rule="evenodd" d="M153.61 728.61H162.003C164.033 728.61 165.669 730.262 165.669 732.275V740.672C165.668 741.644 165.281 742.576 164.594 743.264C163.907 743.951 162.975 744.338 162.003 744.339H153.61C152.639 744.335 151.709 743.947 151.023 743.261C150.336 742.574 149.949 741.644 149.945 740.672V732.275C149.944 731.793 150.039 731.316 150.222 730.871C150.406 730.426 150.676 730.022 151.017 729.681C151.357 729.341 151.762 729.071 152.207 728.887C152.652 728.703 153.129 728.609 153.61 728.61ZM182.714 728.61H191.107C192.078 728.614 193.008 729.001 193.694 729.687C194.381 730.374 194.768 731.304 194.772 732.275V740.672C194.771 741.644 194.385 742.576 193.697 743.264C193.01 743.951 192.079 744.338 191.107 744.339H182.714C181.743 744.335 180.813 743.947 180.126 743.261C179.44 742.574 179.052 741.644 179.049 740.672V732.275C179.052 731.304 179.44 730.374 180.126 729.687C180.813 729.001 181.743 728.614 182.714 728.61ZM211.837 728.61H220.231C221.202 728.614 222.131 729.001 222.818 729.688C223.504 730.374 223.891 731.304 223.895 732.275V740.672C223.894 741.644 223.508 742.576 222.821 743.263C222.134 743.95 221.203 744.337 220.231 744.339H211.837C210.866 744.334 209.936 743.947 209.25 743.26C208.564 742.573 208.177 741.643 208.173 740.672V732.275C208.172 731.793 208.266 731.316 208.45 730.871C208.633 730.426 208.903 730.022 209.244 729.681C209.584 729.341 209.988 729.071 210.433 728.887C210.878 728.703 211.355 728.609 211.837 728.61ZM240.94 728.61H249.335C250.305 728.614 251.235 729.001 251.921 729.688C252.607 730.374 252.995 731.304 252.998 732.275V740.672C252.997 741.644 252.611 742.576 251.924 743.263C251.238 743.95 250.306 744.337 249.335 744.339H240.94C239.967 744.338 239.033 743.952 238.343 743.265C237.654 742.578 237.264 741.646 237.259 740.672V732.275C237.27 731.303 237.661 730.375 238.35 729.689C239.039 729.004 239.969 728.616 240.94 728.61ZM270.047 728.61H278.442C280.471 728.61 282.123 730.262 282.123 732.275V740.672C282.122 741.155 282.026 741.633 281.84 742.078C281.655 742.523 281.383 742.928 281.042 743.268C280.7 743.609 280.294 743.879 279.848 744.062C279.402 744.246 278.924 744.34 278.442 744.339H270.047C269.076 744.334 268.147 743.947 267.461 743.26C266.774 742.573 266.387 741.643 266.384 740.672V732.275C266.387 731.304 266.775 730.374 267.461 729.688C268.147 729.001 269.077 728.614 270.047 728.61ZM183.782 760.358H192.175C193.146 760.361 194.076 760.748 194.763 761.434C195.449 762.121 195.836 763.051 195.84 764.022V772.437C195.836 773.408 195.449 774.338 194.763 775.025C194.076 775.711 193.146 776.098 192.175 776.102H183.782C182.81 776.101 181.879 775.715 181.192 775.028C180.504 774.341 180.118 773.409 180.117 772.437V764.04C180.114 763.557 180.207 763.078 180.39 762.631C180.573 762.184 180.843 761.778 181.183 761.435C181.524 761.093 181.929 760.822 182.375 760.637C182.821 760.452 183.299 760.357 183.782 760.358ZM212.885 760.358H221.279C222.249 760.361 223.179 760.748 223.866 761.434C224.553 762.121 224.94 763.051 224.944 764.022V772.437C224.94 773.408 224.553 774.338 223.866 775.025C223.179 775.711 222.249 776.098 221.279 776.102H212.885C211.915 776.098 210.985 775.711 210.298 775.025C209.611 774.338 209.224 773.408 209.22 772.437V764.04C209.218 763.557 209.31 763.078 209.493 762.631C209.676 762.184 209.946 761.778 210.287 761.435C210.627 761.093 211.032 760.822 211.478 760.637C211.924 760.452 212.403 760.357 212.885 760.358ZM241.991 760.358H250.386C252.415 760.358 254.066 762.009 254.066 764.022V772.437C254.062 773.411 253.672 774.343 252.982 775.029C252.292 775.716 251.359 776.102 250.386 776.102H241.991C241.02 776.098 240.091 775.711 239.404 775.024C238.718 774.338 238.331 773.408 238.327 772.437V764.04C238.327 762.009 239.979 760.358 241.991 760.358ZM211.837 694.505H220.231C221.202 694.509 222.131 694.896 222.818 695.583C223.504 696.269 223.891 697.199 223.895 698.17V706.567C223.894 707.539 223.508 708.471 222.821 709.158C222.134 709.846 221.203 710.232 220.231 710.234L211.837 710.232C210.866 710.228 209.937 709.841 209.25 709.155C208.564 708.468 208.177 707.538 208.173 706.567V698.17C208.172 697.688 208.266 697.211 208.45 696.766C208.633 696.321 208.903 695.917 209.244 695.576C209.584 695.236 209.988 694.966 210.433 694.782C210.878 694.598 211.355 694.504 211.837 694.505ZM240.94 694.505H249.335C250.305 694.509 251.235 694.896 251.921 695.583C252.607 696.269 252.995 697.199 252.998 698.17V706.567C252.997 707.539 252.611 708.471 251.924 709.158C251.238 709.846 250.306 710.232 249.335 710.234L240.94 710.232C239.967 710.232 239.033 709.846 238.343 709.16C237.654 708.473 237.264 707.541 237.259 706.567V698.17C237.27 697.198 237.661 696.27 238.35 695.584C239.039 694.899 239.969 694.511 240.94 694.505ZM598.391 681.315H606.786C608.815 681.315 610.451 682.967 610.451 684.98V693.377C610.45 694.349 610.063 695.281 609.376 695.969C608.689 696.656 607.757 697.043 606.786 697.044H598.391C597.42 697.039 596.491 696.652 595.804 695.965C595.118 695.278 594.731 694.348 594.727 693.377V684.98C594.726 684.498 594.82 684.021 595.004 683.576C595.188 683.131 595.457 682.727 595.798 682.386C596.138 682.046 596.543 681.776 596.988 681.592C597.433 681.408 597.909 681.314 598.391 681.315ZM627.496 681.315H635.889C636.86 681.319 637.79 681.706 638.477 682.392C639.163 683.079 639.55 684.009 639.554 684.98V693.377C639.553 694.349 639.167 695.281 638.48 695.969C637.793 696.656 636.861 697.043 635.889 697.044H627.496C626.525 697.04 625.595 696.652 624.908 695.966C624.222 695.279 623.835 694.349 623.831 693.377V684.98C623.835 684.009 624.222 683.079 624.909 682.392C625.595 681.706 626.525 681.319 627.496 681.315ZM656.619 681.315H665.014C665.984 681.319 666.914 681.706 667.6 682.393C668.286 683.079 668.673 684.009 668.677 684.98V693.377C668.676 694.349 668.29 695.281 667.603 695.968C666.916 696.655 665.985 697.042 665.014 697.044H656.619C655.648 697.039 654.719 696.652 654.032 695.965C653.346 695.278 652.959 694.348 652.955 693.377V684.98C652.954 684.498 653.048 684.021 653.232 683.576C653.416 683.131 653.685 682.727 654.026 682.386C654.366 682.046 654.77 681.776 655.215 681.592C655.66 681.408 656.137 681.314 656.619 681.315ZM685.722 681.315H694.117C695.087 681.319 696.017 681.706 696.703 682.393C697.39 683.079 697.777 684.009 697.78 684.98V693.377C697.779 694.349 697.393 695.281 696.707 695.968C696.02 696.655 695.088 697.042 694.117 697.044H685.722C684.749 697.043 683.815 696.657 683.126 695.97C682.436 695.283 682.046 694.351 682.041 693.377V684.98C682.052 684.008 682.444 683.08 683.132 682.394C683.821 681.709 684.751 681.321 685.722 681.315ZM714.829 681.315H723.224C725.254 681.315 726.905 682.967 726.905 684.98V693.377C726.904 693.86 726.808 694.338 726.622 694.783C726.437 695.228 726.166 695.633 725.824 695.973C725.482 696.314 725.076 696.584 724.63 696.767C724.184 696.951 723.706 697.045 723.224 697.044H714.829C713.859 697.039 712.929 696.652 712.243 695.965C711.557 695.278 711.17 694.348 711.166 693.377V684.98C711.17 684.009 711.557 683.079 712.243 682.393C712.929 681.706 713.859 681.319 714.829 681.315ZM628.564 713.063H636.957C637.928 713.066 638.858 713.453 639.545 714.139C640.231 714.826 640.619 715.756 640.622 716.727V725.142C640.619 726.113 640.231 727.043 639.545 727.73C638.858 728.416 637.928 728.803 636.957 728.807H628.564C627.593 728.806 626.661 728.42 625.974 727.733C625.287 727.046 624.9 726.114 624.899 725.142V716.745C624.896 716.262 624.989 715.783 625.172 715.336C625.355 714.889 625.625 714.483 625.965 714.14C626.306 713.798 626.711 713.527 627.157 713.342C627.603 713.157 628.081 713.062 628.564 713.063ZM657.668 713.063H666.061C667.031 713.066 667.962 713.453 668.648 714.139C669.335 714.826 669.722 715.756 669.726 716.727V725.142C669.722 726.113 669.335 727.043 668.648 727.73C667.962 728.416 667.031 728.803 666.061 728.807H657.668C656.697 728.803 655.767 728.416 655.08 727.73C654.394 727.043 654.006 726.113 654.003 725.142V716.745C654 716.262 654.093 715.783 654.276 715.336C654.459 714.889 654.728 714.483 655.069 714.14C655.41 713.798 655.815 713.527 656.261 713.342C656.707 713.157 657.185 713.062 657.668 713.063ZM686.773 713.063H695.168C697.197 713.063 698.849 714.714 698.849 716.727V725.142C698.844 726.116 698.454 727.048 697.764 727.734C697.074 728.421 696.141 728.807 695.168 728.807H686.773C685.802 728.803 684.873 728.416 684.187 727.729C683.5 727.043 683.113 726.113 683.11 725.142V716.745C683.11 714.714 684.761 713.063 686.773 713.063ZM656.619 647.21H665.014C665.984 647.214 666.914 647.601 667.6 648.288C668.286 648.974 668.673 649.904 668.677 650.875V659.272C668.676 660.244 668.29 661.176 667.603 661.863C666.916 662.551 665.985 662.937 665.014 662.939L656.619 662.937C655.648 662.933 654.719 662.546 654.032 661.86C653.346 661.173 652.959 660.243 652.955 659.272V650.875C652.954 650.393 653.048 649.916 653.232 649.471C653.416 649.026 653.685 648.622 654.026 648.281C654.366 647.941 654.77 647.671 655.215 647.487C655.66 647.303 656.137 647.209 656.619 647.21ZM685.722 647.21H694.117C695.087 647.214 696.017 647.601 696.703 648.288C697.39 648.974 697.777 649.904 697.78 650.875V659.272C697.779 660.244 697.393 661.176 696.707 661.863C696.02 662.551 695.088 662.937 694.117 662.939L685.722 662.937C684.749 662.937 683.815 662.551 683.126 661.865C682.436 661.178 682.046 660.246 682.041 659.272V650.875C682.052 649.903 682.444 648.975 683.132 648.289C683.821 647.604 684.751 647.216 685.722 647.21Z" fill="#E1E4E5"/>
<path d="M1899 670.48C1899.01 670.756 1896.78 670.98 1894.02 670.98H5.01428C2.24489 670.98 0 670.757 0 670.48C0 670.204 2.24493 669.98 5.01428 669.98H1893.99C1896.75 669.98 1898.99 670.202 1899 670.477V670.48Z" fill="#CCCCCC"/>
</g>
<path d="M332.348 280.823C342.864 280.823 351.388 272.296 351.388 261.777C351.388 251.259 342.864 242.731 332.348 242.731C321.833 242.731 313.309 251.259 313.309 261.777C313.309 272.296 321.833 280.823 332.348 280.823Z" fill="#E1E4E5"/>
<path d="M512.723 280.823C523.239 280.823 531.763 272.296 531.763 261.777C531.763 251.259 523.239 242.731 512.723 242.731C502.208 242.731 493.684 251.259 493.684 261.777C493.684 272.296 502.208 280.823 512.723 280.823Z" fill="#E1E4E5"/>
<path d="M512.723 447.219C523.239 447.219 531.763 438.692 531.763 428.173C531.763 417.655 523.239 409.127 512.723 409.127C502.208 409.127 493.684 417.655 493.684 428.173C493.684 438.692 502.208 447.219 512.723 447.219Z" fill="#E1E4E5"/>
<path d="M642.993 407.123C653.508 407.123 662.033 398.596 662.033 388.078C662.033 377.559 653.508 369.032 642.993 369.032C632.478 369.032 623.953 377.559 623.953 388.078C623.953 398.596 632.478 407.123 642.993 407.123Z" fill="#E1E4E5"/>
<path d="M642.993 573.52C653.508 573.52 662.033 564.993 662.033 554.474C662.033 543.955 653.508 535.428 642.993 535.428C632.478 535.428 623.953 543.955 623.953 554.474C623.953 564.993 632.478 573.52 642.993 573.52Z" fill="#E1E4E5"/>
<path d="M452.497 370.563C445.36 370.563 439.575 364.776 439.575 357.637C439.575 350.499 445.36 344.712 452.497 344.712C459.633 344.712 465.418 350.499 465.418 357.637C465.418 364.776 459.633 370.563 452.497 370.563Z" fill="#E1E4E5"/>
<path d="M232.846 371.405C227.262 371.405 222.735 366.877 222.735 361.291C222.735 355.705 227.262 351.177 232.846 351.177C238.43 351.177 242.957 355.705 242.957 361.291C242.957 366.877 238.43 371.405 232.846 371.405Z" fill="#E1E4E5"/>
<path d="M408.509 521.396C401.314 521.396 395.482 515.562 395.482 508.365C395.482 501.168 401.314 495.334 408.509 495.334C415.703 495.334 421.535 501.168 421.535 508.365C421.535 515.562 415.703 521.396 408.509 521.396Z" fill="#E1E4E5"/>
<path opacity="0.3" d="M1154.44 185.948C1157.44 185.948 1159.88 183.717 1159.88 180.964C1159.88 178.212 1157.44 175.98 1154.44 175.98C1151.44 175.98 1149 178.212 1149 180.964C1149 183.717 1151.44 185.948 1154.44 185.948Z" fill="#7485B2"/>
<path opacity="0.3" d="M1645.08 645.792C1650.82 645.792 1655.47 641.532 1655.47 636.277C1655.47 631.023 1650.82 626.763 1645.08 626.763C1639.35 626.763 1634.7 631.023 1634.7 636.277C1634.7 641.532 1639.35 645.792 1645.08 645.792Z" fill="#666C7C"/>
<path opacity="0.3" d="M538.3 59.9802C539.942 59.9802 541.547 60.4262 542.912 61.2618C544.277 62.0973 545.34 63.285 545.969 64.6745C546.597 66.064 546.761 67.593 546.441 69.068C546.121 70.5431 545.33 71.8981 544.169 72.9616C543.009 74.025 541.53 74.7493 539.92 75.0427C538.309 75.3361 536.641 75.1855 535.124 74.61C533.607 74.0344 532.311 73.0598 531.399 71.8092C530.487 70.5587 530 69.0885 530 67.5845C530 65.5677 530.874 63.6336 532.431 62.2075C533.988 60.7814 536.099 59.9802 538.3 59.9802Z" fill="#687391"/>
<path opacity="0.3" d="M647.3 728.98C648.942 728.98 650.547 729.426 651.912 730.262C653.277 731.098 654.34 732.285 654.969 733.675C655.597 735.064 655.761 736.593 655.441 738.068C655.121 739.543 654.33 740.898 653.169 741.962C652.009 743.025 650.53 743.75 648.92 744.043C647.309 744.336 645.641 744.186 644.124 743.61C642.607 743.035 641.311 742.06 640.399 740.809C639.487 739.559 639 738.089 639 736.585C639 734.568 639.874 732.634 641.431 731.208C642.988 729.782 645.099 728.98 647.3 728.98Z" fill="#687391"/>
<path d="M663.134 658.78L654.071 658.779L649.758 623.817L663.136 623.818L663.134 658.78Z" fill="#FFB6B6"/>
<path d="M663.455 668.236L635.582 668.235V667.882C635.582 661.891 640.44 657.034 646.431 657.033L651.523 653.171L661.023 657.034L663.456 657.034L663.455 668.236Z" fill="#2F2E41"/>
<path d="M732.198 611.072L727.906 619.055L695.07 606.297L701.406 594.514L732.198 611.072Z" fill="#FFB6B6"/>
<path d="M740.681 615.268L727.481 639.818L727.17 639.651C721.893 636.813 719.915 630.235 722.752 624.958L721.762 618.644L729.662 612.106L730.815 609.963L740.681 615.268Z" fill="#2F2E41"/>
<path d="M646 498.672L638 562.672L642 584.129L714 615.672L718 602.672C699.596 591.41 679.922 574.367 667.526 573.114C667.526 573.114 694.5 511.172 693.5 506.172C692.5 501.172 646 498.672 646 498.672Z" fill="#2F2E41"/>
<path d="M644.623 562.487L640.438 589.514L651.001 644.672H665.001C670.03 626.139 670.29 601.78 665.501 581.172L644.623 562.487Z" fill="#2F2E41"/>
<path d="M653.615 420.477L660.069 409.231L666.998 403.672L679.998 401.672L683.61 404.449C696.608 424.315 701.455 448.424 697.145 471.769L693.596 490.992L696.65 505.494C697.61 510.055 694.692 514.53 690.131 515.491C689.571 515.609 689 515.669 688.427 515.672L656.172 515.805C648.124 515.838 641.572 509.34 641.539 501.292C641.536 500.541 641.591 499.79 641.704 499.048L653.615 420.477Z" fill="#E6E6E6"/>
<path d="M678.936 459.202L666.045 457.355C661.685 464.646 660.136 484.05 660.136 484.05L647.52 514.036C644.893 515.82 644.21 519.396 645.994 522.022C647.778 524.649 651.354 525.332 653.98 523.548C655.685 522.39 656.64 520.409 656.483 518.354L677.197 483.452L678.936 459.202Z" fill="#FFB8B8"/>
<path d="M676.884 423.413C684.383 424.575 689.52 431.595 688.359 439.094C688.229 439.934 688.021 440.761 687.738 441.563L685.002 449.316C685.002 449.316 683.513 472.663 677.834 479.253L660.408 477.676C660.408 477.676 663.594 465.897 661.148 460.198C659.65 456.708 659.733 444.653 661.209 434.847C662.371 427.368 669.376 422.247 676.855 423.409L676.884 423.413Z" fill="#E6E6E6"/>
<path d="M651.921 436.757L648.86 424.099C640.473 422.75 621.875 428.501 621.875 428.501L589.35 427.893C586.719 426.115 583.145 426.805 581.366 429.435C579.587 432.066 580.278 435.64 582.908 437.419C584.615 438.573 586.809 438.725 588.66 437.818L628.752 444.126L651.921 436.757Z" fill="#FFB8B8"/>
<path d="M544.917 175.98H394.771C377.744 175.98 363.941 189.783 363.941 206.81V601.346C363.941 618.373 377.744 632.176 394.771 632.176H544.917C561.944 632.176 575.746 618.373 575.746 601.346V206.81C575.746 189.783 561.944 175.98 544.917 175.98Z" fill="white"/>
<path d="M545.44 633.636H395.294C377.892 633.636 363.734 619.478 363.734 602.076V207.54C363.734 190.138 377.892 175.98 395.294 175.98H545.44C562.842 175.98 577 190.138 577 207.54V602.076C577 619.478 562.842 633.636 545.44 633.636ZM395.294 177.441C378.697 177.441 365.194 190.943 365.194 207.54V602.076C365.194 618.673 378.697 632.175 395.294 632.175H545.44C562.037 632.175 575.54 618.673 575.54 602.076V207.54C575.54 190.943 562.037 177.441 545.44 177.441H395.294Z" fill="#3F3D56"/>
<path d="M352.058 245.018C350.74 245.018 349.668 246.089 349.668 247.408V266.528C349.668 267.847 350.74 268.918 352.058 268.918C353.376 268.918 354.448 267.847 354.448 266.528V247.408C354.448 246.089 353.376 245.018 352.058 245.018Z" fill="#3F3D56"/>
<path d="M556.317 239.831H495.967C493.407 239.831 491.324 237.748 491.324 235.188C491.324 232.628 493.407 230.546 495.967 230.546H556.317C558.877 230.546 560.96 232.628 560.96 235.188C560.96 237.748 558.877 239.831 556.317 239.831Z" fill="#E6E6E6"/>
<path d="M499.698 276.338H441.034C439.555 276.338 438.352 275.134 438.352 273.655C438.352 272.176 439.555 270.974 441.034 270.974H499.698C501.177 270.974 502.379 272.176 502.379 273.655C502.379 275.134 501.177 276.338 499.698 276.338Z" fill="#F2C6BD"/>
<path d="M354.379 289.575C380.545 289.575 401.757 268.81 401.757 243.195C401.757 217.58 380.545 196.814 354.379 196.814C328.212 196.814 307 217.58 307 243.195C307 268.81 328.212 289.575 354.379 289.575Z" fill="#F2C6BD"/>
<path d="M370.459 219.801C364.152 231.286 357.844 242.772 351.536 254.257C347.516 247.154 343.518 240.039 339.488 232.941C338.097 230.49 334.311 232.695 335.706 235.152C340.378 243.38 345.001 251.634 349.672 259.862C350.471 261.269 352.664 261.301 353.455 259.862C360.384 247.245 367.313 234.628 374.241 222.011C375.599 219.539 371.818 217.326 370.459 219.801Z" fill="white"/>
<path d="M394.93 290.696C394.93 291.177 395.317 291.564 395.798 291.564H544.938C545.42 291.564 545.807 291.177 545.807 290.696C545.807 290.214 545.42 289.827 544.938 289.827H395.798C395.317 289.827 394.93 290.214 394.93 290.696Z" fill="#3F3D56"/>
<path d="M530.637 358.977H441.135C439.657 358.977 438.453 357.773 438.453 356.294C438.453 354.815 439.657 353.613 441.135 353.613H530.637C532.116 353.613 533.318 354.815 533.318 356.294C533.318 357.773 532.116 358.977 530.637 358.977Z" fill="#F2C6BD"/>
<path d="M530.637 397.669H441.135C439.657 397.669 438.453 396.465 438.453 394.986C438.453 393.507 439.657 392.304 441.135 392.304H530.637C532.116 392.304 533.318 393.507 533.318 394.986C533.318 396.465 532.116 397.669 530.637 397.669Z" fill="#F2C6BD"/>
<path d="M530.637 436.36H441.135C439.657 436.36 438.453 435.157 438.453 433.678C438.453 432.199 439.657 430.996 441.135 430.996H530.637C532.116 430.996 533.318 432.199 533.318 433.678C533.318 435.157 532.116 436.36 530.637 436.36Z" fill="#6C63FF"/>
<path d="M413.988 362.533C417.617 362.533 420.559 359.592 420.559 355.963C420.559 352.334 417.617 349.393 413.988 349.393C410.36 349.393 407.418 352.334 407.418 355.963C407.418 359.592 410.36 362.533 413.988 362.533Z" fill="#F2C6BD"/>
<path d="M413.258 366.914V365.454C418.692 365.454 423.113 361.032 423.113 355.598C423.113 350.164 418.692 345.743 413.258 345.743V344.282C419.497 344.282 424.573 349.359 424.573 355.598C424.573 361.838 419.497 366.914 413.258 366.914Z" fill="#3F3D56"/>
<path d="M413.988 401.225C417.617 401.225 420.559 398.284 420.559 394.655C420.559 391.026 417.617 388.085 413.988 388.085C410.36 388.085 407.418 391.026 407.418 394.655C407.418 398.284 410.36 401.225 413.988 401.225Z" fill="#F2C6BD"/>
<path d="M413.258 405.606V404.145C418.692 404.145 423.113 399.725 423.113 394.29C423.113 388.856 418.692 384.434 413.258 384.434V382.974C419.497 382.974 424.573 388.05 424.573 394.29C424.573 400.53 419.497 405.606 413.258 405.606Z" fill="#3F3D56"/>
<path d="M413.988 439.917C417.617 439.917 420.559 436.976 420.559 433.347C420.559 429.718 417.617 426.777 413.988 426.777C410.36 426.777 407.418 429.718 407.418 433.347C407.418 436.976 410.36 439.917 413.988 439.917Z" fill="#6C63FF"/>
<path d="M413.258 444.297V442.837C418.692 442.837 423.113 438.416 423.113 432.982C423.113 427.547 418.692 423.126 413.258 423.126V421.666C419.497 421.666 424.573 426.742 424.573 432.982C424.573 439.221 419.497 444.297 413.258 444.297Z" fill="#3F3D56"/>
<path d="M684.4 421.591C686.099 428.986 681.482 436.359 674.087 438.059C673.258 438.249 672.413 438.363 671.564 438.397L663.348 438.729C663.348 438.729 641.112 445.996 632.886 443.163L627.895 426.393C627.895 426.393 640.015 424.988 644.403 420.604C647.089 417.92 658.317 413.53 667.972 411.268C675.349 409.576 682.701 414.185 684.393 421.562L684.4 421.591Z" fill="#E6E6E6"/>
<path d="M686.964 384.183C688.477 374.865 682.148 366.085 672.83 364.572C663.511 363.06 654.731 369.388 653.219 378.707C651.706 388.026 658.035 396.806 667.353 398.318C676.672 399.83 685.452 393.502 686.964 384.183Z" fill="#FFB8B8"/>
<path d="M670.383 398.054C672.885 398.093 675.384 397.918 677.856 397.531C680.305 397.033 685.786 393.017 687.313 390.601C688.427 388.528 689.193 386.286 689.583 383.966C690.697 378.518 689.449 372.853 686.149 368.377C685.522 367.452 684.656 366.713 683.643 366.239C683.553 366.204 683.461 366.173 683.368 366.146C681.892 365.758 680.566 364.937 679.56 363.79C679.365 363.558 679.154 363.34 678.927 363.138C677.79 362.179 676.442 361.502 674.994 361.163C672.655 360.537 669.271 361.159 664.935 363.011C662.876 363.735 660.643 363.804 658.542 363.208C658.333 363.168 658.118 363.241 657.978 363.401C657.198 364.133 656.17 364.543 655.101 364.548C654.446 364.577 653.759 365.484 652.928 366.667C652.739 366.935 652.52 367.248 652.361 367.439L652.34 367.073L651.969 367.481C650.063 369.582 650.221 372.831 652.322 374.737C652.887 375.249 653.558 375.63 654.288 375.85C654.947 376.025 655.622 376.133 656.303 376.171C656.715 376.208 657.142 376.247 657.551 376.317C660.219 376.864 662.404 378.772 663.305 381.343C663.683 382.396 664.843 382.943 665.896 382.566C666.061 382.507 666.218 382.426 666.362 382.326C667.227 381.653 668.365 381.446 669.411 381.771C669.857 382.019 670.203 382.412 670.393 382.885C670.624 383.412 671.006 383.858 671.492 384.166C673.152 385.022 673.266 388.814 672.67 391.974C672.095 395.021 670.959 397.225 669.907 397.334C669.098 397.418 669.005 397.475 668.946 397.619L668.894 397.747L668.985 397.867C669.432 398.029 669.909 398.093 670.383 398.054Z" fill="#2F2E41"/>
<path d="M557.432 466.155H401.407C399.36 466.153 397.702 464.495 397.699 462.448V418.387C397.702 416.341 399.36 414.682 401.407 414.68H557.432C559.479 414.682 561.137 416.341 561.14 418.387V462.448C561.137 464.495 559.479 466.153 557.432 466.155Z" fill="white"/>
<path d="M557.433 466.855H401.407C398.974 466.852 397.003 464.881 397 462.448V418.387C397.003 415.955 398.974 413.983 401.407 413.98H557.433C559.866 413.983 561.837 415.955 561.84 418.387V462.448C561.837 464.881 559.866 466.852 557.433 466.855ZM401.407 415.38C399.747 415.382 398.402 416.727 398.4 418.387V462.448C398.402 464.108 399.747 465.454 401.407 465.456H557.433C559.093 465.454 560.438 464.108 560.44 462.448V418.387C560.438 416.727 559.093 415.382 557.433 415.38L401.407 415.38Z" fill="#CCCCCC"/>
<path d="M415.629 435.565C418.952 435.565 421.645 432.871 421.645 429.549C421.645 426.226 418.952 423.533 415.629 423.533C412.307 423.533 409.613 426.226 409.613 429.549C409.613 432.871 412.307 435.565 415.629 435.565Z" fill="#F2C6BD"/>
<path d="M547.438 444.709H411.403C410.414 444.71 409.611 443.909 409.609 442.92C409.608 441.93 410.409 441.127 411.398 441.126H547.438C548.428 441.124 549.231 441.925 549.232 442.915C549.233 443.904 548.433 444.707 547.443 444.709H547.438Z" fill="#F2C6BD"/>
<path d="M532.811 451.787H411.405C410.415 451.787 409.613 450.985 409.613 449.995C409.613 449.006 410.415 448.204 411.405 448.204H532.811C533.8 448.204 534.602 449.006 534.602 449.995C534.602 450.985 533.8 451.787 532.811 451.787Z" fill="#F2C6BD"/>
<path d="M1683.88 302.419L1683.8 301.993C1681.18 287.505 1685.06 272.594 1694.41 261.222C1697.03 258.092 1700.03 255.303 1703.34 252.922L1703.66 252.694L1703.8 253.058C1705.44 257.404 1707.53 261.757 1708.47 263.683L1709.11 249.301L1709.48 249.108C1712.9 247.274 1717.09 247.706 1720.07 250.201C1723.15 252.674 1724.41 256.772 1723.26 260.55C1722.77 262.24 1722.3 263.993 1721.84 265.688C1720.28 271.513 1718.67 277.536 1715.54 282.608C1710.67 290.336 1702.57 295.453 1693.5 296.533L1683.88 302.419Z" fill="#F2F2F2"/>
<path d="M1226.52 470.48L1226.02 469.2C1229.36 468.9 1232.12 467.54 1232.28 465.58H1226.74V464.28H1232.36V462.46H1234V464.28H1239.62V465.58H1234.06C1234.22 467.54 1236.96 468.9 1240.34 469.2L1239.84 470.48C1236.88 470.16 1234.26 469.1 1233.18 467.34C1232.08 469.1 1229.48 470.16 1226.52 470.48ZM1233.16 479.2C1236 479.2 1237.64 478.58 1237.64 477.46C1237.64 476.34 1236 475.7 1233.16 475.7C1230.32 475.7 1228.68 476.34 1228.68 477.46C1228.68 478.58 1230.32 479.2 1233.16 479.2ZM1233.16 474.48C1237.02 474.48 1239.3 475.52 1239.3 477.46C1239.3 479.4 1237.02 480.44 1233.16 480.44C1229.3 480.44 1227.02 479.4 1227.02 477.46C1227.02 475.52 1229.3 474.48 1233.16 474.48ZM1234 471.82H1241.28V473.14H1225.06V471.82H1232.36V469.6H1234V471.82ZM1252.73 471.24C1251.81 471.24 1250.63 471.78 1249.73 473.12C1249.95 476.16 1251.05 477.82 1252.89 477.82C1254.29 477.82 1255.39 476.48 1255.39 474.48C1255.39 472.5 1254.51 471.24 1252.73 471.24ZM1252.89 479.24C1250.07 479.24 1247.99 476.82 1247.99 471.98C1247.99 466.24 1250.57 464.04 1253.41 464.04C1254.93 464.04 1256.03 464.68 1256.83 465.54L1255.83 466.68C1255.25 465.98 1254.37 465.56 1253.47 465.56C1251.47 465.56 1249.77 467.1 1249.69 471.66C1250.59 470.56 1251.87 469.88 1253.03 469.88C1255.51 469.88 1257.09 471.42 1257.09 474.48C1257.09 477.32 1255.17 479.24 1252.89 479.24ZM1259.7 464.84H1266.7C1266.7 469.46 1265.08 473.74 1259.98 476.62L1259.02 475.44C1263.14 473.14 1264.84 469.9 1265.08 466.18H1259.7V464.84ZM1272.66 462.52H1274.24V480.46H1272.66V471.08H1270.22V479.56H1268.68V463H1270.22V469.74H1272.66V462.52ZM1283.24 463.84C1286.04 463.84 1288.04 465.54 1288.04 468.06C1288.04 470.56 1286.04 472.28 1283.24 472.28C1280.46 472.28 1278.44 470.56 1278.44 468.06C1278.44 465.54 1280.46 463.84 1283.24 463.84ZM1283.24 465.24C1281.4 465.24 1280.04 466.38 1280.04 468.06C1280.04 469.72 1281.4 470.88 1283.24 470.88C1285.1 470.88 1286.44 469.72 1286.44 468.06C1286.44 466.38 1285.1 465.24 1283.24 465.24ZM1290.4 462.52H1292.04V480.5H1290.4V462.52ZM1277.74 476.56L1277.54 475.18C1280.8 475.18 1285.3 475.16 1289.22 474.56L1289.36 475.78C1285.32 476.52 1280.98 476.56 1277.74 476.56ZM1310.39 473.14V468.36H1308.01V467.04H1310.39V462.82H1311.95V473.14H1310.39ZM1308.71 470.44L1308.85 471.76C1306.81 472.16 1305.11 472.24 1302.25 472.24H1301.11V463.68H1307.89V465H1302.69V467.22H1307.19V468.5H1302.69V470.92C1305.23 470.92 1306.85 470.82 1308.71 470.44ZM1305.25 475.48V478.9H1313.83V475.48H1305.25ZM1303.65 480.22V474.18H1315.43V480.22H1303.65ZM1313.85 462.52H1315.43V473.32H1313.85V462.52ZM1329.01 467.76V464.34H1324.55V467.76H1329.01ZM1322.91 467.76V464.34H1320.19V463.08H1333.35V464.34H1330.65V467.76H1333.29V469.02H1320.25V467.76H1322.91ZM1322.29 477.34V479.02H1333.37V480.26H1320.69V476.16H1331.21V474.62H1320.63V473.4H1332.83V477.34H1322.29ZM1318.67 470.52H1334.91V471.82H1318.67V470.52ZM1351.79 462.52V474.66H1350.15V462.52H1351.79ZM1338.03 467.48H1344.51V465H1337.97V463.66H1346.13V468.74H1339.63V471.36C1342.93 471.36 1345.25 471.26 1348.01 470.78L1348.17 472.1C1345.31 472.6 1342.93 472.7 1339.47 472.7H1338.03V467.48ZM1346.83 473.76V474.28C1346.83 476.78 1349.63 478.64 1352.85 479.14L1352.23 480.4C1349.51 479.92 1347.07 478.58 1345.99 476.54C1344.93 478.6 1342.45 479.92 1339.75 480.4L1339.11 479.14C1342.31 478.64 1345.15 476.8 1345.15 474.28V473.76H1346.83ZM1364.85 472.58L1363.21 472.42C1363.71 469.44 1363.75 467.26 1363.75 465.82H1356.29V464.48H1365.35V465.46C1365.35 466.9 1365.35 469.24 1364.85 472.58ZM1360.73 469.6V475.08C1362.69 475 1364.69 474.88 1366.51 474.66L1366.61 475.86C1362.89 476.46 1358.67 476.54 1355.49 476.54L1355.31 475.18C1356.45 475.18 1357.77 475.16 1359.11 475.12V469.6H1360.73ZM1372.11 470.02V471.4H1369.25V480.46H1367.61V462.52H1369.25V470.02H1372.11ZM1393.82 471.54L1393.08 472.9C1390.36 472.28 1387.56 470.36 1386.42 467.72C1385.28 470.34 1382.48 472.26 1379.78 472.9L1379.04 471.54C1382.18 470.92 1385.56 468.22 1385.56 465.16V463.78H1387.28V465.16C1387.28 468.22 1390.68 470.94 1393.82 471.54ZM1378.36 476.7H1394.62V478.06H1378.36V476.7ZM1405.18 470.38L1405.32 471.72C1403.28 472.12 1401.56 472.2 1398.68 472.2H1397.54V463.66H1404.46V465H1399.12V467.2H1404.28V468.46H1399.12V470.86C1401.68 470.86 1403.3 470.76 1405.18 470.38ZM1401.72 475.32V478.9H1410.3V475.32H1401.72ZM1400.12 480.22V474.02H1411.9V480.22H1400.12ZM1410.32 462.52H1411.9V473.14H1410.32V468.44H1407.92V472.9H1406.36V462.88H1407.92V467.1H1410.32V462.52ZM1425.48 471.88V465.64H1421.02V471.88H1425.48ZM1419.38 471.88V465.64H1416.6V464.32H1429.9V465.64H1427.12V471.88H1429.86V473.22H1416.64V471.88H1419.38ZM1415.16 476.8H1431.42V478.16H1415.16V476.8ZM1438.71 464.84H1445.71C1445.71 469.46 1444.09 473.74 1438.99 476.62L1438.03 475.44C1442.15 473.14 1443.85 469.9 1444.09 466.18H1438.71V464.84ZM1451.67 462.52H1453.25V480.46H1451.67V471.08H1449.23V479.56H1447.69V463H1449.23V469.74H1451.67V462.52ZM1471.87 469.36L1471.19 470.68C1468.41 470.2 1465.71 468.64 1464.55 466.48C1463.43 468.66 1460.73 470.2 1457.93 470.68L1457.27 469.36C1460.53 468.88 1463.69 466.72 1463.69 464.16V463.16H1465.41V464.16C1465.41 466.66 1468.61 468.88 1471.87 469.36ZM1472.65 472.62L1472.67 473.98H1465.33V480.48H1463.69V473.98H1456.45V472.62H1472.65ZM1475.27 482.78L1474.83 481.7C1476.09 481.14 1476.83 480.16 1476.83 478.98C1476.75 479 1476.69 479 1476.61 479C1475.91 479 1475.27 478.56 1475.27 477.72C1475.27 476.94 1475.91 476.44 1476.65 476.44C1477.61 476.44 1478.19 477.26 1478.19 478.6C1478.19 480.52 1477.07 482.02 1475.27 482.78ZM1481.87 473.1L1481.17 471.76C1484.27 471.24 1487.67 468.74 1487.67 465.88V465.5H1481.73V464.16H1495.31V465.5H1489.37V465.88C1489.37 468.74 1492.79 471.2 1495.91 471.7L1495.25 473.02C1492.51 472.48 1489.67 470.72 1488.53 468.26C1487.39 470.74 1484.57 472.52 1481.87 473.1ZM1489.35 476.8H1496.67V478.16H1480.39V476.8H1487.71V472.46H1489.35V476.8ZM1508.03 468.06H1511.91V462.54H1513.57V475.78H1511.91V469.4H1508.03V468.06ZM1499.97 463.92H1508.11C1508.11 468.54 1504.85 472.04 1499.77 473.72L1499.07 472.4C1503.17 471.04 1505.99 468.48 1506.35 465.26H1499.97V463.92ZM1503.87 478.72H1514.03V480.06H1502.23V474.44H1503.87V478.72ZM1517.71 464.46H1522.57C1522.57 468.78 1521.67 472.98 1518.41 476.42L1517.13 475.5C1519.79 472.74 1520.83 469.42 1521.01 465.82H1517.71V464.46ZM1523.17 464.46H1527.47C1527.47 468.78 1526.85 473.72 1523.55 477.62L1522.23 476.72C1524.99 473.54 1525.79 469.62 1525.93 465.82H1523.17V464.46ZM1533.95 469.92V471.28H1531.29V480.46H1529.65V462.52H1531.29V469.92H1533.95ZM1541.99 465.72V468C1541.99 471.04 1544.15 474.14 1546.79 475.26L1545.87 476.58C1543.79 475.62 1542.03 473.56 1541.17 471.1C1540.35 473.72 1538.59 475.98 1536.55 477.02L1535.59 475.7C1538.17 474.48 1540.35 471.1 1540.35 468V465.72H1536.19V464.36H1546.21V465.72H1541.99ZM1548.63 462.54H1550.27V480.46H1548.63V462.54ZM1226.04 493.38H1234.1C1234.1 498.58 1232.28 503.32 1225.98 506.52L1225.06 505.22C1228.32 503.62 1230.3 501.56 1231.4 499.18L1225.42 499.74L1225.12 498.32L1231.9 497.88C1232.24 496.88 1232.4 495.82 1232.48 494.72H1226.04V493.38ZM1238.18 491.54H1239.82V509.46H1238.18V500.06H1234.04V498.72H1238.18V491.54ZM1258.92 500.54L1258.18 501.9C1255.46 501.28 1252.66 499.36 1251.52 496.72C1250.38 499.34 1247.58 501.26 1244.88 501.9L1244.14 500.54C1247.28 499.92 1250.66 497.22 1250.66 494.16V492.78H1252.38V494.16C1252.38 497.22 1255.78 499.94 1258.92 500.54ZM1243.46 505.7H1259.72V507.06H1243.46V505.7ZM1264.32 499.52V503.82C1267.56 503.82 1269.64 503.7 1272.08 503.26L1272.26 504.6C1269.66 505.06 1267.48 505.16 1264.06 505.16H1262.68V493.14H1270.98V494.5H1264.32V498.2H1270.2V499.52H1264.32ZM1275 491.5H1276.64V509.48H1275V499.64H1271.3V498.28H1275V491.5ZM1282.58 494.64V503.58H1287.6V494.64H1282.58ZM1280.98 504.9V493.32H1289.2V504.9H1280.98ZM1297.02 498.68V500.06H1294.06V509.46H1292.42V491.54H1294.06V498.68H1297.02ZM1311.69 491.52H1313.33V509.5H1311.69V491.52ZM1303.87 492.9C1306.53 492.9 1308.43 495.34 1308.43 499.16C1308.43 502.98 1306.53 505.42 1303.87 505.42C1301.21 505.42 1299.31 502.98 1299.31 499.16C1299.31 495.34 1301.21 492.9 1303.87 492.9ZM1303.87 494.38C1302.11 494.38 1300.87 496.26 1300.87 499.16C1300.87 502.08 1302.11 503.96 1303.87 503.96C1305.61 503.96 1306.85 502.08 1306.85 499.16C1306.85 496.26 1305.61 494.38 1303.87 494.38ZM1331.77 491.54V502.36H1330.13V491.54H1331.77ZM1328.01 500.22L1327.21 501.52C1325.17 500.82 1323.53 499.36 1322.71 497.5C1321.95 499.54 1320.29 501.18 1318.17 501.98L1317.31 500.68C1320.01 499.74 1321.83 497.38 1321.83 494.78V494.26H1317.73V492.92H1327.57V494.26H1323.51V494.78C1323.51 497.18 1325.37 499.36 1328.01 500.22ZM1325.81 508.24C1328.53 508.24 1330.19 507.48 1330.19 506.16C1330.19 504.82 1328.53 504.08 1325.81 504.08C1323.09 504.08 1321.41 504.82 1321.41 506.16C1321.41 507.48 1323.09 508.24 1325.81 508.24ZM1325.81 502.78C1329.53 502.78 1331.83 504.02 1331.83 506.16C1331.83 508.3 1329.53 509.52 1325.81 509.52C1322.09 509.52 1319.79 508.3 1319.79 506.16C1319.79 504.02 1322.09 502.78 1325.81 502.78ZM1343.55 493.06C1340.61 493.06 1338.93 493.74 1338.93 494.94C1338.93 496.14 1340.61 496.82 1343.55 496.82C1346.49 496.82 1348.17 496.14 1348.17 494.94C1348.17 493.74 1346.49 493.06 1343.55 493.06ZM1343.55 498.04C1339.61 498.04 1337.25 496.96 1337.25 494.94C1337.25 492.92 1339.61 491.82 1343.55 491.82C1347.49 491.82 1349.85 492.92 1349.85 494.94C1349.85 496.96 1347.49 498.04 1343.55 498.04ZM1339.05 506.16V507.98H1350.13V509.26H1337.45V504.96H1347.97V503.36H1337.39V502.12H1349.59V506.16H1339.05ZM1335.43 499.26H1351.67V500.58H1335.43V499.26ZM1366.42 508.2C1369.32 508.2 1370.92 507.64 1370.92 506.56C1370.92 505.5 1369.32 504.92 1366.42 504.92C1363.54 504.92 1361.92 505.5 1361.92 506.56C1361.92 507.64 1363.54 508.2 1366.42 508.2ZM1366.42 503.7C1370.32 503.7 1372.56 504.7 1372.56 506.56C1372.56 508.44 1370.32 509.44 1366.42 509.44C1362.52 509.44 1360.28 508.44 1360.28 506.56C1360.28 504.7 1362.52 503.7 1366.42 503.7ZM1367.24 501.02H1374.54V502.34H1358.3V501.02H1365.6V499.26H1360.44V492.04H1372.54V493.32H1362.08V494.98H1372.06V496.22H1362.08V497.98H1372.64V499.26H1367.24V501.02ZM1381.16 503.94C1382.54 503.94 1383.54 502.8 1383.54 501.2C1383.54 499.64 1382.54 498.5 1381.16 498.5C1379.76 498.5 1378.78 499.64 1378.78 501.2C1378.78 502.8 1379.76 503.94 1381.16 503.94ZM1381.16 497.12C1383.38 497.12 1385 498.8 1385 501.2C1385 503.64 1383.38 505.3 1381.16 505.3C1378.94 505.3 1377.32 503.64 1377.32 501.2C1377.32 498.8 1378.94 497.12 1381.16 497.12ZM1381.96 492.04V494.58H1385.6V495.92H1376.7V494.58H1380.34V492.04H1381.96ZM1390.34 491.5H1391.92V509.44H1390.34V500.42H1388.04V508.58H1386.5V491.92H1388.04V499.08H1390.34V491.5ZM1401.93 493.26V503.54C1404.51 503.54 1407.17 503.32 1410.07 502.74L1410.27 504.1C1407.21 504.72 1404.47 504.92 1401.73 504.92H1400.31V493.26H1401.93ZM1416.27 498.68V500.04H1413.39V509.46H1411.75V491.52H1413.39V498.68H1416.27ZM1425.37 500.12V494.44H1420.33V500.12H1425.37ZM1426.97 493.12V501.42H1418.73V493.12H1426.97ZM1422.39 503.42V507.72H1432.71V509.06H1420.75V503.42H1422.39ZM1431.91 496.98H1434.55V498.36H1431.91V504.64H1430.27V491.5H1431.91V496.98ZM1442.21 492.84C1445.01 492.84 1447.01 494.54 1447.01 497.06C1447.01 499.56 1445.01 501.28 1442.21 501.28C1439.43 501.28 1437.41 499.56 1437.41 497.06C1437.41 494.54 1439.43 492.84 1442.21 492.84ZM1442.21 494.24C1440.37 494.24 1439.01 495.38 1439.01 497.06C1439.01 498.72 1440.37 499.88 1442.21 499.88C1444.07 499.88 1445.41 498.72 1445.41 497.06C1445.41 495.38 1444.07 494.24 1442.21 494.24ZM1449.37 491.52H1451.01V509.5H1449.37V491.52ZM1436.71 505.56L1436.51 504.18C1439.77 504.18 1444.27 504.16 1448.19 503.56L1448.33 504.78C1444.29 505.52 1439.95 505.56 1436.71 505.56ZM1474.72 500.54L1473.98 501.9C1471.26 501.28 1468.46 499.36 1467.32 496.72C1466.18 499.34 1463.38 501.26 1460.68 501.9L1459.94 500.54C1463.08 499.92 1466.46 497.22 1466.46 494.16V492.78H1468.18V494.16C1468.18 497.22 1471.58 499.94 1474.72 500.54ZM1459.26 505.7H1475.52V507.06H1459.26V505.7ZM1486.08 499.38L1486.22 500.72C1484.18 501.12 1482.46 501.2 1479.58 501.2H1478.44V492.66H1485.36V494H1480.02V496.2H1485.18V497.46H1480.02V499.86C1482.58 499.86 1484.2 499.76 1486.08 499.38ZM1482.62 504.32V507.9H1491.2V504.32H1482.62ZM1481.02 509.22V503.02H1492.8V509.22H1481.02ZM1491.22 491.52H1492.8V502.14H1491.22V497.44H1488.82V501.9H1487.26V491.88H1488.82V496.1H1491.22V491.52ZM1506.38 500.88V494.64H1501.92V500.88H1506.38ZM1500.28 500.88V494.64H1497.5V493.32H1510.8V494.64H1508.02V500.88H1510.76V502.22H1497.54V500.88H1500.28ZM1496.06 505.8H1512.32V507.16H1496.06V505.8ZM1522.55 493.06C1519.61 493.06 1517.93 493.74 1517.93 494.94C1517.93 496.14 1519.61 496.82 1522.55 496.82C1525.49 496.82 1527.17 496.14 1527.17 494.94C1527.17 493.74 1525.49 493.06 1522.55 493.06ZM1522.55 498.04C1518.61 498.04 1516.25 496.96 1516.25 494.94C1516.25 492.92 1518.61 491.82 1522.55 491.82C1526.49 491.82 1528.85 492.92 1528.85 494.94C1528.85 496.96 1526.49 498.04 1522.55 498.04ZM1518.05 506.16V507.98H1529.13V509.26H1516.45V504.96H1526.97V503.36H1516.39V502.12H1528.59V506.16H1518.05ZM1514.43 499.26H1530.67V500.58H1514.43V499.26ZM1544.71 500.12V494.44H1539.67V500.12H1544.71ZM1546.31 493.12V501.42H1538.07V493.12H1546.31ZM1541.73 503.42V507.72H1552.05V509.06H1540.09V503.42H1541.73ZM1551.25 496.98H1553.89V498.36H1551.25V504.64H1549.61V491.5H1551.25V496.98ZM1570.02 496.24V497.56H1557.88V492.12H1569.84V493.44H1559.52V496.24H1570.02ZM1559.32 506.12V507.96H1570.4V509.24H1557.72V504.9H1568.24V503.18H1557.66V501.9H1569.86V506.12H1559.32ZM1555.72 499H1571.96V500.34H1555.72V499ZM1578.92 503.96C1580.62 503.96 1581.82 502.08 1581.82 499.16C1581.82 496.26 1580.62 494.38 1578.92 494.38C1577.2 494.38 1576 496.26 1576 499.16C1576 502.08 1577.2 503.96 1578.92 503.96ZM1587.26 491.52H1588.9V509.5H1587.26V499.7H1583.36C1583.2 503.22 1581.42 505.42 1578.92 505.42C1576.3 505.42 1574.44 502.98 1574.44 499.16C1574.44 495.34 1576.3 492.9 1578.92 492.9C1581.34 492.9 1583.1 495 1583.36 498.36H1587.26V491.52ZM1600.53 497.34V500.64H1609.69V497.34H1600.53ZM1605.93 505.82H1613.25V507.16H1596.99V505.82H1604.27V501.96H1598.91V492.8H1600.53V496H1609.69V492.8H1611.29V501.96H1605.93V505.82ZM1620.71 493.22V496.58C1620.71 499.46 1622.05 502.5 1624.41 503.94L1623.47 505.22C1621.77 504.18 1620.57 502.28 1619.93 500.1C1619.29 502.48 1617.99 504.5 1616.21 505.6L1615.19 504.38C1617.65 502.94 1619.13 499.72 1619.13 496.64V493.22H1620.71ZM1625.43 497.96V491.92H1626.97V508.58H1625.43V499.32H1622.47V497.96H1625.43ZM1629.07 491.52H1630.63V509.46H1629.07V491.52ZM1639.41 501.58V505.8H1644.41V501.58C1643.65 501.76 1642.79 501.86 1641.89 501.86C1641.01 501.86 1640.15 501.76 1639.41 501.58ZM1641.89 493.94C1639.01 493.94 1636.95 495.26 1636.95 497.26C1636.95 499.26 1639.01 500.58 1641.89 500.58C1644.77 500.58 1646.85 499.26 1646.85 497.26C1646.85 495.26 1644.77 493.94 1641.89 493.94ZM1646.05 505.8H1650.07V507.16H1633.77V505.8H1637.77V500.96C1636.27 500.18 1635.37 498.88 1635.37 497.26C1635.37 494.46 1638.09 492.66 1641.89 492.66C1645.71 492.66 1648.41 494.46 1648.41 497.26C1648.41 498.88 1647.53 500.16 1646.05 500.94V505.8Z" fill="#EDEDED"/>
<path d="M1262.4 326.88L1259.6 332.43C1251.6 330.83 1245.7 326.38 1242.75 320.53C1239.8 326.38 1233.95 330.88 1225.95 332.43L1223.15 326.88C1233.5 325.13 1239.25 317.83 1239.25 311.23V307.93H1246.3V311.23C1246.3 317.98 1252 325.13 1262.4 326.88ZM1222.15 340.33H1263.85V345.68H1222.15V340.33ZM1288.85 324.38L1289.45 329.68C1284.2 330.53 1279.75 330.68 1272.9 330.68H1269.7V307.98H1287.8V313.18H1276.05V316.68H1287.35V321.68H1276.05V325.38C1281 325.33 1284.65 325.08 1288.85 324.38ZM1282.7 339.33V345.58H1300.95V339.33H1282.7ZM1276.2 350.73V334.13H1307.4V350.73H1276.2ZM1301.15 305.28H1307.4V332.38H1301.15V321.48H1297.45V331.98H1291.3V306.13H1297.45V316.13H1301.15V305.28ZM1339.59 328.28V314.48H1330.19V328.28H1339.59ZM1323.64 328.28V314.48H1317.39V309.23H1352.39V314.48H1346.14V328.28H1352.24V333.53H1317.64V328.28H1323.64ZM1314.14 340.58H1355.84V345.93H1314.14V340.58ZM1388.27 326.03V314.23H1379.27V326.03H1388.27ZM1394.77 309.03V331.23H1372.82V309.03H1394.77ZM1384.62 335.53V345.23H1409.37V350.48H1378.02V335.53H1384.62ZM1407.72 318.53H1413.82V323.93H1407.72V338.83H1401.12V305.23H1407.72V318.53ZM1454.21 315.43V320.63H1422.66V306.13H1453.86V311.38H1429.21V315.43H1454.21ZM1428.81 343.08V345.83H1455.21V350.88H1422.26V338.43H1447.51V335.83H1422.21V330.88H1454.01V343.08H1428.81ZM1417.51 323.08H1459.16V328.28H1417.51V323.08ZM1481.26 315.08V317.63C1481.26 325.13 1484.96 333.08 1492.66 336.28L1489.06 341.48C1483.71 339.18 1480.06 334.68 1478.01 329.13C1475.96 335.13 1472.26 340.18 1466.86 342.63L1463.11 337.38C1470.81 333.93 1474.56 325.48 1474.56 317.63V315.08H1464.96V309.63H1490.76V315.08H1481.26ZM1495.01 305.23H1501.61V351.28H1495.01V305.23ZM1537.58 321.33V312.53H1528.58V321.33H1537.58ZM1544.08 307.38V326.53H1522.13V307.38H1544.08ZM1533.23 342.63V345.63H1558.38V350.73H1526.68V337.88H1550.53V335.13H1526.63V330.03H1557.03V342.63H1533.23ZM1557.03 314.08H1563.08V319.48H1557.03V328.23H1550.43V305.23H1557.03V314.08ZM1602.63 335.63L1596.03 334.88C1597.78 326.18 1597.88 319.78 1597.88 314.43H1571.03V309.18H1604.48V313.58C1604.48 319.33 1604.48 325.83 1602.63 335.63ZM1588.13 340.43H1608.48V345.73H1566.83V340.43H1581.53V324.58H1588.13V340.43ZM1254.05 411.23V392.38H1245.6V387.03H1254.05V377.23H1260.65V411.23H1254.05ZM1249.65 399.43L1246.15 404.53C1241.35 402.78 1238.05 399.43 1236.15 395.18C1234.2 399.93 1230.65 403.68 1225.3 405.63L1221.85 400.48C1229.45 397.93 1232.65 391.53 1232.65 384.98V380.03H1239.35V385.03C1239.35 391.03 1242.45 396.88 1249.65 399.43ZM1236.85 417.23H1261.65V422.48H1230.25V407.83H1236.85V417.23ZM1288.85 397.28L1289.45 402.53C1284.2 403.38 1279.75 403.53 1272.9 403.53H1269.7V380.33H1287.8V385.53H1276.05V389.33H1287.35V394.33H1276.05V398.23C1281 398.18 1284.65 397.93 1288.85 397.28ZM1275.7 412.58V407.33H1307.4V423.33H1300.8V412.58H1275.7ZM1301.15 377.23H1307.4V405.33H1301.15V393.78H1297.45V405.03H1291.3V378.03H1297.45V388.53H1301.15V377.23ZM1327.44 408.48C1330.54 408.48 1332.79 406.38 1332.79 402.83C1332.79 399.38 1330.54 397.23 1327.44 397.23C1324.34 397.23 1322.04 399.38 1322.04 402.88C1322.04 406.38 1324.34 408.48 1327.44 408.48ZM1327.44 391.88C1334.09 391.88 1339.04 396.43 1339.04 402.83C1339.04 409.33 1334.09 413.88 1327.44 413.88C1320.74 413.88 1315.74 409.33 1315.74 402.83C1315.74 396.43 1320.74 391.88 1327.44 391.88ZM1330.69 378.03V384.03H1340.69V389.28H1313.89V384.03H1324.09V378.03H1330.69ZM1356.89 395.23V400.68H1350.29V423.28H1343.69V377.23H1350.29V395.23H1356.89ZM1374.84 381.23V388.73C1374.84 396.18 1376.84 403.83 1383.09 407.98L1379.49 413.08C1375.59 410.68 1373.14 406.78 1371.69 402.13C1370.09 407.23 1367.39 411.63 1363.24 414.13L1359.29 409.18C1366.04 405.08 1368.49 396.83 1368.49 388.98V381.23H1374.84ZM1384.04 392.78V377.98H1390.19V421.23H1384.04V398.13H1378.24V392.78H1384.04ZM1393.39 377.23H1399.64V423.28H1393.39V377.23ZM1421.88 403.78V412.58H1432.03V403.78C1430.43 404.08 1428.73 404.23 1426.93 404.23C1425.13 404.23 1423.48 404.08 1421.88 403.78ZM1426.93 384.68C1420.53 384.68 1416.28 387.28 1416.28 391.88C1416.28 396.43 1420.53 399.08 1426.93 399.08C1433.33 399.08 1437.63 396.43 1437.63 391.88C1437.63 387.28 1433.33 384.68 1426.93 384.68ZM1438.58 412.58H1447.83V417.93H1406.13V412.58H1415.33V401.33C1411.83 399.18 1409.73 395.88 1409.78 391.88C1409.78 384.33 1417.03 379.48 1426.93 379.48C1436.88 379.48 1444.13 384.33 1444.13 391.88C1444.13 395.88 1442.03 399.18 1438.58 401.33V412.58ZM1456.83 406.38L1455.78 387.93L1455.53 380.98H1462.93L1462.68 387.93L1461.63 406.38H1456.83ZM1459.23 419.68C1456.63 419.68 1454.68 417.58 1454.68 414.88C1454.68 412.13 1456.63 410.08 1459.23 410.08C1461.83 410.08 1463.83 412.13 1463.83 414.88C1463.83 417.58 1461.83 419.68 1459.23 419.68Z" fill="#FDFDFD"/>
<defs>
<linearGradient id="paint0_linear_523_607" x1="1068.4" y1="313.747" x2="1311.64" y2="121.409" gradientUnits="userSpaceOnUse">
<stop stop-color="white"/>
<stop offset="1" stop-color="#EEEEEE"/>
</linearGradient>
<linearGradient id="paint1_linear_523_607" x1="258.73" y1="537.893" x2="9.2738" y2="675.373" gradientUnits="userSpaceOnUse">
<stop stop-color="white"/>
<stop offset="1" stop-color="#EEEEEE"/>
</linearGradient>
</defs>
</svg>
