<svg width="768" height="801" viewBox="0 0 768 801" fill="none" xmlns="http://www.w3.org/2000/svg">
<path d="M0 0.980469H768V595.852C768 650.256 768 757.061 768 800.981C751.431 800.981 709.217 800.98 688 800.98H0V0.980469Z" fill="#555E75"/>
<g opacity="0.3">
<path d="M705.423 587.858C705.423 647.819 656.118 696.417 595.286 696.417C534.453 696.417 485.148 647.819 485.148 587.858C485.148 527.896 534.453 479.297 595.286 479.297C656.118 479.297 705.423 527.896 705.423 587.858Z" stroke="#E1E4E5" stroke-width="4" stroke-linecap="round" stroke-linejoin="round"/>
<path d="M673.167 664.62L598.873 591.391C597.736 590.272 596.834 588.942 596.219 587.479C595.604 586.016 595.287 584.447 595.288 582.863V479.297M495.976 538.566H390.909C389.302 538.567 387.71 538.255 386.226 537.649C384.741 537.044 383.392 536.155 382.256 535.035L307.959 461.803M307.863 462.005H202.796C201.189 462.006 199.598 461.695 198.113 461.089C196.628 460.483 195.279 459.595 194.142 458.475L119.846 385.242M117.4 478.411L90.9478 448.721C90.5438 448.266 90.0528 447.895 89.5029 447.628C88.953 447.361 88.355 447.203 87.7433 447.164L47.7383 444.606M495.977 637.854H390.91C389.303 637.855 387.711 637.544 386.226 636.938C384.741 636.332 383.392 635.444 382.256 634.324L307.959 561.091M307.863 561.294H202.795C201.189 561.295 199.597 560.983 198.112 560.378C196.628 559.772 195.279 558.883 194.142 557.763L119.846 484.531M596.142 587.374L690.615 533.577" stroke="#E1E4E5" stroke-width="4" stroke-linecap="round" stroke-linejoin="round"/>
<path d="M198.127 472.12C204.495 472.12 209.657 467.032 209.657 460.756C209.657 454.479 204.495 449.391 198.127 449.391C191.76 449.391 186.598 454.479 186.598 460.756C186.598 467.032 191.76 472.12 198.127 472.12Z" fill="#E1E4E5"/>
<path d="M198.127 571.409C204.495 571.409 209.657 566.32 209.657 560.044C209.657 553.767 204.495 548.679 198.127 548.679C191.76 548.679 186.598 553.767 186.598 560.044C186.598 566.32 191.76 571.409 198.127 571.409Z" fill="#E1E4E5"/>
<path d="M119.241 395.56C125.608 395.56 130.771 390.472 130.771 384.195C130.771 377.919 125.608 372.831 119.241 372.831C112.873 372.831 107.711 377.919 107.711 384.195C107.711 390.472 112.873 395.56 119.241 395.56Z" fill="#E1E4E5"/>
<path d="M119.241 494.848C125.608 494.848 130.771 489.76 130.771 483.484C130.771 477.207 125.608 472.119 119.241 472.119C112.873 472.119 107.711 477.207 107.711 483.484C107.711 489.76 112.873 494.848 119.241 494.848Z" fill="#E1E4E5"/>
<path d="M307.354 472.12C313.722 472.12 318.884 467.032 318.884 460.756C318.884 454.479 313.722 449.391 307.354 449.391C300.986 449.391 295.824 454.479 295.824 460.756C295.824 467.032 300.986 472.12 307.354 472.12Z" fill="#E1E4E5"/>
<path d="M307.354 571.409C313.722 571.409 318.884 566.32 318.884 560.044C318.884 553.767 313.722 548.679 307.354 548.679C300.986 548.679 295.824 553.767 295.824 560.044C295.824 566.32 300.986 571.409 307.354 571.409Z" fill="#E1E4E5"/>
<path d="M386.237 547.484C392.605 547.484 397.767 542.395 397.767 536.119C397.767 529.842 392.605 524.754 386.237 524.754C379.869 524.754 374.707 529.842 374.707 536.119C374.707 542.395 379.869 547.484 386.237 547.484Z" fill="#E1E4E5"/>
<path d="M386.237 646.773C392.605 646.773 397.767 641.684 397.767 635.408C397.767 629.131 392.605 624.043 386.237 624.043C379.869 624.043 374.707 629.131 374.707 635.408C374.707 641.684 379.869 646.773 386.237 646.773Z" fill="#E1E4E5"/>
<path d="M385.633 462.818C416.077 424.18 465.433 424.18 495.876 462.818M213.297 675.751C243.741 637.113 293.096 637.113 323.541 675.751M32.4648 577.658C62.9092 539.02 112.265 539.02 142.708 577.658" stroke="#E1E4E5" stroke-width="4" stroke-linecap="round" stroke-linejoin="round"/>
<path d="M459.84 442.137C469.615 451.772 469.615 467.394 459.84 477.028C450.065 486.664 434.216 486.664 424.44 477.028C414.666 467.394 414.666 451.772 424.44 442.137C434.216 432.501 450.065 432.501 459.84 442.137ZM287.504 655.069C297.279 664.705 297.279 680.327 287.504 689.962C277.729 699.598 261.88 699.598 252.104 689.962C242.329 680.327 242.329 664.705 252.104 655.069C261.88 645.434 277.729 645.434 287.504 655.069ZM106.672 556.976C116.448 566.612 116.448 582.234 106.672 591.869C96.8973 601.505 81.0484 601.505 71.2725 591.869C61.4977 582.234 61.4977 566.612 71.2725 556.976C81.0484 547.341 96.8973 547.341 106.672 556.976Z" stroke="#E1E4E5" stroke-width="4" stroke-linecap="round" stroke-linejoin="round"/>
<path d="M712.417 464.536C694.564 473.266 670.867 462.041 670.867 462.041C670.867 462.041 676.133 436.669 693.997 427.95C711.851 419.221 735.537 430.434 735.537 430.434C735.537 430.434 730.271 455.806 712.417 464.536Z" fill="url(#paint0_linear_523_776)"/>
<path d="M105.756 673.056C119.609 661.259 118.395 637.486 118.395 637.486C118.395 637.486 94.7218 632.854 80.8761 644.663C67.0239 656.461 68.2296 680.224 68.2296 680.224C68.2296 680.224 91.9032 684.855 105.756 673.056Z" fill="url(#paint1_linear_523_776)"/>
<path d="M604.146 731.094C604.146 723.908 598.236 718.083 590.946 718.083C583.656 718.083 577.746 723.908 577.746 731.094C577.746 738.279 583.656 744.104 590.946 744.104C598.236 744.104 604.146 738.279 604.146 731.094Z" fill="#687391"/>
<path d="M187.812 636.006C187.812 629.399 182.378 624.043 175.675 624.043C168.973 624.043 163.539 629.399 163.539 636.006C163.539 642.612 168.973 647.968 175.675 647.968C182.378 647.968 187.812 642.612 187.812 636.006Z" fill="#687391"/>
<path d="M339.007 342.924C327.893 342.924 318.884 351.804 318.884 362.758C318.884 373.712 327.893 382.592 339.007 382.592C350.12 382.592 359.129 373.712 359.129 362.758C359.129 351.804 350.12 342.924 339.007 342.924Z" fill="#687391"/>
<path d="M586.927 429.048C577.666 429.048 570.159 421.648 570.159 412.52C570.159 403.392 577.666 395.992 586.927 395.992C596.188 395.992 603.695 403.392 603.695 412.52C603.695 421.648 596.188 429.048 586.927 429.048Z" fill="#687391"/>
<path d="M270.882 525.668C266.561 525.668 263.058 522.215 263.058 517.955C263.058 513.696 266.561 510.243 270.882 510.243C275.204 510.243 278.707 513.696 278.707 517.955C278.707 522.215 275.204 525.668 270.882 525.668Z" fill="#E1E4E5"/>
<path d="M676.946 721.188C673.017 717.315 673.017 711.036 676.946 707.163C680.875 703.291 687.246 703.291 691.175 707.163C695.104 711.036 695.104 717.315 691.175 721.188C687.246 725.061 680.875 725.061 676.946 721.188Z" fill="#E1E4E5"/>
<path d="M137.873 526.171C134.492 526.171 131.751 523.469 131.751 520.136C131.751 516.803 134.492 514.101 137.873 514.101C141.255 514.101 143.996 516.803 143.996 520.136C143.996 523.469 141.255 526.171 137.873 526.171Z" fill="#E1E4E5"/>
<path d="M454.472 398.475C449.299 398.475 445.105 394.341 445.105 389.242C445.105 384.142 449.299 380.008 454.472 380.008C459.646 380.008 463.84 384.142 463.84 389.242C463.84 394.341 459.646 398.475 454.472 398.475Z" fill="#E1E4E5"/>
<path d="M269.288 381.096C270.17 384.339 268.217 387.672 264.927 388.541C261.637 389.41 258.255 387.485 257.374 384.242C256.492 381 258.444 377.666 261.735 376.797C265.025 375.928 268.406 377.853 269.288 381.096Z" fill="#E1E4E5"/>
<path d="M244.241 615.67C239.884 615.67 236.352 612.189 236.352 607.894C236.352 603.6 239.884 600.119 244.241 600.119C248.597 600.119 252.129 603.6 252.129 607.894C252.129 612.189 248.597 615.67 244.241 615.67Z" fill="#E1E4E5"/>
<path d="M474.936 717.491C470.524 713.141 469.808 706.794 473.339 703.314C476.869 699.835 483.308 700.54 487.721 704.889C492.134 709.239 492.849 715.586 489.319 719.066C485.788 722.546 479.349 721.84 474.936 717.491Z" fill="#E1E4E5"/>
<path d="M532.974 337.325C534.827 344.143 530.722 351.15 523.806 352.977C516.889 354.804 509.779 350.758 507.926 343.94C506.073 337.123 510.177 330.115 517.094 328.288C524.011 326.461 531.12 330.507 532.974 337.325Z" fill="#E1E4E5"/>
<path d="M671.012 586.96H671.192C672.259 601.861 683.502 602.09 683.502 602.09C683.502 602.09 671.104 602.33 671.104 619.548C671.104 602.33 658.707 602.09 658.707 602.09C658.707 602.09 669.945 601.861 671.012 586.96ZM187.971 368.046H188.132C189.092 381.674 199.212 381.884 199.212 381.884C199.212 381.884 188.053 382.103 188.053 397.85C188.053 382.103 176.895 381.884 176.895 381.884C176.895 381.884 187.01 381.674 187.971 368.046Z" fill="#E1E4E5"/>
<path fill-rule="evenodd" clip-rule="evenodd" d="M89.8874 739.315H94.9699C96.199 739.315 97.1894 740.301 97.1894 741.502V746.512C97.1888 747.092 96.9548 747.649 96.5387 748.059C96.1226 748.469 95.5584 748.7 94.9699 748.7H89.8874C89.2995 748.698 88.7362 748.467 88.3205 748.057C87.9048 747.647 87.6702 747.092 87.668 746.512V741.502C87.6674 741.214 87.7244 740.93 87.8358 740.664C87.9471 740.398 88.1106 740.157 88.3168 739.954C88.5231 739.751 88.768 739.59 89.0375 739.48C89.307 739.37 89.5958 739.314 89.8874 739.315ZM107.511 739.315H112.594C113.182 739.317 113.745 739.548 114.161 739.958C114.577 740.367 114.811 740.922 114.813 741.502V746.512C114.813 747.092 114.579 747.649 114.163 748.059C113.747 748.469 113.182 748.7 112.594 748.7H107.511C106.923 748.698 106.36 748.467 105.944 748.057C105.529 747.647 105.294 747.092 105.292 746.512V741.502C105.294 740.922 105.529 740.367 105.945 739.958C106.36 739.548 106.924 739.317 107.511 739.315ZM125.147 739.315H130.231C130.818 739.317 131.381 739.548 131.797 739.958C132.212 740.367 132.447 740.922 132.449 741.502V746.512C132.448 747.092 132.215 747.648 131.799 748.058C131.383 748.468 130.819 748.699 130.231 748.7H125.147C124.559 748.698 123.996 748.466 123.581 748.057C123.165 747.647 122.931 747.092 122.929 746.512V741.502C122.928 741.214 122.985 740.93 123.096 740.664C123.207 740.398 123.371 740.157 123.577 739.954C123.783 739.751 124.028 739.59 124.297 739.48C124.567 739.37 124.856 739.314 125.147 739.315ZM142.771 739.315H147.855C148.442 739.317 149.005 739.548 149.421 739.958C149.836 740.367 150.071 740.922 150.073 741.502V746.512C150.072 747.092 149.839 747.648 149.423 748.058C149.007 748.468 148.443 748.699 147.855 748.7H142.771C142.182 748.7 141.616 748.47 141.199 748.06C140.781 747.65 140.545 747.093 140.542 746.512V741.502C140.548 740.922 140.786 740.368 141.203 739.959C141.62 739.55 142.183 739.319 142.771 739.315ZM160.397 739.315H165.481C166.71 739.315 167.71 740.301 167.71 741.502V746.512C167.709 746.8 167.651 747.085 167.539 747.351C167.426 747.617 167.262 747.858 167.055 748.061C166.848 748.265 166.602 748.426 166.332 748.535C166.062 748.645 165.773 748.701 165.481 748.7H160.397C159.809 748.698 159.246 748.466 158.831 748.057C158.415 747.647 158.181 747.092 158.179 746.512V741.502C158.181 740.922 158.415 740.367 158.831 739.958C159.246 739.548 159.809 739.317 160.397 739.315ZM108.158 758.259H113.241C113.829 758.261 114.392 758.491 114.808 758.901C115.223 759.311 115.458 759.866 115.46 760.445V765.466C115.458 766.046 115.223 766.601 114.808 767.011C114.392 767.42 113.829 767.651 113.241 767.653H108.158C107.57 767.653 107.006 767.422 106.59 767.012C106.173 766.602 105.939 766.046 105.939 765.466V760.456C105.937 760.167 105.993 759.882 106.104 759.615C106.215 759.348 106.378 759.106 106.585 758.902C106.791 758.698 107.036 758.536 107.306 758.425C107.576 758.315 107.866 758.258 108.158 758.259ZM125.782 758.259H130.865C131.453 758.261 132.016 758.491 132.432 758.901C132.847 759.311 133.082 759.866 133.084 760.445V765.466C133.082 766.046 132.847 766.601 132.432 767.011C132.016 767.42 131.453 767.651 130.865 767.653H125.782C125.194 767.651 124.631 767.42 124.215 767.011C123.8 766.601 123.565 766.046 123.563 765.466V760.456C123.561 760.167 123.617 759.882 123.728 759.615C123.839 759.348 124.002 759.106 124.209 758.902C124.415 758.698 124.66 758.536 124.93 758.425C125.2 758.315 125.49 758.258 125.782 758.259ZM143.407 758.259H148.491C149.72 758.259 150.72 759.244 150.72 760.445V765.466C150.717 766.047 150.481 766.603 150.063 767.013C149.646 767.423 149.08 767.653 148.491 767.653H143.407C142.82 767.651 142.257 767.42 141.841 767.01C141.426 766.601 141.191 766.046 141.189 765.466V760.456C141.189 759.244 142.189 758.259 143.407 758.259ZM125.147 718.965H130.231C130.818 718.967 131.381 719.198 131.797 719.607C132.212 720.017 132.447 720.572 132.449 721.151V726.162C132.448 726.742 132.215 727.298 131.799 727.708C131.383 728.118 130.819 728.349 130.231 728.35L125.147 728.349C124.559 728.346 123.996 728.115 123.581 727.706C123.165 727.296 122.931 726.741 122.929 726.162V721.151C122.928 720.864 122.985 720.579 123.096 720.314C123.207 720.048 123.371 719.807 123.577 719.604C123.783 719.4 124.028 719.239 124.297 719.13C124.567 719.02 124.856 718.964 125.147 718.965ZM142.771 718.965H147.855C148.442 718.967 149.005 719.198 149.421 719.607C149.836 720.017 150.071 720.572 150.073 721.151V726.162C150.072 726.742 149.839 727.298 149.423 727.708C149.007 728.118 148.443 728.349 147.855 728.35L142.771 728.349C142.182 728.349 141.616 728.119 141.199 727.709C140.781 727.299 140.545 726.743 140.542 726.162V721.151C140.548 720.571 140.786 720.017 141.203 719.608C141.62 719.199 142.183 718.968 142.771 718.965ZM359.23 711.094H364.314C365.543 711.094 366.533 712.08 366.533 713.281V718.291C366.532 718.871 366.298 719.428 365.882 719.838C365.466 720.248 364.902 720.479 364.314 720.479H359.23C358.642 720.477 358.079 720.245 357.664 719.836C357.248 719.426 357.014 718.871 357.012 718.291V713.281C357.011 712.993 357.068 712.709 357.179 712.443C357.29 712.178 357.454 711.936 357.66 711.733C357.866 711.53 358.111 711.369 358.38 711.259C358.65 711.149 358.938 711.093 359.23 711.094ZM376.855 711.094H381.938C382.525 711.096 383.089 711.327 383.504 711.737C383.92 712.146 384.155 712.701 384.157 713.281V718.291C384.156 718.871 383.922 719.428 383.506 719.838C383.09 720.248 382.526 720.479 381.938 720.479H376.855C376.267 720.477 375.704 720.246 375.288 719.836C374.872 719.426 374.638 718.871 374.636 718.291V713.281C374.638 712.701 374.872 712.146 375.288 711.737C375.704 711.327 376.267 711.096 376.855 711.094ZM394.491 711.094H399.574C400.162 711.096 400.725 711.327 401.14 711.737C401.556 712.147 401.79 712.701 401.793 713.281V718.291C401.792 718.871 401.558 719.427 401.142 719.837C400.726 720.247 400.163 720.478 399.574 720.479H394.491C393.903 720.477 393.34 720.245 392.924 719.836C392.509 719.426 392.275 718.871 392.272 718.291V713.281C392.272 712.993 392.329 712.709 392.44 712.443C392.551 712.178 392.714 711.936 392.92 711.733C393.127 711.53 393.371 711.369 393.641 711.259C393.91 711.149 394.199 711.093 394.491 711.094ZM412.115 711.094H417.198C417.786 711.096 418.349 711.327 418.764 711.737C419.18 712.147 419.414 712.701 419.417 713.281V718.291C419.416 718.871 419.182 719.427 418.766 719.837C418.35 720.247 417.787 720.478 417.198 720.479H412.115C411.525 720.479 410.96 720.249 410.542 719.839C410.124 719.429 409.888 718.872 409.886 718.291V713.281C409.892 712.701 410.129 712.147 410.546 711.738C410.963 711.329 411.526 711.098 412.115 711.094ZM429.741 711.094H434.824C436.053 711.094 437.053 712.08 437.053 713.281V718.291C437.053 718.579 436.995 718.864 436.882 719.13C436.77 719.396 436.606 719.637 436.399 719.84C436.192 720.044 435.946 720.205 435.676 720.314C435.406 720.424 435.116 720.48 434.824 720.479H429.741C429.153 720.477 428.59 720.245 428.175 719.836C427.759 719.426 427.525 718.871 427.522 718.291V713.281C427.525 712.701 427.759 712.147 428.175 711.737C428.59 711.327 429.153 711.096 429.741 711.094ZM377.502 730.038H382.584C383.172 730.04 383.735 730.271 384.151 730.68C384.567 731.09 384.802 731.645 384.804 732.224V737.245C384.802 737.825 384.567 738.38 384.151 738.79C383.735 739.199 383.172 739.43 382.584 739.432H377.502C376.914 739.432 376.349 739.201 375.933 738.791C375.517 738.381 375.283 737.825 375.282 737.245V732.235C375.281 731.947 375.337 731.661 375.448 731.394C375.559 731.127 375.722 730.885 375.928 730.681C376.134 730.477 376.38 730.315 376.65 730.204C376.92 730.094 377.209 730.037 377.502 730.038ZM395.126 730.038H400.208C400.796 730.04 401.359 730.271 401.775 730.68C402.191 731.09 402.426 731.645 402.428 732.224V737.245C402.426 737.825 402.191 738.38 401.775 738.79C401.359 739.199 400.796 739.43 400.208 739.432H395.126C394.538 739.43 393.975 739.199 393.559 738.79C393.143 738.38 392.909 737.825 392.906 737.245V732.235C392.905 731.947 392.961 731.661 393.072 731.394C393.183 731.127 393.346 730.885 393.552 730.681C393.758 730.477 394.004 730.315 394.274 730.204C394.544 730.094 394.833 730.037 395.126 730.038ZM412.751 730.038H417.834C419.063 730.038 420.063 731.023 420.063 732.224V737.245C420.061 737.826 419.825 738.383 419.407 738.792C418.989 739.202 418.424 739.432 417.834 739.432H412.751C412.163 739.43 411.6 739.199 411.185 738.789C410.769 738.38 410.535 737.825 410.532 737.245V732.235C410.532 731.023 411.532 730.038 412.751 730.038ZM394.491 690.744H399.574C400.162 690.746 400.725 690.977 401.14 691.387C401.556 691.796 401.79 692.351 401.793 692.93V697.941C401.792 698.521 401.558 699.077 401.142 699.487C400.726 699.897 400.163 700.128 399.574 700.129L394.491 700.128C393.903 700.125 393.34 699.894 392.925 699.485C392.509 699.075 392.275 698.52 392.272 697.941V692.93C392.272 692.643 392.329 692.358 392.44 692.093C392.551 691.827 392.714 691.586 392.92 691.383C393.127 691.179 393.371 691.018 393.641 690.909C393.91 690.799 394.199 690.743 394.491 690.744ZM412.115 690.744H417.198C417.786 690.746 418.349 690.977 418.764 691.387C419.18 691.796 419.414 692.351 419.417 692.93V697.941C419.416 698.521 419.182 699.077 418.766 699.487C418.35 699.897 417.787 700.128 417.198 700.129L412.115 700.128C411.525 700.128 410.96 699.898 410.542 699.488C410.125 699.078 409.888 698.522 409.886 697.941V692.93C409.892 692.35 410.129 691.796 410.546 691.387C410.963 690.978 411.526 690.747 412.115 690.744Z" fill="#E1E4E5"/>
</g>
<path d="M478.295 717.222L472.246 717.222L469.367 694.22L478.296 694.221L478.295 717.222Z" fill="#FFB6B6"/>
<path d="M478.506 723.443L459.902 723.442V723.21C459.903 719.268 463.144 716.073 467.144 716.073L470.542 713.532L476.883 716.073L478.507 716.073L478.506 723.443Z" fill="#2F2E41"/>
<path d="M524.39 685.836L521.526 691.088L499.609 682.694L503.838 674.942L524.39 685.836Z" fill="#FFB6B6"/>
<path d="M530.05 688.596L521.239 704.747L521.032 704.637C517.51 702.771 516.19 698.443 518.083 694.971L517.422 690.817L522.695 686.516L523.465 685.106L530.05 688.596Z" fill="#2F2E41"/>
<path d="M466.859 611.889L461.52 653.994L464.189 668.11L512.246 688.862L514.915 680.309C502.632 672.9 489.5 661.687 481.226 660.863C481.226 660.863 499.23 620.113 498.563 616.823C497.895 613.534 466.859 611.889 466.859 611.889Z" fill="#2F2E41"/>
<path d="M465.938 653.872L463.145 671.653L470.195 707.941H479.539C482.896 695.748 483.069 679.723 479.873 666.165L465.938 653.872Z" fill="#2F2E41"/>
<path d="M471.943 560.445L476.251 553.047L480.876 549.39L489.552 548.074L491.963 549.901C500.638 562.97 503.874 578.831 500.997 594.19L498.628 606.837L500.666 616.378C501.307 619.378 499.359 622.322 496.315 622.954C495.941 623.032 495.56 623.072 495.178 623.073L473.65 623.161C468.278 623.182 463.905 618.908 463.883 613.613C463.881 613.119 463.918 612.625 463.993 612.136L471.943 560.445Z" fill="#E6E6E6"/>
<path d="M488.838 585.922L480.234 584.708C477.324 589.504 476.29 602.27 476.29 602.27L467.869 621.997C466.116 623.171 465.66 625.523 466.851 627.251C468.042 628.979 470.428 629.429 472.181 628.255C473.319 627.493 473.956 626.189 473.852 624.838L487.677 601.876L488.838 585.922Z" fill="#FFB8B8"/>
<path d="M487.469 562.377C492.475 563.142 495.904 567.76 495.129 572.694C495.042 573.246 494.903 573.79 494.714 574.318L492.888 579.419C492.888 579.419 491.894 594.778 488.104 599.114L476.473 598.076C476.473 598.076 478.599 590.327 476.967 586.578C475.967 584.282 476.022 576.351 477.007 569.9C477.783 564.979 482.458 561.61 487.45 562.375L487.469 562.377Z" fill="#E6E6E6"/>
<path d="M470.809 571.155L468.766 562.828C463.168 561.941 450.755 565.724 450.755 565.724L429.046 565.324C427.29 564.154 424.905 564.608 423.718 566.339C422.53 568.069 422.991 570.421 424.747 571.591C425.886 572.35 427.351 572.451 428.586 571.854L455.345 576.004L470.809 571.155Z" fill="#FFB8B8"/>
<path d="M492.488 561.178C493.622 566.044 490.54 570.894 485.604 572.013C485.051 572.138 484.487 572.212 483.92 572.235L478.437 572.453C478.437 572.453 463.595 577.234 458.105 575.371L454.773 564.337C454.773 564.337 462.864 563.413 465.792 560.529C467.585 558.763 475.079 555.876 481.523 554.387C486.447 553.274 491.354 556.306 492.483 561.16L492.488 561.178Z" fill="#E6E6E6"/>
<path d="M494.199 536.569C495.208 530.438 490.984 524.662 484.765 523.667C478.545 522.672 472.685 526.835 471.675 532.966C470.666 539.097 474.89 544.873 481.109 545.868C487.329 546.863 493.189 542.699 494.199 536.569Z" fill="#FFB8B8"/>
<path d="M483.133 545.693C484.802 545.719 486.471 545.604 488.12 545.35C489.755 545.022 493.413 542.38 494.433 540.79C495.176 539.426 495.688 537.952 495.948 536.425C496.691 532.841 495.859 529.114 493.656 526.17C493.237 525.561 492.659 525.075 491.983 524.763C491.923 524.74 491.862 524.719 491.799 524.702C490.814 524.446 489.929 523.906 489.258 523.152C489.128 522.999 488.987 522.856 488.836 522.723C488.077 522.092 487.177 521.647 486.21 521.424C484.649 521.012 482.391 521.421 479.497 522.64C478.122 523.116 476.632 523.161 475.23 522.769C475.09 522.742 474.947 522.791 474.853 522.896C474.333 523.378 473.647 523.647 472.933 523.651C472.496 523.669 472.037 524.266 471.482 525.044C471.357 525.221 471.21 525.427 471.104 525.552L471.09 525.312L470.842 525.58C469.57 526.962 469.676 529.1 471.078 530.354C471.455 530.691 471.903 530.941 472.39 531.086C472.83 531.201 473.281 531.272 473.735 531.297C474.01 531.322 474.295 531.347 474.568 531.393C476.349 531.753 477.807 533.008 478.409 534.7C478.661 535.392 479.435 535.753 480.138 535.504C480.248 535.465 480.353 535.412 480.449 535.347C481.026 534.904 481.786 534.767 482.484 534.981C482.781 535.144 483.013 535.403 483.14 535.714C483.294 536.061 483.549 536.354 483.873 536.557C484.981 537.12 485.057 539.615 484.659 541.694C484.276 543.698 483.517 545.148 482.815 545.22C482.275 545.275 482.213 545.313 482.174 545.407L482.139 545.492L482.2 545.57C482.498 545.677 482.817 545.719 483.133 545.693Z" fill="#2F2E41"/>
<path d="M400.303 392.98H300.089C288.724 392.98 279.512 402.061 279.512 413.263V672.824C279.512 684.025 288.724 693.106 300.089 693.106H400.303C411.668 693.106 420.88 684.025 420.88 672.824V413.263C420.88 402.061 411.668 392.98 400.303 392.98Z" fill="white"/>
<path d="M400.654 694.066H300.439C288.825 694.066 279.375 684.752 279.375 673.304V413.743C279.375 402.295 288.825 392.98 300.439 392.98H400.654C412.269 392.98 421.718 402.295 421.718 413.743V673.304C421.718 684.752 412.269 694.066 400.654 694.066ZM300.439 393.941C289.362 393.941 280.35 402.824 280.35 413.743V673.304C280.35 684.223 289.362 693.106 300.439 693.106H400.654C411.732 693.106 420.744 684.223 420.744 673.304V413.743C420.744 402.824 411.732 393.941 400.654 393.941H300.439Z" fill="#3F3D56"/>
<path d="M271.58 438.399C270.7 438.399 269.984 439.104 269.984 439.972V452.551C269.984 453.418 270.7 454.123 271.58 454.123C272.459 454.123 273.175 453.418 273.175 452.551V439.972C273.175 439.104 272.459 438.399 271.58 438.399Z" fill="#3F3D56"/>
<path d="M407.915 434.987H367.634C365.925 434.987 364.535 433.617 364.535 431.933C364.535 430.249 365.925 428.878 367.634 428.878H407.915C409.623 428.878 411.013 430.249 411.013 431.933C411.013 433.617 409.623 434.987 407.915 434.987Z" fill="#E6E6E6"/>
<path d="M370.121 459.004H330.966C329.979 459.004 329.176 458.212 329.176 457.239C329.176 456.266 329.979 455.475 330.966 455.475H370.121C371.108 455.475 371.911 456.266 371.911 457.239C371.911 458.212 371.108 459.004 370.121 459.004Z" fill="#F2C6BD"/>
<path d="M273.131 467.713C290.595 467.713 304.753 454.052 304.753 437.2C304.753 420.348 290.595 406.687 273.131 406.687C255.666 406.687 241.508 420.348 241.508 437.2C241.508 454.052 255.666 467.713 273.131 467.713Z" fill="#F2C6BD"/>
<path d="M283.867 421.809C279.657 429.365 275.447 436.922 271.237 444.478C268.554 439.805 265.886 435.124 263.196 430.454C262.267 428.842 259.74 430.292 260.671 431.909C263.79 437.322 266.875 442.752 269.993 448.165C270.526 449.091 271.99 449.112 272.518 448.165C277.142 439.865 281.767 431.564 286.392 423.264C287.298 421.637 284.774 420.182 283.867 421.809Z" fill="white"/>
<path d="M300.195 468.45C300.195 468.767 300.454 469.022 300.775 469.022H400.318C400.64 469.022 400.898 468.767 400.898 468.45C400.898 468.133 400.64 467.879 400.318 467.879H300.775C300.454 467.879 300.195 468.133 300.195 468.45Z" fill="#3F3D56"/>
<path d="M390.778 513.371H331.04C330.053 513.371 329.25 512.58 329.25 511.607C329.25 510.634 330.053 509.842 331.04 509.842H390.778C391.765 509.842 392.568 510.634 392.568 511.607C392.568 512.58 391.765 513.371 390.778 513.371Z" fill="#F2C6BD"/>
<path d="M390.778 538.827H331.04C330.053 538.827 329.25 538.035 329.25 537.062C329.25 536.089 330.053 535.298 331.04 535.298H390.778C391.765 535.298 392.568 536.089 392.568 537.062C392.568 538.035 391.765 538.827 390.778 538.827Z" fill="#F2C6BD"/>
<path d="M390.778 564.281H331.04C330.053 564.281 329.25 563.49 329.25 562.517C329.25 561.544 330.053 560.752 331.04 560.752H390.778C391.765 560.752 392.568 561.544 392.568 562.517C392.568 563.49 391.765 564.281 390.778 564.281Z" fill="#6C63FF"/>
<path d="M312.921 515.711C315.342 515.711 317.306 513.776 317.306 511.389C317.306 509.001 315.342 507.066 312.921 507.066C310.499 507.066 308.535 509.001 308.535 511.389C308.535 513.776 310.499 515.711 312.921 515.711Z" fill="#F2C6BD"/>
<path d="M312.434 518.593V517.632C316.061 517.632 319.012 514.724 319.012 511.148C319.012 507.573 316.061 504.665 312.434 504.665V503.704C316.598 503.704 319.986 507.044 319.986 511.148C319.986 515.253 316.598 518.593 312.434 518.593Z" fill="#3F3D56"/>
<path d="M312.921 541.166C315.342 541.166 317.306 539.231 317.306 536.844C317.306 534.456 315.342 532.521 312.921 532.521C310.499 532.521 308.535 534.456 308.535 536.844C308.535 539.231 310.499 541.166 312.921 541.166Z" fill="#F2C6BD"/>
<path d="M312.434 544.048V543.087C316.061 543.087 319.012 540.179 319.012 536.603C319.012 533.028 316.061 530.12 312.434 530.12V529.159C316.598 529.159 319.986 532.498 319.986 536.603C319.986 540.708 316.598 544.048 312.434 544.048Z" fill="#3F3D56"/>
<path d="M312.921 566.621C315.342 566.621 317.306 564.686 317.306 562.299C317.306 559.911 315.342 557.976 312.921 557.976C310.499 557.976 308.535 559.911 308.535 562.299C308.535 564.686 310.499 566.621 312.921 566.621Z" fill="#6C63FF"/>
<path d="M312.434 569.503V568.542C316.061 568.542 319.012 565.634 319.012 562.059C319.012 558.483 316.061 555.575 312.434 555.575V554.614C316.598 554.614 319.986 557.954 319.986 562.059C319.986 566.164 316.598 569.503 312.434 569.503Z" fill="#3F3D56"/>
<path d="M408.664 583.883H304.525C303.159 583.881 302.052 582.79 302.051 581.444V552.457C302.052 551.11 303.159 550.019 304.525 550.018H408.664C410.03 550.019 411.137 551.11 411.139 552.457V581.444C411.137 582.79 410.03 583.881 408.664 583.883Z" fill="white"/>
<path d="M408.663 584.343H304.523C302.9 584.341 301.584 583.044 301.582 581.444V552.457C301.584 550.856 302.9 549.559 304.523 549.558H408.663C410.286 549.559 411.602 550.856 411.604 552.457V581.444C411.602 583.044 410.286 584.341 408.663 584.343ZM304.523 550.478C303.415 550.48 302.517 551.365 302.516 552.457V581.444C302.517 582.536 303.415 583.421 304.523 583.423H408.663C409.771 583.421 410.669 582.536 410.67 581.444V552.457C410.669 551.365 409.771 550.48 408.663 550.478L304.523 550.478Z" fill="#CCCCCC"/>
<path d="M314.015 563.758C316.233 563.758 318.031 561.986 318.031 559.8C318.031 557.614 316.233 555.842 314.015 555.842C311.798 555.842 310 557.614 310 559.8C310 561.986 311.798 563.758 314.015 563.758Z" fill="#F2C6BD"/>
<path d="M401.994 569.773H311.197C310.537 569.774 310.001 569.247 310 568.596C309.999 567.945 310.534 567.417 311.194 567.416H401.994C402.654 567.415 403.19 567.942 403.191 568.593C403.192 569.244 402.657 569.772 401.997 569.773H401.994Z" fill="#F2C6BD"/>
<path d="M392.228 574.43H311.196C310.535 574.43 310 573.903 310 573.252C310 572.601 310.535 572.073 311.196 572.073H392.228C392.888 572.073 393.423 572.601 393.423 573.252C393.423 573.903 392.888 574.43 392.228 574.43Z" fill="#F2C6BD"/>
<path opacity="0.3" d="M766.985 724.48C766.989 724.756 766.087 724.98 764.972 724.98H2.02521C0.906688 724.98 0 724.757 0 724.48C0 724.204 0.906705 723.98 2.02521 723.98H764.96C766.075 723.98 766.982 724.202 766.985 724.477V724.48Z" fill="#CCCCCC"/>
<path d="M323.518 168.419L323.437 167.992C320.772 153.504 324.706 138.594 334.196 127.222C336.852 124.091 339.896 121.303 343.259 118.922L343.579 118.694L343.719 119.058C345.392 123.404 347.503 127.757 348.465 129.683L349.114 115.301L349.484 115.107C352.956 113.273 357.211 113.706 360.231 116.2C363.354 118.674 364.636 122.772 363.469 126.55C362.964 128.24 362.488 129.992 362.027 131.687C360.443 137.512 358.806 143.536 355.633 148.608C350.692 156.336 342.475 161.453 333.272 162.533L323.518 168.419Z" fill="#F2F2F2"/>
<path d="M116.661 265.18L116.261 264.156C118.933 263.916 121.141 262.828 121.269 261.26H116.837V260.22H121.333V258.764H122.645V260.22H127.141V261.26H122.693C122.821 262.828 125.013 263.916 127.717 264.156L127.317 265.18C124.949 264.924 122.853 264.076 121.989 262.668C121.109 264.076 119.029 264.924 116.661 265.18ZM121.973 272.156C124.245 272.156 125.557 271.66 125.557 270.764C125.557 269.868 124.245 269.356 121.973 269.356C119.701 269.356 118.389 269.868 118.389 270.764C118.389 271.66 119.701 272.156 121.973 272.156ZM121.973 268.38C125.061 268.38 126.885 269.212 126.885 270.764C126.885 272.316 125.061 273.148 121.973 273.148C118.885 273.148 117.061 272.316 117.061 270.764C117.061 269.212 118.885 268.38 121.973 268.38ZM122.645 266.252H128.469V267.308H115.493V266.252H121.333V264.476H122.645V266.252ZM137.629 265.788C136.893 265.788 135.949 266.22 135.229 267.292C135.405 269.724 136.285 271.052 137.757 271.052C138.877 271.052 139.757 269.98 139.757 268.38C139.757 266.796 139.053 265.788 137.629 265.788ZM137.757 272.188C135.501 272.188 133.837 270.252 133.837 266.38C133.837 261.788 135.901 260.028 138.173 260.028C139.389 260.028 140.269 260.54 140.909 261.228L140.109 262.14C139.645 261.58 138.941 261.244 138.221 261.244C136.621 261.244 135.261 262.476 135.197 266.124C135.917 265.244 136.941 264.7 137.869 264.7C139.853 264.7 141.117 265.932 141.117 268.38C141.117 270.652 139.581 272.188 137.757 272.188ZM143.208 260.668H148.808C148.808 264.364 147.512 267.788 143.432 270.092L142.664 269.148C145.96 267.308 147.32 264.716 147.512 261.74H143.208V260.668ZM153.576 258.812H154.84V273.164H153.576V265.66H151.624V272.444H150.392V259.196H151.624V264.588H153.576V258.812ZM162.039 259.868C164.279 259.868 165.879 261.228 165.879 263.244C165.879 265.244 164.279 266.62 162.039 266.62C159.815 266.62 158.199 265.244 158.199 263.244C158.199 261.228 159.815 259.868 162.039 259.868ZM162.039 260.988C160.567 260.988 159.479 261.9 159.479 263.244C159.479 264.572 160.567 265.5 162.039 265.5C163.527 265.5 164.599 264.572 164.599 263.244C164.599 261.9 163.527 260.988 162.039 260.988ZM167.767 258.812H169.079V273.196H167.767V258.812ZM157.639 270.044L157.479 268.94C160.087 268.94 163.687 268.924 166.823 268.444L166.935 269.42C163.703 270.012 160.231 270.044 157.639 270.044ZM183.76 267.308V263.484H181.856V262.428H183.76V259.052H185.008V267.308H183.76ZM182.416 265.148L182.528 266.204C180.896 266.524 179.536 266.588 177.248 266.588H176.336V259.74H181.76V260.796H177.6V262.572H181.2V263.596H177.6V265.532C179.632 265.532 180.928 265.452 182.416 265.148ZM179.648 269.18V271.916H186.512V269.18H179.648ZM178.368 272.972V268.14H187.792V272.972H178.368ZM186.528 258.812H187.792V267.452H186.528V258.812ZM198.655 263.004V260.268H195.087V263.004H198.655ZM193.775 263.004V260.268H191.599V259.26H202.127V260.268H199.967V263.004H202.079V264.012H191.647V263.004H193.775ZM193.279 270.668V272.012H202.143V273.004H191.999V269.724H200.415V268.492H191.951V267.516H201.711V270.668H193.279ZM190.383 265.212H203.375V266.252H190.383V265.212ZM216.878 258.812V268.524H215.566V258.812H216.878ZM205.87 262.78H211.054V260.796H205.822V259.724H212.35V263.788H207.15V265.884C209.79 265.884 211.646 265.804 213.854 265.42L213.982 266.476C211.694 266.876 209.79 266.956 207.022 266.956H205.87V262.78ZM212.91 267.804V268.22C212.91 270.22 215.15 271.708 217.726 272.108L217.23 273.116C215.054 272.732 213.102 271.66 212.238 270.028C211.39 271.676 209.406 272.732 207.246 273.116L206.734 272.108C209.294 271.708 211.566 270.236 211.566 268.22V267.804H212.91ZM227.324 266.86L226.012 266.732C226.412 264.348 226.444 262.604 226.444 261.452H220.476V260.38H227.724V261.164C227.724 262.316 227.724 264.188 227.324 266.86ZM224.028 264.476V268.86C225.596 268.796 227.196 268.7 228.652 268.524L228.732 269.484C225.756 269.964 222.38 270.028 219.836 270.028L219.692 268.94C220.604 268.94 221.66 268.924 222.732 268.892V264.476H224.028ZM233.132 264.812V265.916H230.844V273.164H229.532V258.812H230.844V264.812H233.132ZM250.501 266.028L249.909 267.116C247.733 266.62 245.493 265.084 244.581 262.972C243.669 265.068 241.429 266.604 239.269 267.116L238.677 266.028C241.189 265.532 243.893 263.372 243.893 260.924V259.82H245.269V260.924C245.269 263.372 247.989 265.548 250.501 266.028ZM238.133 270.156H251.141V271.244H238.133V270.156ZM259.588 265.1L259.7 266.172C258.068 266.492 256.692 266.556 254.388 266.556H253.476V259.724H259.012V260.796H254.74V262.556H258.868V263.564H254.74V265.484C256.788 265.484 258.084 265.404 259.588 265.1ZM256.82 269.052V271.916H263.684V269.052H256.82ZM255.54 272.972V268.012H264.964V272.972H255.54ZM263.7 258.812H264.964V267.308H263.7V263.548H261.78V267.116H260.532V259.1H261.78V262.476H263.7V258.812ZM275.827 266.3V261.308H272.259V266.3H275.827ZM270.947 266.3V261.308H268.723V260.252H279.363V261.308H277.139V266.3H279.331V267.372H268.755V266.3H270.947ZM267.571 270.236H280.579V271.324H267.571V270.236ZM286.412 260.668H292.012C292.012 264.364 290.716 267.788 286.636 270.092L285.868 269.148C289.164 267.308 290.524 264.716 290.716 261.74H286.412V260.668ZM296.78 258.812H298.044V273.164H296.78V265.66H294.828V272.444H293.596V259.196H294.828V264.588H296.78V258.812ZM312.938 264.284L312.394 265.34C310.17 264.956 308.01 263.708 307.082 261.98C306.186 263.724 304.026 264.956 301.786 265.34L301.258 264.284C303.866 263.9 306.394 262.172 306.394 260.124V259.324H307.77V260.124C307.77 262.124 310.33 263.9 312.938 264.284ZM313.562 266.892L313.578 267.98H307.706V273.18H306.394V267.98H300.602V266.892H313.562ZM315.657 275.02L315.305 274.156C316.313 273.708 316.905 272.924 316.905 271.98C316.841 271.996 316.793 271.996 316.729 271.996C316.169 271.996 315.657 271.644 315.657 270.972C315.657 270.348 316.169 269.948 316.761 269.948C317.529 269.948 317.993 270.604 317.993 271.676C317.993 273.212 317.097 274.412 315.657 275.02ZM320.942 267.276L320.382 266.204C322.862 265.788 325.582 263.788 325.582 261.5V261.196H320.83V260.124H331.694V261.196H326.942V261.5C326.942 263.788 329.678 265.756 332.174 266.156L331.646 267.212C329.454 266.78 327.182 265.372 326.27 263.404C325.358 265.388 323.102 266.812 320.942 267.276ZM326.926 270.236H332.782V271.324H319.758V270.236H325.614V266.764H326.926V270.236ZM341.869 263.244H344.973V258.828H346.301V269.42H344.973V264.316H341.869V263.244ZM335.421 259.932H341.933C341.933 263.628 339.325 266.428 335.261 267.772L334.701 266.716C337.981 265.628 340.237 263.58 340.525 261.004H335.421V259.932ZM338.541 271.772H346.669V272.844H337.229V268.348H338.541V271.772ZM349.612 260.364H353.5C353.5 263.82 352.78 267.18 350.172 269.932L349.148 269.196C351.276 266.988 352.108 264.332 352.252 261.452H349.612V260.364ZM353.98 260.364H357.42C357.42 263.82 356.924 267.772 354.284 270.892L353.228 270.172C355.436 267.628 356.076 264.492 356.188 261.452H353.98V260.364ZM362.604 264.732V265.82H360.476V273.164H359.164V258.812H360.476V264.732H362.604ZM369.034 261.372V263.196C369.034 265.628 370.762 268.108 372.874 269.004L372.138 270.06C370.474 269.292 369.066 267.644 368.378 265.676C367.722 267.772 366.314 269.58 364.682 270.412L363.914 269.356C365.978 268.38 367.722 265.676 367.722 263.196V261.372H364.394V260.284H372.41V261.372H369.034ZM374.346 258.828H375.658V273.164H374.346V258.828ZM116.277 283.3H122.725C122.725 287.46 121.269 291.252 116.229 293.812L115.493 292.772C118.101 291.492 119.685 289.844 120.565 287.94L115.781 288.388L115.541 287.252L120.965 286.9C121.237 286.1 121.365 285.252 121.429 284.372H116.277V283.3ZM125.989 281.828H127.301V296.164H125.989V288.644H122.677V287.572H125.989V281.828ZM142.579 289.028L141.987 290.116C139.811 289.62 137.571 288.084 136.659 285.972C135.747 288.068 133.507 289.604 131.347 290.116L130.755 289.028C133.267 288.532 135.971 286.372 135.971 283.924V282.82H137.347V283.924C137.347 286.372 140.067 288.548 142.579 289.028ZM130.211 293.156H143.219V294.244H130.211V293.156ZM146.898 288.212V291.652C149.49 291.652 151.154 291.556 153.106 291.204L153.25 292.276C151.17 292.644 149.426 292.724 146.69 292.724H145.586V283.108H152.226V284.196H146.898V287.156H151.602V288.212H146.898ZM155.442 281.796H156.754V296.18H155.442V288.308H152.482V287.22H155.442V281.796ZM161.505 284.308V291.46H165.521V284.308H161.505ZM160.225 292.516V283.252H166.801V292.516H160.225ZM173.057 287.54V288.644H170.689V296.164H169.377V281.828H170.689V287.54H173.057ZM184.8 281.812H186.112V296.196H184.8V281.812ZM178.544 282.916C180.672 282.916 182.192 284.868 182.192 287.924C182.192 290.98 180.672 292.932 178.544 292.932C176.416 292.932 174.896 290.98 174.896 287.924C174.896 284.868 176.416 282.916 178.544 282.916ZM178.544 284.1C177.136 284.1 176.144 285.604 176.144 287.924C176.144 290.26 177.136 291.764 178.544 291.764C179.936 291.764 180.928 290.26 180.928 287.924C180.928 285.604 179.936 284.1 178.544 284.1ZM200.862 281.828V290.484H199.55V281.828H200.862ZM197.854 288.772L197.214 289.812C195.582 289.252 194.27 288.084 193.614 286.596C193.006 288.228 191.678 289.54 189.982 290.18L189.294 289.14C191.454 288.388 192.91 286.5 192.91 284.42V284.004H189.63V282.932H197.502V284.004H194.254V284.42C194.254 286.34 195.742 288.084 197.854 288.772ZM196.094 295.188C198.27 295.188 199.598 294.58 199.598 293.524C199.598 292.452 198.27 291.86 196.094 291.86C193.918 291.86 192.574 292.452 192.574 293.524C192.574 294.58 193.918 295.188 196.094 295.188ZM196.094 290.82C199.07 290.82 200.91 291.812 200.91 293.524C200.91 295.236 199.07 296.212 196.094 296.212C193.118 296.212 191.278 295.236 191.278 293.524C191.278 291.812 193.118 290.82 196.094 290.82ZM210.285 283.044C207.933 283.044 206.589 283.588 206.589 284.548C206.589 285.508 207.933 286.052 210.285 286.052C212.637 286.052 213.981 285.508 213.981 284.548C213.981 283.588 212.637 283.044 210.285 283.044ZM210.285 287.028C207.133 287.028 205.245 286.164 205.245 284.548C205.245 282.932 207.133 282.052 210.285 282.052C213.437 282.052 215.325 282.932 215.325 284.548C215.325 286.164 213.437 287.028 210.285 287.028ZM206.685 293.524V294.98H215.549V296.004H205.405V292.564H213.821V291.284H205.357V290.292H215.117V293.524H206.685ZM203.789 288.004H216.781V289.06H203.789V288.004ZM228.582 295.156C230.902 295.156 232.182 294.708 232.182 293.844C232.182 292.996 230.902 292.532 228.582 292.532C226.278 292.532 224.982 292.996 224.982 293.844C224.982 294.708 226.278 295.156 228.582 295.156ZM228.582 291.556C231.702 291.556 233.494 292.356 233.494 293.844C233.494 295.348 231.702 296.148 228.582 296.148C225.462 296.148 223.67 295.348 223.67 293.844C223.67 292.356 225.462 291.556 228.582 291.556ZM229.238 289.412H235.078V290.468H222.086V289.412H227.926V288.004H223.798V282.228H233.478V283.252H225.11V284.58H233.094V285.572H225.11V286.98H233.558V288.004H229.238V289.412ZM240.373 291.748C241.477 291.748 242.277 290.836 242.277 289.556C242.277 288.308 241.477 287.396 240.373 287.396C239.253 287.396 238.469 288.308 238.469 289.556C238.469 290.836 239.253 291.748 240.373 291.748ZM240.373 286.292C242.149 286.292 243.445 287.636 243.445 289.556C243.445 291.508 242.149 292.836 240.373 292.836C238.597 292.836 237.301 291.508 237.301 289.556C237.301 287.636 238.597 286.292 240.373 286.292ZM241.013 282.228V284.26H243.925V285.332H236.805V284.26H239.717V282.228H241.013ZM247.717 281.796H248.981V296.148H247.717V288.932H245.877V295.46H244.645V282.132H245.877V287.86H247.717V281.796ZM256.99 283.204V291.428C259.054 291.428 261.182 291.252 263.502 290.788L263.662 291.876C261.214 292.372 259.022 292.532 256.83 292.532H255.694V283.204H256.99ZM268.462 287.54V288.628H266.158V296.164H264.846V281.812H266.158V287.54H268.462ZM275.74 288.692V284.148H271.708V288.692H275.74ZM277.02 283.092V289.732H270.428V283.092H277.02ZM273.356 291.332V294.772H281.612V295.844H272.044V291.332H273.356ZM280.972 286.18H283.084V287.284H280.972V292.308H279.66V281.796H280.972V286.18ZM289.211 282.868C291.451 282.868 293.051 284.228 293.051 286.244C293.051 288.244 291.451 289.62 289.211 289.62C286.987 289.62 285.371 288.244 285.371 286.244C285.371 284.228 286.987 282.868 289.211 282.868ZM289.211 283.988C287.739 283.988 286.651 284.9 286.651 286.244C286.651 287.572 287.739 288.5 289.211 288.5C290.699 288.5 291.771 287.572 291.771 286.244C291.771 284.9 290.699 283.988 289.211 283.988ZM294.939 281.812H296.251V296.196H294.939V281.812ZM284.811 293.044L284.651 291.94C287.259 291.94 290.859 291.924 293.995 291.444L294.107 292.42C290.875 293.012 287.403 293.044 284.811 293.044ZM315.22 289.028L314.628 290.116C312.452 289.62 310.212 288.084 309.3 285.972C308.388 288.068 306.148 289.604 303.988 290.116L303.396 289.028C305.908 288.532 308.612 286.372 308.612 283.924V282.82H309.988V283.924C309.988 286.372 312.708 288.548 315.22 289.028ZM302.852 293.156H315.86V294.244H302.852V293.156ZM324.307 288.1L324.419 289.172C322.787 289.492 321.411 289.556 319.107 289.556H318.195V282.724H323.731V283.796H319.459V285.556H323.587V286.564H319.459V288.484C321.507 288.484 322.803 288.404 324.307 288.1ZM321.539 292.052V294.916H328.403V292.052H321.539ZM320.259 295.972V291.012H329.683V295.972H320.259ZM328.419 281.812H329.683V290.308H328.419V286.548H326.499V290.116H325.251V282.1H326.499V285.476H328.419V281.812ZM340.545 289.3V284.308H336.977V289.3H340.545ZM335.665 289.3V284.308H333.441V283.252H344.081V284.308H341.857V289.3H344.049V290.372H333.473V289.3H335.665ZM332.289 293.236H345.297V294.324H332.289V293.236ZM357.056 284.324V283.156H348.64V282.228H358.352V285.22H349.968V286.452H358.608V287.396H348.672V284.324H357.056ZM349.888 293.7V295.028H358.848V295.972H348.592V292.788H357.104V291.588H348.56V290.644H358.4V293.7H349.888ZM347.008 288.484H360.016V289.476H347.008V288.484ZM371.209 288.692V284.148H367.177V288.692H371.209ZM372.489 283.092V289.732H365.897V283.092H372.489ZM368.825 291.332V294.772H377.081V295.844H367.513V291.332H368.825ZM376.441 286.18H378.553V287.284H376.441V292.308H375.129V281.796H376.441V286.18ZM391.464 285.588V286.644H381.752V282.292H391.32V283.348H383.064V285.588H391.464ZM382.904 293.492V294.964H391.768V295.988H381.624V292.516H390.04V291.14H381.576V290.116H391.336V293.492H382.904ZM380.024 287.796H393.016V288.868H380.024V287.796ZM398.583 291.764C399.943 291.764 400.903 290.26 400.903 287.924C400.903 285.604 399.943 284.1 398.583 284.1C397.207 284.1 396.247 285.604 396.247 287.924C396.247 290.26 397.207 291.764 398.583 291.764ZM405.255 281.812H406.567V296.196H405.255V288.356H402.135C402.007 291.172 400.583 292.932 398.583 292.932C396.487 292.932 394.999 290.98 394.999 287.924C394.999 284.868 396.487 282.916 398.583 282.916C400.519 282.916 401.927 284.596 402.135 287.284H405.255V281.812ZM415.871 286.468V289.108H423.199V286.468H415.871ZM420.191 293.252H426.047V294.324H413.039V293.252H418.863V290.164H414.575V282.836H415.871V285.396H423.199V282.836H424.479V290.164H420.191V293.252ZM432.014 283.172V285.86C432.014 288.164 433.086 290.596 434.974 291.748L434.222 292.772C432.862 291.94 431.902 290.42 431.39 288.676C430.878 290.58 429.838 292.196 428.414 293.076L427.598 292.1C429.566 290.948 430.75 288.372 430.75 285.908V283.172H432.014ZM435.79 286.964V282.132H437.022V295.46H435.79V288.052H433.422V286.964H435.79ZM438.702 281.812H439.95V296.164H438.702V281.812ZM446.973 289.86V293.236H450.973V289.86C450.365 290.004 449.677 290.084 448.957 290.084C448.253 290.084 447.565 290.004 446.973 289.86ZM448.957 283.748C446.653 283.748 445.005 284.804 445.005 286.404C445.005 288.004 446.653 289.06 448.957 289.06C451.261 289.06 452.925 288.004 452.925 286.404C452.925 284.804 451.261 283.748 448.957 283.748ZM452.285 293.236H455.501V294.324H442.461V293.236H445.661V289.364C444.461 288.74 443.741 287.7 443.741 286.404C443.741 284.164 445.917 282.724 448.957 282.724C452.013 282.724 454.173 284.164 454.173 286.404C454.173 287.7 453.469 288.724 452.285 289.348V293.236Z" fill="#EDEDED"/>
<path d="M136.693 184.528L135.237 187.414C131.077 186.582 128.009 184.268 126.475 181.226C124.941 184.268 121.899 186.608 117.739 187.414L116.283 184.528C121.665 183.618 124.655 179.822 124.655 176.39V174.674H128.321V176.39C128.321 179.9 131.285 183.618 136.693 184.528ZM115.763 191.522H137.447V194.304H115.763V191.522ZM150.445 183.228L150.757 185.984C148.027 186.426 145.713 186.504 142.151 186.504H140.487V174.7H149.899V177.404H143.789V179.224H149.665V181.824H143.789V183.748C146.363 183.722 148.261 183.592 150.445 183.228ZM147.247 191.002V194.252H156.737V191.002H147.247ZM143.867 196.93V188.298H160.091V196.93H143.867ZM156.841 173.296H160.091V187.388H156.841V181.72H154.917V187.18H151.719V173.738H154.917V178.938H156.841V173.296ZM176.832 185.256V178.08H171.944V185.256H176.832ZM168.538 185.256V178.08H165.288V175.35H183.488V178.08H180.238V185.256H183.41V187.986H165.418V185.256H168.538ZM163.598 191.652H185.282V194.434H163.598V191.652ZM202.143 184.086V177.95H197.463V184.086H202.143ZM205.523 175.246V186.79H194.109V175.246H205.523ZM200.245 189.026V194.07H213.115V196.8H196.813V189.026H200.245ZM212.257 180.186H215.429V182.994H212.257V190.742H208.825V173.27H212.257V180.186ZM236.435 178.574V181.278H220.029V173.738H236.253V176.468H223.435V178.574H236.435ZM223.227 192.952V194.382H236.955V197.008H219.821V190.534H232.951V189.182H219.795V186.608H236.331V192.952H223.227ZM217.351 182.552H239.009V185.256H217.351V182.552ZM250.499 178.392V179.718C250.499 183.618 252.423 187.752 256.427 189.416L254.555 192.12C251.773 190.924 249.875 188.584 248.809 185.698C247.743 188.818 245.819 191.444 243.011 192.718L241.061 189.988C245.065 188.194 247.015 183.8 247.015 179.718V178.392H242.023V175.558H255.439V178.392H250.499ZM257.649 173.27H261.081V197.216H257.649V173.27ZM279.788 181.642V177.066H275.108V181.642H279.788ZM283.168 174.388V184.346H271.754V174.388H283.168ZM277.526 192.718V194.278H290.604V196.93H274.12V190.248H286.522V188.818H274.094V186.166H289.902V192.718H277.526ZM289.902 177.872H293.048V180.68H289.902V185.23H286.47V173.27H289.902V177.872ZM313.612 189.078L310.18 188.688C311.09 184.164 311.142 180.836 311.142 178.054H297.18V175.324H314.574V177.612C314.574 180.602 314.574 183.982 313.612 189.078ZM306.072 191.574H316.654V194.33H294.996V191.574H302.64V183.332H306.072V191.574ZM132.351 228.95V219.148H127.957V216.366H132.351V211.27H135.783V228.95H132.351ZM130.063 222.814L128.243 225.466C125.747 224.556 124.031 222.814 123.043 220.604C122.029 223.074 120.183 225.024 117.401 226.038L115.607 223.36C119.559 222.034 121.223 218.706 121.223 215.3V212.726H124.707V215.326C124.707 218.446 126.319 221.488 130.063 222.814ZM123.407 232.07H136.303V234.8H119.975V227.182H123.407V232.07ZM150.445 221.696L150.757 224.426C148.027 224.868 145.713 224.946 142.151 224.946H140.487V212.882H149.899V215.586H143.789V217.562H149.665V220.162H143.789V222.19C146.363 222.164 148.261 222.034 150.445 221.696ZM143.607 229.652V226.922H160.091V235.242H156.659V229.652H143.607ZM156.841 211.27H160.091V225.882H156.841V219.876H154.917V225.726H151.719V211.686H154.917V217.146H156.841V211.27ZM170.514 227.52C172.126 227.52 173.296 226.428 173.296 224.582C173.296 222.788 172.126 221.67 170.514 221.67C168.902 221.67 167.706 222.788 167.706 224.608C167.706 226.428 168.902 227.52 170.514 227.52ZM170.514 218.888C173.972 218.888 176.546 221.254 176.546 224.582C176.546 227.962 173.972 230.328 170.514 230.328C167.03 230.328 164.43 227.962 164.43 224.582C164.43 221.254 167.03 218.888 170.514 218.888ZM172.204 211.686V214.806H177.404V217.536H163.468V214.806H168.772V211.686H172.204ZM185.828 220.63V223.464H182.396V235.216H178.964V211.27H182.396V220.63H185.828ZM195.16 213.35V217.25C195.16 221.124 196.2 225.102 199.45 227.26L197.578 229.912C195.55 228.664 194.276 226.636 193.522 224.218C192.69 226.87 191.286 229.158 189.128 230.458L187.074 227.884C190.584 225.752 191.858 221.462 191.858 217.38V213.35H195.16ZM199.944 219.356V211.66H203.142V234.15H199.944V222.138H196.928V219.356H199.944ZM204.806 211.27H208.056V235.216H204.806V211.27ZM219.624 225.076V229.652H224.902V225.076C224.07 225.232 223.186 225.31 222.25 225.31C221.314 225.31 220.456 225.232 219.624 225.076ZM222.25 215.144C218.922 215.144 216.712 216.496 216.712 218.888C216.712 221.254 218.922 222.632 222.25 222.632C225.578 222.632 227.814 221.254 227.814 218.888C227.814 216.496 225.578 215.144 222.25 215.144ZM228.308 229.652H233.118V232.434H211.434V229.652H216.218V223.802C214.398 222.684 213.306 220.968 213.332 218.888C213.332 214.962 217.102 212.44 222.25 212.44C227.424 212.44 231.194 214.962 231.194 218.888C231.194 220.968 230.102 222.684 228.308 223.802V229.652ZM237.796 226.428L237.25 216.834L237.12 213.22H240.968L240.838 216.834L240.292 226.428H237.796ZM239.044 233.344C237.692 233.344 236.678 232.252 236.678 230.848C236.678 229.418 237.692 228.352 239.044 228.352C240.396 228.352 241.436 229.418 241.436 230.848C241.436 232.252 240.396 233.344 239.044 233.344Z" fill="#FDFDFD"/>
<defs>
<linearGradient id="paint0_linear_523_776" x1="643.856" y1="491.766" x2="789.475" y2="374.909" gradientUnits="userSpaceOnUse">
<stop stop-color="white"/>
<stop offset="1" stop-color="#EEEEEE"/>
</linearGradient>
<linearGradient id="paint1_linear_523_776" x1="153.545" y1="625.514" x2="3.52911" y2="709.419" gradientUnits="userSpaceOnUse">
<stop stop-color="white"/>
<stop offset="1" stop-color="#EEEEEE"/>
</linearGradient>
</defs>
</svg>
