<svg width="1200" height="801" viewBox="0 0 1200 801" fill="none" xmlns="http://www.w3.org/2000/svg">
<path d="M0 0.980469H1200V595.852C1200 650.256 1200 757.061 1200 800.981C1174.11 800.981 1108.15 800.98 1075 800.98H0V0.980469Z" fill="#555E75"/>
<g opacity="0.3">
<path d="M685.094 425.677C685.094 483.235 638.443 529.886 580.885 529.886C523.327 529.886 476.676 483.235 476.676 425.677C476.676 368.119 523.327 321.467 580.885 321.467C638.443 321.467 685.094 368.119 685.094 425.677Z" stroke="#E1E4E5" stroke-width="4" stroke-linecap="round" stroke-linejoin="round"/>
<path d="M654.575 499.364L584.279 429.07C583.203 427.995 582.35 426.719 581.768 425.314C581.186 423.91 580.886 422.404 580.887 420.883V321.467M486.921 378.361H387.508C385.988 378.362 384.482 378.063 383.077 377.481C381.673 376.9 380.396 376.047 379.321 374.972L309.024 304.674M308.932 304.869H209.521C208 304.87 206.495 304.571 205.09 303.989C203.685 303.408 202.408 302.555 201.333 301.48L131.035 231.182M128.721 320.617L103.692 292.117C103.31 291.68 102.846 291.324 102.325 291.067C101.805 290.811 101.239 290.66 100.66 290.623L62.8086 288.166M486.922 473.671H387.509C385.989 473.671 384.483 473.373 383.078 472.791C381.673 472.209 380.396 471.357 379.321 470.281L309.024 399.984M308.932 400.179H209.52C208 400.179 206.494 399.88 205.089 399.299C203.684 398.717 202.408 397.864 201.333 396.789L131.035 326.492M581.695 425.214L671.083 373.572" stroke="#E1E4E5" stroke-width="4" stroke-linecap="round" stroke-linejoin="round"/>
<path d="M205.101 314.578C211.126 314.578 216.01 309.694 216.01 303.669C216.01 297.644 211.126 292.76 205.101 292.76C199.076 292.76 194.191 297.644 194.191 303.669C194.191 309.694 199.076 314.578 205.101 314.578Z" fill="#E1E4E5"/>
<path d="M205.101 409.888C211.126 409.888 216.01 405.004 216.01 398.979C216.01 392.954 211.126 388.069 205.101 388.069C199.076 388.069 194.191 392.954 194.191 398.979C194.191 405.004 199.076 409.888 205.101 409.888Z" fill="#E1E4E5"/>
<path d="M130.46 241.086C136.485 241.086 141.369 236.202 141.369 230.177C141.369 224.152 136.485 219.268 130.46 219.268C124.435 219.268 119.551 224.152 119.551 230.177C119.551 236.202 124.435 241.086 130.46 241.086Z" fill="#E1E4E5"/>
<path d="M130.46 336.396C136.485 336.396 141.369 331.511 141.369 325.486C141.369 319.461 136.485 314.577 130.46 314.577C124.435 314.577 119.551 319.461 119.551 325.486C119.551 331.511 124.435 336.396 130.46 336.396Z" fill="#E1E4E5"/>
<path d="M308.448 314.578C314.473 314.578 319.358 309.694 319.358 303.669C319.358 297.644 314.473 292.76 308.448 292.76C302.423 292.76 297.539 297.644 297.539 303.669C297.539 309.694 302.423 314.578 308.448 314.578Z" fill="#E1E4E5"/>
<path d="M308.448 409.888C314.473 409.888 319.358 405.004 319.358 398.979C319.358 392.954 314.473 388.069 308.448 388.069C302.423 388.069 297.539 392.954 297.539 398.979C297.539 405.004 302.423 409.888 308.448 409.888Z" fill="#E1E4E5"/>
<path d="M383.089 386.922C389.114 386.922 393.998 382.037 393.998 376.012C393.998 369.987 389.114 365.103 383.089 365.103C377.064 365.103 372.18 369.987 372.18 376.012C372.18 382.037 377.064 386.922 383.089 386.922Z" fill="#E1E4E5"/>
<path d="M383.089 482.231C389.114 482.231 393.998 477.347 393.998 471.322C393.998 465.297 389.114 460.413 383.089 460.413C377.064 460.413 372.18 465.297 372.18 471.322C372.18 477.347 377.064 482.231 383.089 482.231Z" fill="#E1E4E5"/>
<path d="M382.515 305.649C411.32 268.559 458.02 268.559 486.824 305.649M219.455 510.049C248.26 472.96 294.959 472.96 323.764 510.049M48.3555 415.887C77.1612 378.798 123.86 378.798 152.665 415.887" stroke="#E1E4E5" stroke-width="4" stroke-linecap="round" stroke-linejoin="round"/>
<path d="M452.731 285.797C461.979 295.045 461.979 310.041 452.731 319.29C443.482 328.54 428.486 328.54 419.236 319.29C409.988 310.041 409.988 295.045 419.236 285.797C428.486 276.547 443.482 276.547 452.731 285.797ZM289.67 490.196C298.92 499.445 298.92 514.441 289.67 523.69C280.421 532.94 265.425 532.94 256.176 523.69C246.927 514.441 246.927 499.445 256.176 490.196C265.425 480.947 280.421 480.947 289.67 490.196ZM118.571 396.034C127.821 405.284 127.821 420.279 118.571 429.528C109.323 438.778 94.3269 438.778 85.0772 429.528C75.8284 420.279 75.8284 405.284 85.0772 396.034C94.3269 386.785 109.323 386.785 118.571 396.034Z" stroke="#E1E4E5" stroke-width="4" stroke-linecap="round" stroke-linejoin="round"/>
<path d="M691.708 307.298C674.816 315.678 652.395 304.903 652.395 304.903C652.395 304.903 657.377 280.547 674.279 272.178C691.172 263.798 713.584 274.562 713.584 274.562C713.584 274.562 708.601 298.918 691.708 307.298Z" fill="url(#paint0_linear_523_612)"/>
<path d="M117.704 507.462C130.81 496.137 129.663 473.316 129.663 473.316C129.663 473.316 107.263 468.871 94.1627 480.206C81.0562 491.532 82.197 514.342 82.197 514.342C82.197 514.342 104.596 518.787 117.704 507.462Z" fill="url(#paint1_linear_523_612)"/>
<path d="M589.264 563.173C589.264 556.276 583.672 550.684 576.775 550.684C569.877 550.684 564.285 556.276 564.285 563.173C564.285 570.071 569.877 575.663 576.775 575.663C583.672 575.663 589.264 570.071 589.264 563.173Z" fill="#687391"/>
<path d="M195.341 471.896C195.341 465.554 190.2 460.413 183.858 460.413C177.516 460.413 172.375 465.554 172.375 471.896C172.375 478.238 177.516 483.379 183.858 483.379C190.2 483.379 195.341 478.238 195.341 471.896Z" fill="#687391"/>
<path d="M338.398 190.559C327.883 190.559 319.359 199.083 319.359 209.598C319.359 220.114 327.883 228.638 338.398 228.638C348.913 228.638 357.438 220.114 357.438 209.598C357.438 199.083 348.913 190.559 338.398 190.559Z" fill="#687391"/>
<path d="M572.974 273.232C564.212 273.232 557.108 266.128 557.108 257.366C557.108 248.604 564.212 241.5 572.974 241.5C581.737 241.5 588.84 248.604 588.84 257.366C588.84 266.128 581.737 273.232 572.974 273.232Z" fill="#687391"/>
<path d="M273.94 365.98C269.851 365.98 266.537 362.665 266.537 358.576C266.537 354.488 269.851 351.173 273.94 351.173C278.029 351.173 281.344 354.488 281.344 358.576C281.344 362.665 278.029 365.98 273.94 365.98Z" fill="#E1E4E5"/>
<path d="M658.15 553.665C654.432 549.947 654.432 543.92 658.15 540.202C661.867 536.484 667.895 536.484 671.612 540.202C675.33 543.92 675.33 549.947 671.612 553.665C667.895 557.382 661.867 557.382 658.15 553.665Z" fill="#E1E4E5"/>
<path d="M148.09 366.463C144.89 366.463 142.296 363.869 142.296 360.669C142.296 357.47 144.89 354.876 148.09 354.876C151.289 354.876 153.883 357.47 153.883 360.669C153.883 363.869 151.289 366.463 148.09 366.463Z" fill="#E1E4E5"/>
<path d="M447.648 243.884C442.753 243.884 438.785 239.916 438.785 235.021C438.785 230.126 442.753 226.157 447.648 226.157C452.543 226.157 456.512 230.126 456.512 235.021C456.512 239.916 452.543 243.884 447.648 243.884Z" fill="#E1E4E5"/>
<path d="M272.432 227.201C273.266 230.314 271.419 233.514 268.306 234.348C265.193 235.182 261.993 233.335 261.159 230.222C260.325 227.109 262.172 223.909 265.285 223.075C268.398 222.241 271.598 224.088 272.432 227.201Z" fill="#E1E4E5"/>
<path d="M248.735 452.375C244.613 452.375 241.272 449.033 241.272 444.911C241.272 440.789 244.613 437.448 248.735 437.448C252.858 437.448 256.199 440.789 256.199 444.911C256.199 449.033 252.858 452.375 248.735 452.375Z" fill="#E1E4E5"/>
<path d="M467.012 550.116C462.836 545.941 462.159 539.848 465.5 536.508C468.84 533.168 474.933 533.844 479.108 538.02C483.283 542.195 483.96 548.288 480.62 551.628C477.279 554.968 471.187 554.291 467.012 550.116Z" fill="#E1E4E5"/>
<path d="M521.925 185.185C523.679 191.729 519.795 198.456 513.251 200.209C506.706 201.963 499.979 198.079 498.226 191.535C496.472 184.99 500.356 178.264 506.901 176.51C513.445 174.756 520.172 178.64 521.925 185.185Z" fill="#E1E4E5"/>
<path d="M652.53 424.815H652.701C653.71 439.12 664.348 439.34 664.348 439.34C664.348 439.34 652.617 439.569 652.617 456.097C652.617 439.569 640.887 439.34 640.887 439.34C640.887 439.34 651.521 439.12 652.53 424.815ZM195.488 214.674H195.64C196.549 227.757 206.124 227.958 206.124 227.958C206.124 227.958 195.566 228.168 195.566 243.284C195.566 228.168 185.008 227.958 185.008 227.958C185.008 227.958 194.579 227.757 195.488 214.674Z" fill="#E1E4E5"/>
<path fill-rule="evenodd" clip-rule="evenodd" d="M102.69 571.065H107.499C108.662 571.065 109.599 572.011 109.599 573.164V577.974C109.598 578.531 109.377 579.065 108.983 579.459C108.589 579.852 108.056 580.074 107.499 580.074H102.69C102.134 580.072 101.601 579.85 101.207 579.457C100.814 579.064 100.592 578.531 100.59 577.974V573.164C100.589 572.888 100.643 572.615 100.749 572.36C100.854 572.105 101.009 571.874 101.204 571.679C101.399 571.484 101.631 571.329 101.886 571.224C102.141 571.118 102.414 571.065 102.69 571.065ZM119.365 571.065H124.174C124.73 571.067 125.263 571.289 125.657 571.682C126.05 572.075 126.272 572.608 126.274 573.164V577.974C126.274 578.531 126.052 579.065 125.659 579.459C125.265 579.852 124.731 580.074 124.174 580.074H119.365C118.809 580.072 118.276 579.85 117.883 579.457C117.489 579.064 117.267 578.531 117.265 577.974V573.164C117.267 572.608 117.489 572.075 117.883 571.682C118.276 571.289 118.809 571.067 119.365 571.065ZM136.052 571.065H140.862C141.418 571.067 141.95 571.289 142.344 571.682C142.737 572.076 142.958 572.608 142.961 573.164V577.974C142.96 578.531 142.739 579.065 142.345 579.458C141.952 579.852 141.418 580.073 140.862 580.074H136.052C135.496 580.072 134.963 579.85 134.57 579.456C134.177 579.063 133.955 578.53 133.953 577.974V573.164C133.952 572.888 134.006 572.615 134.111 572.36C134.216 572.105 134.371 571.874 134.566 571.679C134.761 571.484 134.993 571.329 135.248 571.224C135.503 571.119 135.776 571.065 136.052 571.065ZM152.727 571.065H157.537C158.093 571.067 158.626 571.289 159.019 571.682C159.412 572.076 159.634 572.608 159.636 573.164V577.974C159.635 578.531 159.414 579.065 159.021 579.458C158.627 579.852 158.094 580.073 157.537 580.074H152.727C152.169 580.074 151.634 579.853 151.239 579.459C150.844 579.066 150.621 578.532 150.618 577.974V573.164C150.624 572.608 150.849 572.076 151.243 571.683C151.638 571.291 152.17 571.069 152.727 571.065ZM169.404 571.065H174.214C175.377 571.065 176.323 572.011 176.323 573.164V577.974C176.323 578.251 176.268 578.524 176.162 578.779C176.055 579.035 175.9 579.266 175.704 579.461C175.508 579.656 175.276 579.811 175.02 579.916C174.765 580.021 174.491 580.075 174.214 580.074H169.404C168.848 580.072 168.316 579.85 167.923 579.456C167.529 579.063 167.308 578.53 167.305 577.974V573.164C167.308 572.608 167.529 572.076 167.923 571.682C168.316 571.289 168.848 571.067 169.404 571.065ZM119.977 589.25H124.786C125.342 589.252 125.875 589.473 126.269 589.867C126.662 590.26 126.884 590.793 126.886 591.349V596.169C126.884 596.725 126.662 597.258 126.269 597.651C125.875 598.044 125.342 598.266 124.786 598.268H119.977C119.421 598.267 118.887 598.046 118.493 597.653C118.099 597.259 117.878 596.725 117.877 596.169V591.359C117.876 591.082 117.929 590.808 118.034 590.552C118.139 590.296 118.293 590.063 118.488 589.867C118.683 589.671 118.916 589.516 119.171 589.41C119.427 589.304 119.701 589.249 119.977 589.25ZM136.653 589.25H141.462C142.018 589.252 142.551 589.473 142.944 589.867C143.338 590.26 143.559 590.793 143.562 591.349V596.169C143.559 596.725 143.338 597.258 142.944 597.651C142.551 598.044 142.018 598.266 141.462 598.268H136.653C136.096 598.266 135.564 598.044 135.17 597.651C134.777 597.258 134.555 596.725 134.553 596.169V591.359C134.551 591.082 134.604 590.808 134.709 590.552C134.814 590.296 134.968 590.063 135.164 589.867C135.359 589.671 135.591 589.516 135.846 589.41C136.102 589.304 136.376 589.249 136.653 589.25ZM153.329 589.25H158.139C159.302 589.25 160.248 590.196 160.248 591.349V596.169C160.245 596.726 160.022 597.26 159.627 597.654C159.232 598.047 158.697 598.268 158.139 598.268H153.329C152.773 598.266 152.24 598.044 151.847 597.651C151.454 597.257 151.232 596.725 151.23 596.169V591.359C151.23 590.196 152.176 589.25 153.329 589.25ZM136.052 551.53H140.862C141.418 551.533 141.95 551.754 142.344 552.148C142.737 552.541 142.958 553.073 142.961 553.629V558.439C142.96 558.996 142.739 559.53 142.345 559.923C141.952 560.317 141.418 560.539 140.862 560.539L136.052 560.538C135.496 560.536 134.963 560.314 134.57 559.921C134.177 559.528 133.955 558.995 133.953 558.439V553.629C133.952 553.354 134.006 553.08 134.111 552.825C134.216 552.57 134.371 552.339 134.566 552.144C134.761 551.949 134.993 551.794 135.248 551.689C135.503 551.584 135.776 551.53 136.052 551.53ZM152.727 551.53H157.537C158.093 551.533 158.626 551.754 159.019 552.148C159.412 552.541 159.634 553.073 159.636 553.629V558.439C159.635 558.996 159.414 559.53 159.021 559.923C158.627 560.317 158.094 560.539 157.537 560.539L152.727 560.538C152.169 560.538 151.635 560.318 151.239 559.924C150.844 559.531 150.621 558.997 150.618 558.439V553.629C150.624 553.073 150.849 552.541 151.243 552.148C151.638 551.756 152.17 551.534 152.727 551.53ZM357.535 543.975H362.345C363.508 543.975 364.445 544.921 364.445 546.074V550.884C364.445 551.441 364.223 551.975 363.83 552.369C363.436 552.762 362.902 552.984 362.345 552.984H357.535C356.979 552.982 356.447 552.76 356.054 552.366C355.66 551.973 355.439 551.44 355.436 550.884V546.074C355.436 545.798 355.49 545.525 355.595 545.27C355.7 545.015 355.855 544.784 356.05 544.589C356.245 544.394 356.476 544.239 356.731 544.134C356.986 544.029 357.26 543.975 357.535 543.975ZM374.212 543.975H379.021C379.577 543.977 380.11 544.199 380.503 544.592C380.897 544.985 381.119 545.518 381.121 546.074V550.884C381.12 551.441 380.899 551.975 380.505 552.369C380.111 552.762 379.578 552.984 379.021 552.984H374.212C373.656 552.982 373.123 552.76 372.729 552.367C372.336 551.973 372.114 551.441 372.112 550.884V546.074C372.114 545.518 372.336 544.985 372.729 544.592C373.123 544.199 373.656 543.977 374.212 543.975ZM390.898 543.975H395.708C396.264 543.977 396.797 544.199 397.19 544.592C397.583 544.986 397.805 545.518 397.807 546.074V550.884C397.807 551.441 397.585 551.975 397.192 552.368C396.798 552.762 396.265 552.983 395.708 552.984H390.898C390.342 552.982 389.81 552.76 389.416 552.366C389.023 551.973 388.801 551.44 388.799 550.884V546.074C388.799 545.798 388.853 545.525 388.958 545.27C389.063 545.015 389.218 544.784 389.413 544.589C389.608 544.394 389.839 544.239 390.094 544.134C390.349 544.029 390.622 543.975 390.898 543.975ZM407.574 543.975H412.384C412.94 543.977 413.472 544.199 413.866 544.592C414.259 544.986 414.481 545.518 414.483 546.074V550.884C414.482 551.441 414.261 551.975 413.867 552.368C413.474 552.762 412.94 552.983 412.384 552.984H407.574C407.016 552.984 406.481 552.763 406.086 552.369C405.691 551.976 405.467 551.442 405.465 550.884V546.074C405.471 545.518 405.695 544.986 406.09 544.593C406.484 544.201 407.017 543.979 407.574 543.975ZM424.251 543.975H429.061C430.224 543.975 431.17 544.921 431.17 546.074V550.884C431.17 551.161 431.115 551.434 431.008 551.689C430.902 551.945 430.746 552.176 430.551 552.371C430.355 552.566 430.122 552.721 429.867 552.826C429.611 552.931 429.337 552.985 429.061 552.984H424.251C423.695 552.982 423.162 552.76 422.769 552.366C422.376 551.973 422.154 551.44 422.152 550.884V546.074C422.154 545.518 422.376 544.986 422.769 544.592C423.162 544.199 423.695 543.977 424.251 543.975ZM374.824 562.16H379.633C380.189 562.162 380.722 562.383 381.115 562.777C381.509 563.17 381.731 563.703 381.733 564.259V569.079C381.731 569.635 381.509 570.168 381.115 570.561C380.722 570.954 380.189 571.176 379.633 571.178H374.824C374.267 571.177 373.733 570.956 373.34 570.563C372.946 570.169 372.724 569.635 372.724 569.079V564.269C372.722 563.992 372.775 563.718 372.88 563.462C372.985 563.206 373.14 562.973 373.335 562.777C373.53 562.581 373.762 562.426 374.018 562.32C374.273 562.214 374.547 562.159 374.824 562.16ZM391.499 562.16H396.308C396.864 562.162 397.397 562.383 397.791 562.777C398.184 563.17 398.406 563.703 398.408 564.259V569.079C398.406 569.635 398.184 570.168 397.791 570.561C397.397 570.954 396.864 571.176 396.308 571.178H391.499C390.943 571.176 390.41 570.954 390.017 570.561C389.623 570.168 389.401 569.635 389.399 569.079V564.269C389.398 563.992 389.451 563.718 389.556 563.462C389.661 563.206 389.815 562.973 390.01 562.777C390.205 562.581 390.438 562.426 390.693 562.32C390.949 562.214 391.223 562.159 391.499 562.16ZM408.176 562.16H412.986C414.149 562.16 415.095 563.106 415.095 564.259V569.079C415.092 569.636 414.869 570.17 414.473 570.564C414.078 570.957 413.543 571.178 412.986 571.178H408.176C407.62 571.176 407.087 570.954 406.694 570.561C406.301 570.167 406.079 569.635 406.077 569.079V564.269C406.077 563.106 407.023 562.16 408.176 562.16ZM390.898 524.44H395.708C396.264 524.443 396.797 524.664 397.19 525.058C397.583 525.451 397.805 525.983 397.807 526.539V531.349C397.807 531.906 397.585 532.44 397.192 532.833C396.798 533.227 396.265 533.449 395.708 533.449L390.898 533.448C390.342 533.446 389.81 533.224 389.416 532.831C389.023 532.438 388.801 531.905 388.799 531.349V526.539C388.799 526.264 388.853 525.99 388.958 525.735C389.063 525.48 389.218 525.249 389.413 525.054C389.608 524.859 389.839 524.704 390.094 524.599C390.349 524.494 390.622 524.44 390.898 524.44ZM407.574 524.44H412.384C412.94 524.443 413.472 524.664 413.866 525.058C414.259 525.451 414.481 525.983 414.483 526.539V531.349C414.482 531.906 414.261 532.44 413.867 532.833C413.474 533.227 412.94 533.449 412.384 533.449L407.574 533.448C407.016 533.448 406.481 533.228 406.086 532.834C405.691 532.441 405.467 531.907 405.465 531.349V526.539C405.471 525.983 405.695 525.451 406.09 525.058C406.484 524.666 407.017 524.444 407.574 524.44Z" fill="#E1E4E5"/>
</g>
<path d="M521.755 660.833L512.692 660.832L508.379 625.87L521.757 625.871L521.755 660.833Z" fill="#FFB6B6"/>
<path d="M522.077 670.289L494.203 670.288V669.935C494.204 663.944 499.061 659.087 505.052 659.086L510.144 655.224L519.644 659.087L522.077 659.087L522.077 670.289Z" fill="#2F2E41"/>
<path d="M590.819 613.125L586.527 621.108L553.691 608.35L560.027 596.567L590.819 613.125Z" fill="#FFB6B6"/>
<path d="M599.302 617.321L586.102 641.871L585.792 641.704C580.514 638.866 578.537 632.288 581.373 627.011L580.383 620.697L588.284 614.159L589.436 612.016L599.302 617.321Z" fill="#2F2E41"/>
<path d="M504.621 500.725L496.621 564.725L500.621 586.182L572.621 617.725L576.621 604.725C558.217 593.463 538.543 576.419 526.147 575.167C526.147 575.167 553.121 513.225 552.121 508.225C551.121 503.225 504.621 500.725 504.621 500.725Z" fill="#2F2E41"/>
<path d="M503.244 564.54L499.059 591.568L509.622 646.725H523.622C528.651 628.192 528.911 603.833 524.122 583.225L503.244 564.54Z" fill="#2F2E41"/>
<path d="M512.236 422.53L518.69 411.284L525.619 405.725L538.619 403.725L542.231 406.502C555.229 426.368 560.076 450.477 555.766 473.822L552.217 493.045L555.271 507.548C556.231 512.108 553.313 516.584 548.752 517.544C548.192 517.662 547.621 517.723 547.048 517.725L514.793 517.858C506.745 517.891 500.193 511.393 500.16 503.345C500.157 502.594 500.212 501.844 500.325 501.101L512.236 422.53Z" fill="#E6E6E6"/>
<path d="M537.557 461.255L524.666 459.409C520.306 466.699 518.757 486.104 518.757 486.104L506.141 516.089C503.514 517.873 502.831 521.449 504.615 524.076C506.399 526.702 509.975 527.386 512.601 525.602C514.306 524.444 515.261 522.462 515.104 520.408L535.818 485.505L537.557 461.255Z" fill="#FFB8B8"/>
<path d="M535.505 425.467C543.004 426.628 548.141 433.648 546.98 441.147C546.85 441.987 546.642 442.814 546.359 443.616L543.623 451.37C543.623 451.37 542.134 474.716 536.455 481.306L519.029 479.729C519.029 479.729 522.215 467.95 519.769 462.251C518.271 458.761 518.354 446.707 519.83 436.9C520.992 429.421 527.997 424.3 535.476 425.462L535.505 425.467Z" fill="#E6E6E6"/>
<path d="M510.542 438.81L507.481 426.152C499.094 424.804 480.497 430.554 480.497 430.554L447.971 429.947C445.34 428.168 441.766 428.858 439.987 431.488C438.209 434.119 438.899 437.693 441.529 439.472C443.236 440.626 445.43 440.779 447.281 439.872L487.374 446.18L510.542 438.81Z" fill="#FFB8B8"/>
<path d="M543.021 423.644C544.72 431.039 540.103 438.412 532.708 440.112C531.879 440.303 531.035 440.416 530.185 440.45L521.969 440.782C521.969 440.782 499.733 448.049 491.507 445.216L486.516 428.446C486.516 428.446 498.637 427.041 503.024 422.657C505.71 419.973 516.938 415.584 526.593 413.321C533.97 411.629 541.322 416.238 543.014 423.615L543.021 423.644Z" fill="#E6E6E6"/>
<path d="M545.586 386.237C547.098 376.918 540.769 368.138 531.451 366.626C522.132 365.114 513.352 371.442 511.84 380.761C510.327 390.079 516.656 398.859 525.974 400.372C535.293 401.884 544.073 395.555 545.586 386.237Z" fill="#FFB8B8"/>
<path d="M529.005 400.107C531.506 400.146 534.006 399.971 536.477 399.584C538.927 399.086 544.407 395.07 545.934 392.654C547.048 390.581 547.814 388.339 548.204 386.019C549.318 380.571 548.07 374.906 544.77 370.43C544.143 369.505 543.277 368.766 542.264 368.292C542.175 368.257 542.082 368.226 541.989 368.199C540.513 367.811 539.187 366.99 538.181 365.843C537.986 365.611 537.775 365.393 537.548 365.191C536.411 364.232 535.063 363.555 533.615 363.216C531.276 362.59 527.892 363.212 523.557 365.064C521.497 365.788 519.264 365.857 517.164 365.261C516.954 365.221 516.739 365.294 516.599 365.454C515.819 366.186 514.791 366.596 513.722 366.601C513.067 366.63 512.38 367.537 511.549 368.72C511.361 368.988 511.141 369.301 510.982 369.492L510.961 369.126L510.59 369.534C508.684 371.635 508.842 374.884 510.943 376.79C511.508 377.302 512.179 377.682 512.909 377.903C513.568 378.078 514.243 378.186 514.924 378.224C515.336 378.261 515.763 378.3 516.172 378.37C518.84 378.917 521.026 380.825 521.926 383.396C522.304 384.449 523.464 384.996 524.517 384.619C524.682 384.56 524.839 384.479 524.983 384.379C525.848 383.706 526.987 383.499 528.033 383.824C528.478 384.072 528.825 384.465 529.014 384.938C529.245 385.465 529.627 385.911 530.113 386.219C531.773 387.075 531.887 390.867 531.291 394.027C530.716 397.074 529.58 399.278 528.528 399.387C527.719 399.471 527.626 399.528 527.567 399.672L527.515 399.8L527.606 399.92C528.053 400.082 528.53 400.146 529.005 400.107Z" fill="#2F2E41"/>
<path d="M404.917 167.98H254.771C237.744 167.98 223.941 181.783 223.941 198.81V593.346C223.941 610.373 237.744 624.176 254.771 624.176H404.917C421.944 624.176 435.746 610.373 435.746 593.346V198.81C435.746 181.783 421.944 167.98 404.917 167.98Z" fill="white"/>
<path d="M405.44 625.636H255.294C237.892 625.636 223.734 611.478 223.734 594.076V199.54C223.734 182.138 237.892 167.98 255.294 167.98H405.44C422.842 167.98 437 182.138 437 199.54V594.076C437 611.478 422.842 625.636 405.44 625.636ZM255.294 169.441C238.697 169.441 225.194 182.943 225.194 199.54V594.076C225.194 610.673 238.697 624.175 255.294 624.175H405.44C422.037 624.175 435.54 610.673 435.54 594.076V199.54C435.54 182.943 422.037 169.441 405.44 169.441H255.294Z" fill="#3F3D56"/>
<path d="M212.058 237.018C210.74 237.018 209.668 238.089 209.668 239.408V258.528C209.668 259.847 210.74 260.918 212.058 260.918C213.376 260.918 214.448 259.847 214.448 258.528V239.408C214.448 238.089 213.376 237.018 212.058 237.018Z" fill="#3F3D56"/>
<path d="M416.317 231.831H355.967C353.407 231.831 351.324 229.748 351.324 227.188C351.324 224.628 353.407 222.546 355.967 222.546H416.317C418.877 222.546 420.96 224.628 420.96 227.188C420.96 229.748 418.877 231.831 416.317 231.831Z" fill="#E6E6E6"/>
<path d="M359.698 268.338H301.034C299.555 268.338 298.352 267.134 298.352 265.655C298.352 264.176 299.555 262.974 301.034 262.974H359.698C361.177 262.974 362.379 264.176 362.379 265.655C362.379 267.134 361.177 268.338 359.698 268.338Z" fill="#F2C6BD"/>
<path d="M214.379 281.575C240.545 281.575 261.757 260.81 261.757 235.195C261.757 209.58 240.545 188.814 214.379 188.814C188.212 188.814 167 209.58 167 235.195C167 260.81 188.212 281.575 214.379 281.575Z" fill="#F2C6BD"/>
<path d="M230.459 211.8C224.152 223.286 217.844 234.771 211.536 246.257C207.516 239.154 203.518 232.038 199.488 224.941C198.097 222.49 194.311 224.695 195.706 227.152C200.378 235.379 205.001 243.634 209.672 251.862C210.471 253.268 212.664 253.301 213.455 251.862C220.384 239.245 227.313 226.628 234.241 214.011C235.599 211.539 231.818 209.326 230.459 211.8Z" fill="white"/>
<path d="M254.93 282.696C254.93 283.178 255.317 283.565 255.798 283.565H404.938C405.42 283.565 405.807 283.178 405.807 282.696C405.807 282.214 405.42 281.827 404.938 281.827H255.798C255.317 281.827 254.93 282.214 254.93 282.696Z" fill="#3F3D56"/>
<path d="M390.637 350.976H301.135C299.657 350.976 298.453 349.773 298.453 348.294C298.453 346.815 299.657 345.612 301.135 345.612H390.637C392.116 345.612 393.318 346.815 393.318 348.294C393.318 349.773 392.116 350.976 390.637 350.976Z" fill="#F2C6BD"/>
<path d="M390.637 389.668H301.135C299.657 389.668 298.453 388.465 298.453 386.986C298.453 385.507 299.657 384.304 301.135 384.304H390.637C392.116 384.304 393.318 385.507 393.318 386.986C393.318 388.465 392.116 389.668 390.637 389.668Z" fill="#F2C6BD"/>
<path d="M390.637 428.36H301.135C299.657 428.36 298.453 427.157 298.453 425.678C298.453 424.199 299.657 422.996 301.135 422.996H390.637C392.116 422.996 393.318 424.199 393.318 425.678C393.318 427.157 392.116 428.36 390.637 428.36Z" fill="#6C63FF"/>
<path d="M273.988 354.533C277.617 354.533 280.559 351.592 280.559 347.963C280.559 344.334 277.617 341.393 273.988 341.393C270.36 341.393 267.418 344.334 267.418 347.963C267.418 351.592 270.36 354.533 273.988 354.533Z" fill="#F2C6BD"/>
<path d="M273.258 358.913V357.453C278.692 357.453 283.113 353.032 283.113 347.598C283.113 342.164 278.692 337.742 273.258 337.742V336.282C279.497 336.282 284.573 341.358 284.573 347.598C284.573 353.837 279.497 358.913 273.258 358.913Z" fill="#3F3D56"/>
<path d="M273.988 393.225C277.617 393.225 280.559 390.284 280.559 386.655C280.559 383.026 277.617 380.084 273.988 380.084C270.36 380.084 267.418 383.026 267.418 386.655C267.418 390.284 270.36 393.225 273.988 393.225Z" fill="#F2C6BD"/>
<path d="M273.258 397.605V396.145C278.692 396.145 283.113 391.724 283.113 386.29C283.113 380.855 278.692 376.434 273.258 376.434V374.974C279.497 374.974 284.573 380.05 284.573 386.29C284.573 392.529 279.497 397.605 273.258 397.605Z" fill="#3F3D56"/>
<path d="M273.988 431.917C277.617 431.917 280.559 428.976 280.559 425.347C280.559 421.718 277.617 418.777 273.988 418.777C270.36 418.777 267.418 421.718 267.418 425.347C267.418 428.976 270.36 431.917 273.988 431.917Z" fill="#6C63FF"/>
<path d="M273.258 436.297V434.837C278.692 434.837 283.113 430.416 283.113 424.982C283.113 419.547 278.692 415.126 273.258 415.126V413.666C279.497 413.666 284.573 418.742 284.573 424.982C284.573 431.221 279.497 436.297 273.258 436.297Z" fill="#3F3D56"/>
<path d="M417.432 458.155H261.407C259.36 458.153 257.702 456.495 257.699 454.448V410.387C257.702 408.341 259.36 406.682 261.407 406.68H417.432C419.479 406.682 421.137 408.341 421.14 410.387V454.448C421.137 456.495 419.479 458.153 417.432 458.155Z" fill="white"/>
<path d="M417.433 458.855H261.407C258.974 458.852 257.003 456.881 257 454.448V410.387C257.003 407.955 258.974 405.983 261.407 405.98H417.433C419.866 405.983 421.837 407.955 421.84 410.387V454.448C421.837 456.881 419.866 458.852 417.433 458.855ZM261.407 407.38C259.747 407.382 258.402 408.727 258.4 410.387V454.448C258.402 456.108 259.747 457.454 261.407 457.456H417.433C419.093 457.454 420.438 456.108 420.44 454.448V410.387C420.438 408.727 419.093 407.382 417.433 407.38L261.407 407.38Z" fill="#CCCCCC"/>
<path d="M275.629 427.564C278.952 427.564 281.645 424.871 281.645 421.549C281.645 418.226 278.952 415.533 275.629 415.533C272.307 415.533 269.613 418.226 269.613 421.549C269.613 424.871 272.307 427.564 275.629 427.564Z" fill="#F2C6BD"/>
<path d="M407.438 436.708H271.403C270.414 436.71 269.611 435.909 269.609 434.919C269.608 433.93 270.409 433.127 271.398 433.125H407.438C408.428 433.124 409.231 433.925 409.232 434.914C409.233 435.904 408.433 436.707 407.443 436.708H407.438Z" fill="#F2C6BD"/>
<path d="M392.811 443.787H271.405C270.415 443.787 269.613 442.985 269.613 441.996C269.613 441.006 270.415 440.204 271.405 440.204H392.811C393.8 440.204 394.602 441.006 394.602 441.996C394.602 442.985 393.8 443.787 392.811 443.787Z" fill="#F2C6BD"/>
<path opacity="0.3" d="M1200 671.48C1200.01 671.756 1198.6 671.98 1196.85 671.98H3.16858C1.41857 671.98 0 671.757 0 671.48C0 671.204 1.4186 670.98 3.16858 670.98H1196.83C1198.58 670.98 1199.99 671.202 1200 671.477V671.48Z" fill="#CCCCCC"/>
<path d="M1070.88 303.419L1070.8 302.993C1068.18 288.505 1072.06 273.594 1081.41 262.222C1084.03 259.092 1087.03 256.303 1090.34 253.922L1090.66 253.694L1090.8 254.058C1092.44 258.404 1094.53 262.757 1095.47 264.683L1096.11 250.301L1096.48 250.108C1099.9 248.274 1104.09 248.706 1107.07 251.201C1110.15 253.674 1111.41 257.772 1110.26 261.55C1109.77 263.24 1109.3 264.993 1108.84 266.688C1107.28 272.513 1105.67 278.536 1102.54 283.608C1097.67 291.336 1089.57 296.453 1080.5 297.533L1070.88 303.419Z" fill="#F2F2F2"/>
<path d="M759.142 448.755L758.717 447.667C761.556 447.412 763.902 446.256 764.038 444.59H759.329V443.485H764.106V441.938H765.5V443.485H770.277V444.59H765.551C765.687 446.256 768.016 447.412 770.889 447.667L770.464 448.755C767.948 448.483 765.721 447.582 764.803 446.086C763.868 447.582 761.658 448.483 759.142 448.755ZM764.786 456.167C767.2 456.167 768.594 455.64 768.594 454.688C768.594 453.736 767.2 453.192 764.786 453.192C762.372 453.192 760.978 453.736 760.978 454.688C760.978 455.64 762.372 456.167 764.786 456.167ZM764.786 452.155C768.067 452.155 770.005 453.039 770.005 454.688C770.005 456.337 768.067 457.221 764.786 457.221C761.505 457.221 759.567 456.337 759.567 454.688C759.567 453.039 761.505 452.155 764.786 452.155ZM765.5 449.894H771.688V451.016H757.901V449.894H764.106V448.007H765.5V449.894ZM781.421 449.401C780.639 449.401 779.636 449.86 778.871 450.999C779.058 453.583 779.993 454.994 781.557 454.994C782.747 454.994 783.682 453.855 783.682 452.155C783.682 450.472 782.934 449.401 781.421 449.401ZM781.557 456.201C779.16 456.201 777.392 454.144 777.392 450.03C777.392 445.151 779.585 443.281 781.999 443.281C783.291 443.281 784.226 443.825 784.906 444.556L784.056 445.525C783.563 444.93 782.815 444.573 782.05 444.573C780.35 444.573 778.905 445.882 778.837 449.758C779.602 448.823 780.69 448.245 781.676 448.245C783.784 448.245 785.127 449.554 785.127 452.155C785.127 454.569 783.495 456.201 781.557 456.201ZM787.349 443.961H793.299C793.299 447.888 791.922 451.526 787.587 453.974L786.771 452.971C790.273 451.016 791.718 448.262 791.922 445.1H787.349V443.961ZM798.365 441.989H799.708V457.238H798.365V449.265H796.291V456.473H794.982V442.397H796.291V448.126H798.365V441.989ZM807.357 443.111C809.737 443.111 811.437 444.556 811.437 446.698C811.437 448.823 809.737 450.285 807.357 450.285C804.994 450.285 803.277 448.823 803.277 446.698C803.277 444.556 804.994 443.111 807.357 443.111ZM807.357 444.301C805.793 444.301 804.637 445.27 804.637 446.698C804.637 448.109 805.793 449.095 807.357 449.095C808.938 449.095 810.077 448.109 810.077 446.698C810.077 445.27 808.938 444.301 807.357 444.301ZM813.443 441.989H814.837V457.272H813.443V441.989ZM802.682 453.923L802.512 452.75C805.283 452.75 809.108 452.733 812.44 452.223L812.559 453.26C809.125 453.889 805.436 453.923 802.682 453.923ZM830.435 451.016V446.953H828.412V445.831H830.435V442.244H831.761V451.016H830.435ZM829.007 448.721L829.126 449.843C827.392 450.183 825.947 450.251 823.516 450.251H822.547V442.975H828.31V444.097H823.89V445.984H827.715V447.072H823.89V449.129C826.049 449.129 827.426 449.044 829.007 448.721ZM826.066 453.005V455.912H833.359V453.005H826.066ZM824.706 457.034V451.9H834.719V457.034H824.706ZM833.376 441.989H834.719V451.169H833.376V441.989ZM846.261 446.443V443.536H842.47V446.443H846.261ZM841.076 446.443V443.536H838.764V442.465H849.95V443.536H847.655V446.443H849.899V447.514H838.815V446.443H841.076ZM840.549 454.586V456.014H849.967V457.068H839.189V453.583H848.131V452.274H839.138V451.237H849.508V454.586H840.549ZM837.472 448.789H851.276V449.894H837.472V448.789ZM865.623 441.989V452.308H864.229V441.989H865.623ZM853.927 446.205H859.435V444.097H853.876V442.958H860.812V447.276H855.287V449.503C858.092 449.503 860.064 449.418 862.41 449.01L862.546 450.132C860.115 450.557 858.092 450.642 855.151 450.642H853.927V446.205ZM861.407 451.543V451.985C861.407 454.11 863.787 455.691 866.524 456.116L865.997 457.187C863.685 456.779 861.611 455.64 860.693 453.906C859.792 455.657 857.684 456.779 855.389 457.187L854.845 456.116C857.565 455.691 859.979 454.127 859.979 451.985V451.543H861.407ZM876.722 450.54L875.328 450.404C875.753 447.871 875.787 446.018 875.787 444.794H869.446V443.655H877.147V444.488C877.147 445.712 877.147 447.701 876.722 450.54ZM873.22 448.007V452.665C874.886 452.597 876.586 452.495 878.133 452.308L878.218 453.328C875.056 453.838 871.469 453.906 868.766 453.906L868.613 452.75C869.582 452.75 870.704 452.733 871.843 452.699V448.007H873.22ZM882.893 448.364V449.537H880.462V457.238H879.068V441.989H880.462V448.364H882.893ZM901.348 449.656L900.719 450.812C898.407 450.285 896.027 448.653 895.058 446.409C894.089 448.636 891.709 450.268 889.414 450.812L888.785 449.656C891.454 449.129 894.327 446.834 894.327 444.233V443.06H895.789V444.233C895.789 446.834 898.679 449.146 901.348 449.656ZM888.207 454.042H902.028V455.198H888.207V454.042ZM911.002 448.67L911.121 449.809C909.387 450.149 907.925 450.217 905.477 450.217H904.508V442.958H910.39V444.097H905.851V445.967H910.237V447.038H905.851V449.078C908.027 449.078 909.404 448.993 911.002 448.67ZM908.061 452.869V455.912H915.354V452.869H908.061ZM906.701 457.034V451.764H916.714V457.034H906.701ZM915.371 441.989H916.714V451.016H915.371V447.021H913.331V450.812H912.005V442.295H913.331V445.882H915.371V441.989ZM928.256 449.945V444.641H924.465V449.945H928.256ZM923.071 449.945V444.641H920.708V443.519H932.013V444.641H929.65V449.945H931.979V451.084H920.742V449.945H923.071ZM919.484 454.127H933.305V455.283H919.484V454.127ZM939.502 443.961H945.452C945.452 447.888 944.075 451.526 939.74 453.974L938.924 452.971C942.426 451.016 943.871 448.262 944.075 445.1H939.502V443.961ZM950.518 441.989H951.861V457.238H950.518V449.265H948.444V456.473H947.135V442.397H948.444V448.126H950.518V441.989ZM967.687 447.803L967.109 448.925C964.746 448.517 962.451 447.191 961.465 445.355C960.513 447.208 958.218 448.517 955.838 448.925L955.277 447.803C958.048 447.395 960.734 445.559 960.734 443.383V442.533H962.196V443.383C962.196 445.508 964.916 447.395 967.687 447.803ZM968.35 450.574L968.367 451.73H962.128V457.255H960.734V451.73H954.58V450.574H968.35ZM970.576 459.21L970.202 458.292C971.273 457.816 971.902 456.983 971.902 455.98C971.834 455.997 971.783 455.997 971.715 455.997C971.12 455.997 970.576 455.623 970.576 454.909C970.576 454.246 971.12 453.821 971.749 453.821C972.565 453.821 973.058 454.518 973.058 455.657C973.058 457.289 972.106 458.564 970.576 459.21ZM976.191 450.982L975.596 449.843C978.231 449.401 981.121 447.276 981.121 444.845V444.522H976.072V443.383H987.615V444.522H982.566V444.845C982.566 447.276 985.473 449.367 988.125 449.792L987.564 450.914C985.235 450.455 982.821 448.959 981.852 446.868C980.883 448.976 978.486 450.489 976.191 450.982ZM982.549 454.127H988.771V455.283H974.933V454.127H981.155V450.438H982.549V454.127ZM998.426 446.698H1001.72V442.006H1003.13V453.26H1001.72V447.837H998.426V446.698ZM991.575 443.179H998.494C998.494 447.106 995.723 450.081 991.405 451.509L990.81 450.387C994.295 449.231 996.692 447.055 996.998 444.318H991.575V443.179ZM994.89 455.759H1003.53V456.898H993.496V452.121H994.89V455.759ZM1006.65 443.638H1010.78C1010.78 447.31 1010.02 450.88 1007.25 453.804L1006.16 453.022C1008.42 450.676 1009.3 447.854 1009.46 444.794H1006.65V443.638ZM1011.29 443.638H1014.95C1014.95 447.31 1014.42 451.509 1011.62 454.824L1010.49 454.059C1012.84 451.356 1013.52 448.024 1013.64 444.794H1011.29V443.638ZM1020.46 448.279V449.435H1018.2V457.238H1016.8V441.989H1018.2V448.279H1020.46ZM1027.29 444.709V446.647C1027.29 449.231 1029.13 451.866 1031.37 452.818L1030.59 453.94C1028.82 453.124 1027.32 451.373 1026.59 449.282C1025.9 451.509 1024.4 453.43 1022.67 454.314L1021.85 453.192C1024.04 452.155 1025.9 449.282 1025.9 446.647V444.709H1022.36V443.553H1030.88V444.709H1027.29ZM1032.93 442.006H1034.33V457.238H1032.93V442.006ZM758.734 468.57H765.585C765.585 472.99 764.038 477.019 758.683 479.739L757.901 478.634C760.672 477.274 762.355 475.523 763.29 473.5L758.207 473.976L757.952 472.769L763.715 472.395C764.004 471.545 764.14 470.644 764.208 469.709H758.734V468.57ZM769.053 467.006H770.447V482.238H769.053V474.248H765.534V473.109H769.053V467.006ZM786.681 474.656L786.052 475.812C783.74 475.285 781.36 473.653 780.391 471.409C779.422 473.636 777.042 475.268 774.747 475.812L774.118 474.656C776.787 474.129 779.66 471.834 779.66 469.233V468.06H781.122V469.233C781.122 471.834 784.012 474.146 786.681 474.656ZM773.54 479.042H787.361V480.198H773.54V479.042ZM791.269 473.789V477.444C794.023 477.444 795.791 477.342 797.865 476.968L798.018 478.107C795.808 478.498 793.955 478.583 791.048 478.583H789.875V468.366H796.93V469.522H791.269V472.667H796.267V473.789H791.269ZM800.347 466.972H801.741V482.255H800.347V473.891H797.202V472.735H800.347V466.972ZM806.789 469.641V477.24H811.056V469.641H806.789ZM805.429 478.362V468.519H812.416V478.362H805.429ZM819.063 473.075V474.248H816.547V482.238H815.153V467.006H816.547V473.075H819.063ZM831.54 466.989H832.934V482.272H831.54V466.989ZM824.893 468.162C827.154 468.162 828.769 470.236 828.769 473.483C828.769 476.73 827.154 478.804 824.893 478.804C822.632 478.804 821.017 476.73 821.017 473.483C821.017 470.236 822.632 468.162 824.893 468.162ZM824.893 469.42C823.397 469.42 822.343 471.018 822.343 473.483C822.343 475.965 823.397 477.563 824.893 477.563C826.372 477.563 827.426 475.965 827.426 473.483C827.426 471.018 826.372 469.42 824.893 469.42ZM848.606 467.006V476.203H847.212V467.006H848.606ZM845.41 474.384L844.73 475.489C842.996 474.894 841.602 473.653 840.905 472.072C840.259 473.806 838.848 475.2 837.046 475.88L836.315 474.775C838.61 473.976 840.157 471.97 840.157 469.76V469.318H836.672V468.179H845.036V469.318H841.585V469.76C841.585 471.8 843.166 473.653 845.41 474.384ZM843.54 481.201C845.852 481.201 847.263 480.555 847.263 479.433C847.263 478.294 845.852 477.665 843.54 477.665C841.228 477.665 839.8 478.294 839.8 479.433C839.8 480.555 841.228 481.201 843.54 481.201ZM843.54 476.56C846.702 476.56 848.657 477.614 848.657 479.433C848.657 481.252 846.702 482.289 843.54 482.289C840.378 482.289 838.423 481.252 838.423 479.433C838.423 477.614 840.378 476.56 843.54 476.56ZM858.618 468.298C856.119 468.298 854.691 468.876 854.691 469.896C854.691 470.916 856.119 471.494 858.618 471.494C861.117 471.494 862.545 470.916 862.545 469.896C862.545 468.876 861.117 468.298 858.618 468.298ZM858.618 472.531C855.269 472.531 853.263 471.613 853.263 469.896C853.263 468.179 855.269 467.244 858.618 467.244C861.967 467.244 863.973 468.179 863.973 469.896C863.973 471.613 861.967 472.531 858.618 472.531ZM854.793 479.433V480.98H864.211V482.068H853.433V478.413H862.375V477.053H853.382V475.999H863.752V479.433H854.793ZM851.716 473.568H865.52V474.69H851.716V473.568ZM878.058 481.167C880.523 481.167 881.883 480.691 881.883 479.773C881.883 478.872 880.523 478.379 878.058 478.379C875.61 478.379 874.233 478.872 874.233 479.773C874.233 480.691 875.61 481.167 878.058 481.167ZM878.058 477.342C881.373 477.342 883.277 478.192 883.277 479.773C883.277 481.371 881.373 482.221 878.058 482.221C874.743 482.221 872.839 481.371 872.839 479.773C872.839 478.192 874.743 477.342 878.058 477.342ZM878.755 475.064H884.96V476.186H871.156V475.064H877.361V473.568H872.975V467.431H883.26V468.519H874.369V469.93H882.852V470.984H874.369V472.48H883.345V473.568H878.755V475.064ZM890.586 477.546C891.759 477.546 892.609 476.577 892.609 475.217C892.609 473.891 891.759 472.922 890.586 472.922C889.396 472.922 888.563 473.891 888.563 475.217C888.563 476.577 889.396 477.546 890.586 477.546ZM890.586 471.749C892.473 471.749 893.85 473.177 893.85 475.217C893.85 477.291 892.473 478.702 890.586 478.702C888.699 478.702 887.322 477.291 887.322 475.217C887.322 473.177 888.699 471.749 890.586 471.749ZM891.266 467.431V469.59H894.36V470.729H886.795V469.59H889.889V467.431H891.266ZM898.389 466.972H899.732V482.221H898.389V474.554H896.434V481.49H895.125V467.329H896.434V473.415H898.389V466.972ZM908.242 468.468V477.206C910.435 477.206 912.696 477.019 915.161 476.526L915.331 477.682C912.73 478.209 910.401 478.379 908.072 478.379H906.865V468.468H908.242ZM920.431 473.075V474.231H917.983V482.238H916.589V466.989H917.983V473.075H920.431ZM928.164 474.299V469.471H923.88V474.299H928.164ZM929.524 468.349V475.404H922.52V468.349H929.524ZM925.631 477.104V480.759H934.403V481.898H924.237V477.104H925.631ZM933.723 471.63H935.967V472.803H933.723V478.141H932.329V466.972H933.723V471.63ZM942.477 468.111C944.857 468.111 946.557 469.556 946.557 471.698C946.557 473.823 944.857 475.285 942.477 475.285C940.114 475.285 938.397 473.823 938.397 471.698C938.397 469.556 940.114 468.111 942.477 468.111ZM942.477 469.301C940.913 469.301 939.757 470.27 939.757 471.698C939.757 473.109 940.913 474.095 942.477 474.095C944.058 474.095 945.197 473.109 945.197 471.698C945.197 470.27 944.058 469.301 942.477 469.301ZM948.563 466.989H949.957V482.272H948.563V466.989ZM937.802 478.923L937.632 477.75C940.403 477.75 944.228 477.733 947.56 477.223L947.679 478.26C944.245 478.889 940.556 478.923 937.802 478.923ZM970.111 474.656L969.482 475.812C967.17 475.285 964.79 473.653 963.821 471.409C962.852 473.636 960.472 475.268 958.177 475.812L957.548 474.656C960.217 474.129 963.09 471.834 963.09 469.233V468.06H964.552V469.233C964.552 471.834 967.442 474.146 970.111 474.656ZM956.97 479.042H970.791V480.198H956.97V479.042ZM979.766 473.67L979.885 474.809C978.151 475.149 976.689 475.217 974.241 475.217H973.272V467.958H979.154V469.097H974.615V470.967H979.001V472.038H974.615V474.078C976.791 474.078 978.168 473.993 979.766 473.67ZM976.825 477.869V480.912H984.118V477.869H976.825ZM975.465 482.034V476.764H985.478V482.034H975.465ZM984.135 466.989H985.478V476.016H984.135V472.021H982.095V475.812H980.769V467.295H982.095V470.882H984.135V466.989ZM997.02 474.945V469.641H993.229V474.945H997.02ZM991.835 474.945V469.641H989.472V468.519H1000.78V469.641H998.414V474.945H1000.74V476.084H989.506V474.945H991.835ZM988.248 479.127H1002.07V480.283H988.248V479.127ZM1014.56 469.658V468.417H1005.62V467.431H1015.94V470.61H1007.03V471.919H1016.21V472.922H1005.65V469.658H1014.56ZM1006.95 479.62V481.031H1016.47V482.034H1005.57V478.651H1014.61V477.376H1005.54V476.373H1015.99V479.62H1006.95ZM1003.89 474.078H1017.71V475.132H1003.89V474.078ZM1029.6 474.299V469.471H1025.32V474.299H1029.6ZM1030.96 468.349V475.404H1023.96V468.349H1030.96ZM1027.07 477.104V480.759H1035.84V481.898H1025.67V477.104H1027.07ZM1035.16 471.63H1037.4V472.803H1035.16V478.141H1033.76V466.972H1035.16V471.63ZM1051.12 471.001V472.123H1040.8V467.499H1050.97V468.621H1042.2V471.001H1051.12ZM1042.03 479.399V480.963H1051.44V482.051H1040.67V478.362H1049.61V476.9H1040.61V475.812H1050.98V479.399H1042.03ZM1038.97 473.347H1052.77V474.486H1038.97V473.347ZM1058.68 477.563C1060.13 477.563 1061.15 475.965 1061.15 473.483C1061.15 471.018 1060.13 469.42 1058.68 469.42C1057.22 469.42 1056.2 471.018 1056.2 473.483C1056.2 475.965 1057.22 477.563 1058.68 477.563ZM1065.77 466.989H1067.17V482.272H1065.77V473.942H1062.46C1062.32 476.934 1060.81 478.804 1058.68 478.804C1056.46 478.804 1054.88 476.73 1054.88 473.483C1054.88 470.236 1056.46 468.162 1058.68 468.162C1060.74 468.162 1062.24 469.947 1062.46 472.803H1065.77V466.989ZM1077.05 471.936V474.741H1084.84V471.936H1077.05ZM1081.64 479.144H1087.87V480.283H1074.04V479.144H1080.23V475.863H1075.68V468.077H1077.05V470.797H1084.84V468.077H1086.2V475.863H1081.64V479.144ZM1094.21 468.434V471.29C1094.21 473.738 1095.34 476.322 1097.35 477.546L1096.55 478.634C1095.11 477.75 1094.09 476.135 1093.54 474.282C1093 476.305 1091.89 478.022 1090.38 478.957L1089.51 477.92C1091.6 476.696 1092.86 473.959 1092.86 471.341V468.434H1094.21ZM1098.22 472.463V467.329H1099.53V481.49H1098.22V473.619H1095.7V472.463H1098.22ZM1101.31 466.989H1102.64V482.238H1101.31V466.989ZM1110.1 475.54V479.127H1114.35V475.54C1113.7 475.693 1112.97 475.778 1112.21 475.778C1111.46 475.778 1110.73 475.693 1110.1 475.54ZM1112.21 469.046C1109.76 469.046 1108.01 470.168 1108.01 471.868C1108.01 473.568 1109.76 474.69 1112.21 474.69C1114.65 474.69 1116.42 473.568 1116.42 471.868C1116.42 470.168 1114.65 469.046 1112.21 469.046ZM1115.74 479.127H1119.16V480.283H1105.3V479.127H1108.7V475.013C1107.43 474.35 1106.66 473.245 1106.66 471.868C1106.66 469.488 1108.98 467.958 1112.21 467.958C1115.45 467.958 1117.75 469.488 1117.75 471.868C1117.75 473.245 1117 474.333 1115.74 474.996V479.127Z" fill="#EDEDED"/>
<path d="M787.528 330.508L785.512 334.504C779.752 333.352 775.504 330.148 773.38 325.936C771.256 330.148 767.044 333.388 761.284 334.504L759.268 330.508C766.72 329.248 770.86 323.992 770.86 319.24V316.864H775.936V319.24C775.936 324.1 780.04 329.248 787.528 330.508ZM758.548 340.192H788.572V344.044H758.548V340.192ZM806.569 328.708L807.001 332.524C803.221 333.136 800.017 333.244 795.085 333.244H792.781V316.9H805.813V320.644H797.353V323.164H805.489V326.764H797.353V329.428C800.917 329.392 803.545 329.212 806.569 328.708ZM802.141 339.472V343.972H815.281V339.472H802.141ZM797.461 347.68V335.728H819.925V347.68H797.461ZM815.425 314.956H819.925V334.468H815.425V326.62H812.761V334.18H808.333V315.568H812.761V322.768H815.425V314.956ZM843.106 331.516V321.58H836.338V331.516H843.106ZM831.622 331.516V321.58H827.122V317.8H852.322V321.58H847.822V331.516H852.214V335.296H827.302V331.516H831.622ZM824.782 340.372H854.806V344.224H824.782V340.372ZM878.152 329.896V321.4H871.672V329.896H878.152ZM882.832 317.656V333.64H867.028V317.656H882.832ZM875.524 336.736V343.72H893.344V347.5H870.772V336.736H875.524ZM892.156 324.496H896.548V328.384H892.156V339.112H887.404V314.92H892.156V324.496ZM925.633 322.264V326.008H902.917V315.568H925.381V319.348H907.633V322.264H925.633ZM907.345 342.172V344.152H926.353V347.788H902.629V338.824H920.809V336.952H902.593V333.388H925.489V342.172H907.345ZM899.209 327.772H929.197V331.516H899.209V327.772ZM945.106 322.012V323.848C945.106 329.248 947.77 334.972 953.314 337.276L950.722 341.02C946.87 339.364 944.242 336.124 942.766 332.128C941.29 336.448 938.626 340.084 934.738 341.848L932.038 338.068C937.582 335.584 940.282 329.5 940.282 323.848V322.012H933.37V318.088H951.946V322.012H945.106ZM955.006 314.92H959.758V348.076H955.006V314.92ZM985.66 326.512V320.176H979.18V326.512H985.66ZM990.34 316.468V330.256H974.536V316.468H990.34ZM982.528 341.848V344.008H1000.64V347.68H977.812V338.428H994.984V336.448H977.776V332.776H999.664V341.848H982.528ZM999.664 321.292H1004.02V325.18H999.664V331.48H994.912V314.92H999.664V321.292ZM1032.49 336.808L1027.74 336.268C1029 330.004 1029.07 325.396 1029.07 321.544H1009.74V317.764H1033.82V320.932C1033.82 325.072 1033.82 329.752 1032.49 336.808ZM1022.05 340.264H1036.7V344.08H1006.72V340.264H1017.3V328.852H1022.05V340.264ZM781.516 391.4V377.828H775.432V373.976H781.516V366.92H786.268V391.4H781.516ZM778.348 382.904L775.828 386.576C772.372 385.316 769.996 382.904 768.628 379.844C767.224 383.264 764.668 385.964 760.816 387.368L758.332 383.66C763.804 381.824 766.108 377.216 766.108 372.5V368.936H770.932V372.536C770.932 376.856 773.164 381.068 778.348 382.904ZM769.132 395.72H786.988V399.5H764.38V388.952H769.132V395.72ZM806.569 381.356L807.001 385.136C803.221 385.748 800.017 385.856 795.085 385.856H792.781V369.152H805.813V372.896H797.353V375.632H805.489V379.232H797.353V382.04C800.917 382.004 803.545 381.824 806.569 381.356ZM797.101 392.372V388.592H819.925V400.112H815.173V392.372H797.101ZM815.425 366.92H819.925V387.152H815.425V378.836H812.761V386.936H808.333V367.496H812.761V375.056H815.425V366.92ZM834.358 389.42C836.59 389.42 838.21 387.908 838.21 385.352C838.21 382.868 836.59 381.32 834.358 381.32C832.126 381.32 830.47 382.868 830.47 385.388C830.47 387.908 832.126 389.42 834.358 389.42ZM834.358 377.468C839.146 377.468 842.71 380.744 842.71 385.352C842.71 390.032 839.146 393.308 834.358 393.308C829.534 393.308 825.934 390.032 825.934 385.352C825.934 380.744 829.534 377.468 834.358 377.468ZM836.698 367.496V371.816H843.898V375.596H824.602V371.816H831.946V367.496H836.698ZM855.562 379.88V383.804H850.81V400.076H846.058V366.92H850.81V379.88H855.562ZM868.484 369.8V375.2C868.484 380.564 869.924 386.072 874.424 389.06L871.832 392.732C869.024 391.004 867.26 388.196 866.216 384.848C865.064 388.52 863.12 391.688 860.132 393.488L857.288 389.924C862.148 386.972 863.912 381.032 863.912 375.38V369.8H868.484ZM875.108 378.116V367.46H879.536V398.6H875.108V381.968H870.932V378.116H875.108ZM881.84 366.92H886.34V400.076H881.84V366.92ZM902.357 386.036V392.372H909.665V386.036C908.513 386.252 907.289 386.36 905.993 386.36C904.697 386.36 903.509 386.252 902.357 386.036ZM905.993 372.284C901.385 372.284 898.325 374.156 898.325 377.468C898.325 380.744 901.385 382.652 905.993 382.652C910.601 382.652 913.697 380.744 913.697 377.468C913.697 374.156 910.601 372.284 905.993 372.284ZM914.381 392.372H921.041V396.224H891.017V392.372H897.641V384.272C895.121 382.724 893.609 380.348 893.645 377.468C893.645 372.032 898.865 368.54 905.993 368.54C913.157 368.54 918.377 372.032 918.377 377.468C918.377 380.348 916.865 382.724 914.381 384.272V392.372ZM927.518 387.908L926.762 374.624L926.582 369.62H931.91L931.73 374.624L930.974 387.908H927.518ZM929.246 397.484C927.374 397.484 925.97 395.972 925.97 394.028C925.97 392.048 927.374 390.572 929.246 390.572C931.118 390.572 932.558 392.048 932.558 394.028C932.558 395.972 931.118 397.484 929.246 397.484Z" fill="#FDFDFD"/>
<defs>
<linearGradient id="paint0_linear_523_612" x1="626.838" y1="333.437" x2="766.17" y2="223.225" gradientUnits="userSpaceOnUse">
<stop stop-color="white"/>
<stop offset="1" stop-color="#EEEEEE"/>
</linearGradient>
<linearGradient id="paint1_linear_523_612" x1="162.92" y1="461.824" x2="20.0103" y2="540.61" gradientUnits="userSpaceOnUse">
<stop stop-color="white"/>
<stop offset="1" stop-color="#EEEEEE"/>
</linearGradient>
</defs>
</svg>
