<svg width="483" height="800" viewBox="0 0 483 800" fill="none" xmlns="http://www.w3.org/2000/svg">
<path d="M2 0H482V594.872C482 649.275 482 756.081 482 800C471.645 800 445.261 800 432 800H2V0Z" fill="#555E75"/>
<g opacity="0.3">
<path d="M461.439 597.773C461.439 639.304 427.778 672.965 386.247 672.965C344.716 672.965 311.055 639.304 311.055 597.773C311.055 556.241 344.716 522.58 386.247 522.58C427.778 522.58 461.439 556.241 461.439 597.773Z" stroke="#E1E4E5" stroke-width="4" stroke-linecap="round" stroke-linejoin="round"/>
<path d="M439.42 650.941L388.698 600.22C387.922 599.445 387.306 598.524 386.886 597.51C386.466 596.497 386.25 595.41 386.25 594.313V522.579M318.449 563.631H246.717C245.62 563.632 244.534 563.416 243.52 562.996C242.507 562.577 241.586 561.961 240.81 561.186L190.087 510.462M190.021 510.603H118.29C117.193 510.603 116.107 510.388 115.093 509.968C114.079 509.548 113.158 508.933 112.382 508.157L61.6588 457.434M59.9886 521.966L41.9295 501.401C41.6537 501.086 41.3185 500.829 40.943 500.644C40.5676 500.459 40.1594 500.35 39.7417 500.323L12.4297 498.551M318.449 632.402H246.718C245.621 632.403 244.534 632.187 243.521 631.767C242.507 631.348 241.586 630.732 240.81 629.956L190.087 579.233M190.021 579.374H118.29C117.193 579.374 116.106 579.158 115.092 578.739C114.079 578.319 113.158 577.704 112.382 576.928L61.6588 526.205M386.834 597.438L451.332 560.176" stroke="#E1E4E5" stroke-width="4" stroke-linecap="round" stroke-linejoin="round"/>
<path d="M115.102 517.608C119.449 517.608 122.974 514.084 122.974 509.737C122.974 505.389 119.449 501.865 115.102 501.865C110.755 501.865 107.23 505.389 107.23 509.737C107.23 514.084 110.755 517.608 115.102 517.608Z" fill="#E1E4E5"/>
<path d="M115.102 586.379C119.449 586.379 122.974 582.855 122.974 578.508C122.974 574.16 119.449 570.636 115.102 570.636C110.755 570.636 107.23 574.16 107.23 578.508C107.23 582.855 110.755 586.379 115.102 586.379Z" fill="#E1E4E5"/>
<path d="M61.2466 464.58C65.5939 464.58 69.1182 461.056 69.1182 456.709C69.1182 452.361 65.5939 448.837 61.2466 448.837C56.8992 448.837 53.375 452.361 53.375 456.709C53.375 461.056 56.8992 464.58 61.2466 464.58Z" fill="#E1E4E5"/>
<path d="M61.2466 533.351C65.5939 533.351 69.1182 529.827 69.1182 525.479C69.1182 521.132 65.5939 517.608 61.2466 517.608C56.8992 517.608 53.375 521.132 53.375 525.479C53.375 529.827 56.8992 533.351 61.2466 533.351Z" fill="#E1E4E5"/>
<path d="M189.665 517.608C194.012 517.608 197.536 514.084 197.536 509.737C197.536 505.389 194.012 501.865 189.665 501.865C185.317 501.865 181.793 505.389 181.793 509.737C181.793 514.084 185.317 517.608 189.665 517.608Z" fill="#E1E4E5"/>
<path d="M189.665 586.379C194.012 586.379 197.536 582.855 197.536 578.508C197.536 574.16 194.012 570.636 189.665 570.636C185.317 570.636 181.793 574.16 181.793 578.508C181.793 582.855 185.317 586.379 189.665 586.379Z" fill="#E1E4E5"/>
<path d="M243.524 569.808C247.871 569.808 251.396 566.284 251.396 561.937C251.396 557.589 247.871 554.065 243.524 554.065C239.177 554.065 235.652 557.589 235.652 561.937C235.652 566.284 239.177 569.808 243.524 569.808Z" fill="#E1E4E5"/>
<path d="M243.524 638.579C247.871 638.579 251.396 635.055 251.396 630.708C251.396 626.36 247.871 622.836 243.524 622.836C239.177 622.836 235.652 626.36 235.652 630.708C235.652 635.055 239.177 638.579 243.524 638.579Z" fill="#E1E4E5"/>
<path d="M243.113 511.165C263.898 484.404 297.594 484.404 318.378 511.165M125.457 658.651C146.241 631.889 179.937 631.889 200.722 658.651M2 590.708C22.7848 563.946 56.4807 563.946 77.2648 590.708" stroke="#E1E4E5" stroke-width="4" stroke-linecap="round" stroke-linejoin="round"/>
<path d="M293.774 496.841C300.448 503.515 300.448 514.335 293.774 521.008C287.101 527.682 276.281 527.682 269.607 521.008C262.933 514.335 262.933 503.515 269.607 496.841C276.281 490.167 287.101 490.167 293.774 496.841ZM176.118 644.326C182.792 651 182.792 661.82 176.118 668.493C169.444 675.168 158.624 675.168 151.95 668.493C145.276 661.82 145.276 651 151.95 644.326C158.624 637.652 169.444 637.652 176.118 644.326ZM52.6612 576.383C59.3354 583.057 59.3354 593.877 52.6612 600.551C45.9878 607.225 35.1675 607.225 28.4934 600.551C21.8199 593.877 21.8199 583.057 28.4934 576.383C35.1675 569.71 45.9878 569.71 52.6612 576.383Z" stroke="#E1E4E5" stroke-width="4" stroke-linecap="round" stroke-linejoin="round"/>
<path d="M466.218 512.356C454.03 518.402 437.852 510.627 437.852 510.627C437.852 510.627 441.447 493.053 453.643 487.015C465.832 480.968 482.003 488.735 482.003 488.735C482.003 488.735 478.408 506.309 466.218 512.356Z" fill="url(#paint0_linear_523_992)"/>
<path d="M52.0366 656.784C61.4937 648.613 60.6655 632.146 60.6655 632.146C60.6655 632.146 44.5032 628.939 35.0504 637.118C25.5934 645.29 26.4165 661.748 26.4165 661.748C26.4165 661.748 42.5789 664.956 52.0366 656.784Z" fill="url(#paint1_linear_523_992)"/>
<path d="M392.297 696.983C392.297 692.006 388.262 687.971 383.285 687.971C378.308 687.971 374.273 692.006 374.273 696.983C374.273 701.96 378.308 705.995 383.285 705.995C388.262 705.995 392.297 701.96 392.297 696.983Z" fill="#687391"/>
<path d="M108.056 631.122C108.056 626.546 104.346 622.836 99.7701 622.836C95.194 622.836 91.4844 626.546 91.4844 631.122C91.4844 635.698 95.194 639.408 99.7701 639.408C104.346 639.408 108.056 635.698 108.056 631.122Z" fill="#687391"/>
<path d="M211.282 428.123C203.695 428.123 197.544 434.273 197.544 441.86C197.544 449.448 203.695 455.598 211.282 455.598C218.869 455.598 225.02 449.448 225.02 441.86C225.02 434.273 218.869 428.123 211.282 428.123Z" fill="#687391"/>
<path d="M380.54 487.776C374.218 487.776 369.092 482.65 369.092 476.328C369.092 470.005 374.218 464.88 380.54 464.88C386.863 464.88 391.988 470.005 391.988 476.328C391.988 482.65 386.863 487.776 380.54 487.776Z" fill="#687391"/>
<path d="M164.771 554.698C161.821 554.698 159.429 552.306 159.429 549.356C159.429 546.405 161.821 544.014 164.771 544.014C167.722 544.014 170.113 546.405 170.113 549.356C170.113 552.306 167.722 554.698 164.771 554.698Z" fill="#E1E4E5"/>
<path d="M441.995 690.122C439.313 687.439 439.313 683.09 441.995 680.408C444.678 677.725 449.027 677.725 451.709 680.408C454.392 683.09 454.392 687.439 451.709 690.122C449.027 692.804 444.678 692.804 441.995 690.122Z" fill="#E1E4E5"/>
<path d="M73.9644 555.046C71.6558 555.046 69.7843 553.175 69.7843 550.866C69.7843 548.557 71.6558 546.686 73.9644 546.686C76.273 546.686 78.1445 548.557 78.1445 550.866C78.1445 553.175 76.273 555.046 73.9644 555.046Z" fill="#E1E4E5"/>
<path d="M290.105 466.599C286.572 466.599 283.709 463.736 283.709 460.204C283.709 456.672 286.572 453.808 290.105 453.808C293.637 453.808 296.5 456.672 296.5 460.204C296.5 463.736 293.637 466.599 290.105 466.599Z" fill="#E1E4E5"/>
<path d="M163.685 454.562C164.287 456.808 162.954 459.117 160.708 459.718C158.461 460.32 156.153 458.987 155.551 456.741C154.949 454.495 156.282 452.186 158.528 451.584C160.774 450.982 163.083 452.315 163.685 454.562Z" fill="#E1E4E5"/>
<path d="M146.583 617.036C143.609 617.036 141.198 614.625 141.198 611.651C141.198 608.677 143.609 606.265 146.583 606.265C149.558 606.265 151.969 608.677 151.969 611.651C151.969 614.625 149.558 617.036 146.583 617.036Z" fill="#E1E4E5"/>
<path d="M304.079 687.561C301.066 684.548 300.577 680.152 302.988 677.742C305.398 675.332 309.794 675.82 312.807 678.833C315.819 681.846 316.308 686.242 313.898 688.652C311.487 691.062 307.091 690.574 304.079 687.561Z" fill="#E1E4E5"/>
<path d="M343.704 424.245C344.969 428.967 342.167 433.82 337.445 435.086C332.723 436.351 327.869 433.549 326.604 428.827C325.338 424.104 328.141 419.251 332.863 417.985C337.585 416.72 342.439 419.522 343.704 424.245Z" fill="#E1E4E5"/>
<path d="M437.943 597.15H438.066C438.795 607.472 446.471 607.631 446.471 607.631C446.471 607.631 438.006 607.796 438.006 619.722C438.006 607.796 429.542 607.631 429.542 607.631C429.542 607.631 437.215 607.472 437.943 597.15ZM108.163 445.523H108.273C108.929 454.962 115.838 455.108 115.838 455.108C115.838 455.108 108.22 455.259 108.22 466.166C108.22 455.259 100.602 455.108 100.602 455.108C100.602 455.108 107.507 454.962 108.163 445.523Z" fill="#E1E4E5"/>
<path fill-rule="evenodd" clip-rule="evenodd" d="M41.2067 702.677H44.6766C45.5156 702.677 46.1918 703.36 46.1918 704.192V707.663C46.1914 708.064 46.0317 708.45 45.7476 708.734C45.4635 709.018 45.0783 709.177 44.6766 709.178H41.2067C40.8053 709.176 40.4207 709.016 40.1369 708.732C39.8531 708.449 39.6929 708.064 39.6914 707.663V704.192C39.691 703.993 39.73 703.796 39.806 703.612C39.882 703.428 39.9936 703.261 40.1344 703.12C40.2752 702.979 40.4424 702.868 40.6264 702.792C40.8104 702.716 41.0076 702.677 41.2067 702.677ZM53.2388 702.677H56.7087C57.1101 702.679 57.4946 702.839 57.7784 703.122C58.0623 703.406 58.2225 703.791 58.224 704.192V707.663C58.2236 708.064 58.0638 708.45 57.7798 708.734C57.4957 709.018 57.1105 709.177 56.7087 709.178H53.2388C52.8374 709.176 52.4529 709.016 52.1691 708.732C51.8852 708.449 51.7251 708.064 51.7236 707.663V704.192C51.7251 703.791 51.8853 703.406 52.1691 703.122C52.453 702.839 52.8375 702.679 53.2388 702.677ZM65.2789 702.677H68.7496C69.1508 702.679 69.5351 702.839 69.8188 703.123C70.1025 703.406 70.2626 703.791 70.2641 704.192V707.663C70.2637 708.064 70.1041 708.449 69.8201 708.733C69.5362 709.017 69.1512 709.177 68.7496 709.178H65.2789C64.8777 709.176 64.4933 709.016 64.2097 708.732C63.926 708.448 63.766 708.064 63.7644 707.663V704.192C63.764 703.993 63.8028 703.796 63.8787 703.612C63.9547 703.428 64.0662 703.261 64.207 703.12C64.3477 702.979 64.5148 702.868 64.6988 702.792C64.8828 702.716 65.0799 702.677 65.2789 702.677ZM77.3111 702.677H80.7818C81.183 702.679 81.5673 702.839 81.851 703.123C82.1347 703.406 82.2948 703.791 82.2963 704.192V707.663C82.2959 708.064 82.1362 708.449 81.8523 708.733C81.5684 709.017 81.1834 709.177 80.7818 709.178H77.3111C76.9087 709.178 76.5227 709.018 76.2376 708.734C75.9524 708.45 75.7913 708.065 75.7894 707.663V704.192C75.7937 703.79 75.9557 703.407 76.2403 703.123C76.525 702.84 76.9095 702.68 77.3111 702.677ZM89.3447 702.677H92.8154C93.6545 702.677 94.3371 703.36 94.3371 704.192V707.663C94.3368 707.862 94.2971 708.059 94.2204 708.244C94.1437 708.428 94.0315 708.595 93.8902 708.736C93.7489 708.876 93.5812 708.988 93.3968 709.064C93.2124 709.14 93.0148 709.178 92.8154 709.178H89.3447C88.9435 709.176 88.5591 709.016 88.2754 708.732C87.9918 708.448 87.8317 708.064 87.8302 707.663V704.192C87.8317 703.791 87.9918 703.406 88.2755 703.123C88.5592 702.839 88.9435 702.679 89.3447 702.677ZM53.6804 715.798H57.1504C57.5517 715.8 57.9362 715.96 58.2201 716.243C58.5039 716.527 58.6641 716.912 58.6656 717.313V720.791C58.6641 721.192 58.5039 721.577 58.2201 721.86C57.9362 722.144 57.5517 722.304 57.1504 722.305H53.6804C53.2787 722.305 52.8936 722.146 52.6095 721.862C52.3254 721.578 52.1656 721.193 52.1652 720.791V717.32C52.164 717.121 52.2024 716.923 52.2781 716.738C52.3537 716.553 52.4652 716.385 52.606 716.244C52.7469 716.102 52.9143 715.99 53.0987 715.914C53.2831 715.837 53.4808 715.798 53.6804 715.798ZM65.7126 715.798H69.1825C69.5838 715.8 69.9684 715.96 70.2522 716.243C70.5361 716.527 70.6962 716.912 70.6978 717.313V720.791C70.6962 721.192 70.5361 721.577 70.2522 721.86C69.9684 722.144 69.5838 722.304 69.1825 722.305H65.7126C65.3113 722.304 64.9267 722.144 64.6429 721.86C64.359 721.577 64.1989 721.192 64.1974 720.791V717.32C64.1962 717.121 64.2346 716.923 64.3102 716.738C64.3859 716.553 64.4974 716.385 64.6382 716.244C64.779 716.102 64.9465 715.99 65.1309 715.914C65.3153 715.837 65.513 715.798 65.7126 715.798ZM77.7455 715.798H81.2161C82.0552 715.798 82.7379 716.481 82.7379 717.313V720.791C82.736 721.193 82.5748 721.578 82.2896 721.862C82.0045 722.146 81.6185 722.305 81.2161 722.305H77.7455C77.3443 722.304 76.9599 722.144 76.6763 721.86C76.3926 721.576 76.2325 721.192 76.231 720.791V717.32C76.231 716.481 76.9137 715.798 77.7455 715.798ZM65.2789 688.582H68.7496C69.1508 688.584 69.5351 688.744 69.8188 689.027C70.1025 689.311 70.2626 689.695 70.2641 690.097V693.567C70.2637 693.969 70.1041 694.354 69.8201 694.638C69.5362 694.922 69.1512 695.082 68.7496 695.082L65.2789 695.082C64.8777 695.08 64.4934 694.92 64.2097 694.636C63.926 694.353 63.766 693.968 63.7644 693.567V690.097C63.764 689.898 63.8028 689.7 63.8787 689.516C63.9547 689.332 64.0662 689.165 64.207 689.025C64.3477 688.884 64.5148 688.772 64.6988 688.696C64.8828 688.62 65.0799 688.582 65.2789 688.582ZM77.3111 688.582H80.7818C81.183 688.584 81.5673 688.744 81.851 689.027C82.1347 689.311 82.2948 689.695 82.2963 690.097V693.567C82.2959 693.969 82.1362 694.354 81.8523 694.638C81.5684 694.922 81.1834 695.082 80.7818 695.082L77.3111 695.082C76.9088 695.082 76.5228 694.922 76.2376 694.639C75.9524 694.355 75.7913 693.97 75.7894 693.567V690.097C75.7937 689.695 75.9557 689.311 76.2403 689.028C76.525 688.745 76.9095 688.584 77.3111 688.582ZM225.091 683.131H228.562C229.401 683.131 230.077 683.813 230.077 684.645V688.116C230.077 688.518 229.917 688.903 229.633 689.187C229.349 689.471 228.963 689.631 228.562 689.631H225.091C224.69 689.629 224.305 689.469 224.022 689.185C223.738 688.901 223.578 688.517 223.576 688.116V684.645C223.576 684.446 223.615 684.249 223.691 684.065C223.767 683.881 223.878 683.714 224.019 683.573C224.16 683.432 224.327 683.321 224.511 683.245C224.695 683.169 224.892 683.13 225.091 683.131ZM237.124 683.131H240.594C240.995 683.132 241.38 683.292 241.664 683.576C241.947 683.859 242.108 684.244 242.109 684.645V688.116C242.109 688.518 241.949 688.903 241.665 689.187C241.381 689.471 240.996 689.631 240.594 689.631H237.124C236.723 689.629 236.338 689.469 236.054 689.186C235.77 688.902 235.61 688.517 235.609 688.116V684.645C235.61 684.244 235.77 683.859 236.054 683.576C236.338 683.292 236.723 683.132 237.124 683.131ZM249.164 683.131H252.635C253.036 683.132 253.42 683.292 253.704 683.576C253.988 683.86 254.148 684.244 254.149 684.645V688.116C254.149 688.517 253.989 688.902 253.705 689.187C253.421 689.471 253.036 689.63 252.635 689.631H249.164C248.763 689.629 248.378 689.469 248.095 689.185C247.811 688.901 247.651 688.517 247.65 688.116V684.645C247.649 684.446 247.688 684.249 247.764 684.065C247.84 683.881 247.951 683.714 248.092 683.573C248.233 683.432 248.4 683.321 248.584 683.245C248.768 683.169 248.965 683.13 249.164 683.131ZM261.196 683.131H264.667C265.068 683.132 265.452 683.292 265.736 683.576C266.02 683.86 266.18 684.244 266.181 684.645V688.116C266.181 688.517 266.021 688.902 265.737 689.187C265.453 689.471 265.068 689.63 264.667 689.631H261.196C260.794 689.631 260.408 689.471 260.123 689.187C259.837 688.903 259.676 688.518 259.674 688.116V684.645C259.679 684.244 259.841 683.86 260.125 683.576C260.41 683.293 260.795 683.133 261.196 683.131ZM273.23 683.131H276.7C277.54 683.131 278.222 683.813 278.222 684.645V688.116C278.222 688.315 278.182 688.513 278.105 688.697C278.029 688.881 277.917 689.048 277.775 689.189C277.634 689.329 277.466 689.441 277.282 689.517C277.097 689.593 276.9 689.632 276.7 689.631H273.23C272.829 689.629 272.444 689.469 272.161 689.185C271.877 688.901 271.717 688.517 271.715 688.116V684.645C271.717 684.244 271.877 683.86 272.161 683.576C272.444 683.292 272.829 683.132 273.23 683.131ZM237.566 696.252H241.035C241.437 696.253 241.821 696.413 242.105 696.697C242.389 696.98 242.549 697.365 242.551 697.766V701.244C242.549 701.645 242.389 702.03 242.105 702.314C241.821 702.597 241.437 702.757 241.035 702.759H237.566C237.164 702.758 236.779 702.599 236.495 702.315C236.21 702.031 236.051 701.646 236.05 701.244V697.773C236.049 697.574 236.088 697.376 236.163 697.191C236.239 697.006 236.35 696.839 236.491 696.697C236.632 696.556 236.799 696.443 236.984 696.367C237.168 696.291 237.366 696.251 237.566 696.252ZM249.598 696.252H253.068C253.469 696.253 253.853 696.413 254.137 696.697C254.421 696.98 254.581 697.365 254.583 697.766V701.244C254.581 701.645 254.421 702.03 254.137 702.314C253.853 702.597 253.469 702.757 253.068 702.759H249.598C249.196 702.757 248.812 702.597 248.528 702.314C248.244 702.03 248.084 701.645 248.082 701.244V697.773C248.081 697.574 248.12 697.376 248.195 697.191C248.271 697.006 248.382 696.839 248.523 696.697C248.664 696.556 248.832 696.443 249.016 696.367C249.2 696.291 249.398 696.251 249.598 696.252ZM261.631 696.252H265.101C265.94 696.252 266.623 696.934 266.623 697.766V701.244C266.621 701.646 266.46 702.032 266.175 702.315C265.89 702.599 265.504 702.759 265.101 702.759H261.631C261.229 702.757 260.845 702.597 260.561 702.313C260.278 702.03 260.118 701.645 260.116 701.244V697.773C260.116 696.934 260.799 696.252 261.631 696.252ZM249.164 669.035H252.635C253.036 669.037 253.42 669.197 253.704 669.48C253.988 669.764 254.148 670.148 254.149 670.55V674.02C254.149 674.422 253.989 674.807 253.705 675.091C253.421 675.375 253.036 675.535 252.635 675.536L249.164 675.535C248.763 675.533 248.378 675.373 248.095 675.09C247.811 674.806 247.651 674.422 247.65 674.02V670.55C247.649 670.351 247.688 670.154 247.764 669.97C247.84 669.786 247.951 669.618 248.092 669.478C248.233 669.337 248.4 669.225 248.584 669.149C248.768 669.074 248.965 669.035 249.164 669.035ZM261.196 669.035H264.667C265.068 669.037 265.452 669.197 265.736 669.48C266.02 669.764 266.18 670.148 266.181 670.55V674.02C266.181 674.422 266.021 674.807 265.737 675.091C265.453 675.375 265.068 675.535 264.667 675.536L261.196 675.535C260.794 675.535 260.408 675.376 260.123 675.092C259.838 674.808 259.676 674.423 259.674 674.02V670.55C259.679 670.148 259.841 669.764 260.125 669.481C260.41 669.198 260.795 669.038 261.196 669.035Z" fill="#E1E4E5"/>
</g>
<path d="M335.769 718.596L330.333 718.596L327.746 697.627L335.77 697.627L335.769 718.596Z" fill="#FFB6B6"/>
<path d="M335.964 724.267L319.246 724.267V724.055C319.246 720.462 322.159 717.549 325.753 717.549L328.807 715.232L334.505 717.549L335.964 717.549L335.964 724.267Z" fill="#2F2E41"/>
<path d="M377.19 689.983L374.616 694.771L354.922 687.119L358.722 680.052L377.19 689.983Z" fill="#FFB6B6"/>
<path d="M382.28 692.499L374.363 707.223L374.177 707.123C371.012 705.421 369.825 701.476 371.527 698.311L370.933 694.524L375.671 690.603L376.362 689.318L382.28 692.499Z" fill="#2F2E41"/>
<path d="M325.497 622.569L320.699 660.954L323.098 673.823L366.282 692.742L368.681 684.945C357.642 678.19 345.843 667.968 338.408 667.217C338.408 667.217 354.586 630.066 353.986 627.067C353.387 624.068 325.497 622.569 325.497 622.569Z" fill="#2F2E41"/>
<path d="M324.67 660.843L322.16 677.053L328.496 710.135H336.892C339.909 699.019 340.065 684.41 337.192 672.049L324.67 660.843Z" fill="#2F2E41"/>
<path d="M330.063 575.67L333.934 568.925L338.09 565.591L345.887 564.392L348.053 566.057C355.849 577.972 358.756 592.432 356.171 606.434L354.042 617.963L355.874 626.661C356.45 629.396 354.699 632.08 351.964 632.656C351.628 632.727 351.286 632.764 350.942 632.765L331.597 632.845C326.77 632.865 322.84 628.968 322.82 624.14C322.819 623.69 322.852 623.24 322.919 622.794L330.063 575.67Z" fill="#E6E6E6"/>
<path d="M345.248 598.896L337.516 597.789C334.902 602.161 333.972 613.799 333.972 613.799L326.406 631.784C324.83 632.854 324.421 634.998 325.491 636.574C326.561 638.149 328.705 638.559 330.281 637.489C331.303 636.795 331.876 635.606 331.781 634.374L344.205 613.441L345.248 598.896Z" fill="#FFB8B8"/>
<path d="M344.015 577.431C348.512 578.128 351.594 582.339 350.897 586.836C350.819 587.34 350.694 587.836 350.525 588.317L348.884 592.967C348.884 592.967 347.991 606.97 344.585 610.922L334.133 609.976C334.133 609.976 336.044 602.912 334.577 599.494C333.678 597.4 333.728 590.17 334.613 584.289C335.31 579.803 339.512 576.732 343.997 577.429L344.015 577.431Z" fill="#E6E6E6"/>
<path d="M329.045 585.434L327.209 577.842C322.179 577.033 311.025 580.482 311.025 580.482L291.517 580.118C289.939 579.051 287.796 579.465 286.729 581.043C285.662 582.62 286.076 584.764 287.654 585.831C288.678 586.523 289.993 586.615 291.103 586.071L315.15 589.854L329.045 585.434Z" fill="#FFB8B8"/>
<path d="M348.531 576.338C349.55 580.773 346.781 585.195 342.345 586.215C341.848 586.329 341.342 586.397 340.832 586.418L335.905 586.617C335.905 586.617 322.568 590.975 317.634 589.276L314.641 579.218C314.641 579.218 321.91 578.375 324.542 575.746C326.153 574.136 332.887 571.503 338.678 570.147C343.102 569.132 347.512 571.896 348.527 576.321L348.531 576.338Z" fill="#E6E6E6"/>
<path d="M350.058 553.902C350.965 548.313 347.169 543.047 341.58 542.14C335.991 541.233 330.725 545.029 329.818 550.618C328.911 556.207 332.707 561.473 338.296 562.38C343.885 563.287 349.151 559.491 350.058 553.902Z" fill="#FFB8B8"/>
<path d="M340.121 562.221C341.621 562.244 343.12 562.139 344.602 561.908C346.072 561.609 349.358 559.2 350.275 557.751C350.942 556.508 351.402 555.163 351.636 553.771C352.304 550.504 351.556 547.106 349.576 544.422C349.2 543.867 348.681 543.424 348.074 543.139C348.02 543.118 347.964 543.1 347.908 543.084C347.023 542.851 346.228 542.359 345.625 541.671C345.508 541.531 345.381 541.401 345.245 541.28C344.563 540.704 343.755 540.298 342.886 540.095C341.483 539.72 339.454 540.093 336.853 541.204C335.618 541.638 334.279 541.679 333.019 541.322C332.893 541.297 332.765 541.342 332.68 541.438C332.213 541.877 331.596 542.122 330.955 542.125C330.562 542.143 330.15 542.687 329.652 543.396C329.539 543.557 329.407 543.745 329.311 543.859L329.299 543.64L329.076 543.885C327.933 545.145 328.028 547.093 329.288 548.236C329.627 548.544 330.03 548.772 330.467 548.904C330.863 549.009 331.267 549.074 331.676 549.096C331.923 549.119 332.179 549.142 332.424 549.184C334.025 549.512 335.335 550.657 335.876 552.198C336.102 552.83 336.798 553.158 337.429 552.932C337.528 552.896 337.622 552.848 337.709 552.788C338.227 552.385 338.91 552.26 339.538 552.455C339.805 552.604 340.013 552.839 340.127 553.123C340.265 553.439 340.494 553.707 340.785 553.892C341.781 554.405 341.85 556.679 341.492 558.575C341.147 560.402 340.466 561.724 339.835 561.789C339.35 561.84 339.294 561.874 339.259 561.96L339.227 562.037L339.282 562.109C339.55 562.206 339.836 562.244 340.121 562.221Z" fill="#2F2E41"/>
<path d="M265.692 423H175.639C165.427 423 157.148 431.278 157.148 441.49V678.121C157.148 688.333 165.427 696.611 175.639 696.611H265.692C275.904 696.611 284.182 688.332 284.182 678.12V441.49C284.182 431.278 275.904 423 265.692 423Z" fill="white"/>
<path d="M266.008 697.486H175.956C165.519 697.486 157.027 688.995 157.027 678.558V441.928C157.027 431.491 165.519 423 175.956 423H266.008C276.445 423 284.937 431.491 284.937 441.928V678.558C284.937 688.995 276.445 697.486 266.008 697.486ZM175.956 423.876C166.001 423.876 157.903 431.974 157.903 441.928V678.558C157.903 688.513 166.001 696.611 175.956 696.611H266.008C275.963 696.611 284.061 688.513 284.061 678.558V441.928C284.061 431.974 275.963 423.876 266.008 423.876H175.956Z" fill="#3F3D56"/>
<path d="M150.023 464.406C149.233 464.406 148.59 465.049 148.59 465.84V477.308C148.59 478.098 149.233 478.741 150.023 478.741C150.814 478.741 151.457 478.098 151.457 477.308V465.84C151.457 465.049 150.814 464.406 150.023 464.406Z" fill="#3F3D56"/>
<path d="M272.531 461.295H236.335C234.8 461.295 233.551 460.046 233.551 458.511C233.551 456.975 234.8 455.726 236.335 455.726H272.531C274.067 455.726 275.316 456.975 275.316 458.511C275.316 460.046 274.067 461.295 272.531 461.295Z" fill="#E6E6E6"/>
<path d="M238.571 483.191H203.386C202.499 483.191 201.777 482.469 201.777 481.582C201.777 480.695 202.499 479.974 203.386 479.974H238.571C239.458 479.974 240.179 480.695 240.179 481.582C240.179 482.469 239.458 483.191 238.571 483.191Z" fill="#F2C6BD"/>
<path d="M151.416 491.13C167.11 491.13 179.832 478.676 179.832 463.313C179.832 447.95 167.11 435.495 151.416 435.495C135.722 435.495 123 447.95 123 463.313C123 478.676 135.722 491.13 151.416 491.13Z" fill="#F2C6BD"/>
<path d="M161.061 449.282C157.278 456.171 153.495 463.059 149.712 469.948C147.301 465.688 144.903 461.42 142.486 457.163C141.651 455.693 139.38 457.016 140.217 458.489C143.019 463.424 145.792 468.375 148.594 473.309C149.073 474.153 150.388 474.173 150.862 473.309C155.018 465.742 159.174 458.175 163.33 450.608C164.144 449.125 161.876 447.798 161.061 449.282Z" fill="white"/>
<path d="M175.734 491.803C175.734 492.092 175.966 492.324 176.255 492.324H265.704C265.993 492.324 266.225 492.092 266.225 491.803C266.225 491.514 265.993 491.281 265.704 491.281H176.255C175.966 491.281 175.734 491.514 175.734 491.803Z" fill="#3F3D56"/>
<path d="M257.136 532.755H203.456C202.569 532.755 201.848 532.033 201.848 531.146C201.848 530.259 202.569 529.538 203.456 529.538H257.136C258.023 529.538 258.745 530.259 258.745 531.146C258.745 532.033 258.023 532.755 257.136 532.755Z" fill="#F2C6BD"/>
<path d="M257.136 555.961H203.456C202.569 555.961 201.848 555.239 201.848 554.352C201.848 553.465 202.569 552.744 203.456 552.744H257.136C258.023 552.744 258.745 553.465 258.745 554.352C258.745 555.239 258.023 555.961 257.136 555.961Z" fill="#F2C6BD"/>
<path d="M257.136 579.167H203.456C202.569 579.167 201.848 578.445 201.848 577.558C201.848 576.671 202.569 575.95 203.456 575.95H257.136C258.023 575.95 258.745 576.671 258.745 577.558C258.745 578.445 258.023 579.167 257.136 579.167Z" fill="#6C63FF"/>
<path d="M187.175 534.888C189.351 534.888 191.116 533.124 191.116 530.947C191.116 528.771 189.351 527.007 187.175 527.007C184.999 527.007 183.234 528.771 183.234 530.947C183.234 533.124 184.999 534.888 187.175 534.888Z" fill="#F2C6BD"/>
<path d="M186.738 537.515V536.639C189.998 536.639 192.649 533.988 192.649 530.728C192.649 527.469 189.998 524.817 186.738 524.817V523.942C190.481 523.942 193.525 526.986 193.525 530.728C193.525 534.471 190.481 537.515 186.738 537.515Z" fill="#3F3D56"/>
<path d="M187.175 558.094C189.351 558.094 191.116 556.33 191.116 554.154C191.116 551.977 189.351 550.213 187.175 550.213C184.999 550.213 183.234 551.977 183.234 554.154C183.234 556.33 184.999 558.094 187.175 558.094Z" fill="#F2C6BD"/>
<path d="M186.738 560.721V559.845C189.998 559.845 192.649 557.194 192.649 553.934C192.649 550.675 189.998 548.023 186.738 548.023V547.148C190.481 547.148 193.525 550.192 193.525 553.934C193.525 557.677 190.481 560.721 186.738 560.721Z" fill="#3F3D56"/>
<path d="M187.175 581.3C189.351 581.3 191.116 579.536 191.116 577.359C191.116 575.183 189.351 573.419 187.175 573.419C184.999 573.419 183.234 575.183 183.234 577.359C183.234 579.536 184.999 581.3 187.175 581.3Z" fill="#6C63FF"/>
<path d="M186.738 583.927V583.051C189.998 583.051 192.649 580.4 192.649 577.14C192.649 573.881 189.998 571.229 186.738 571.229V570.354C190.481 570.354 193.525 573.398 193.525 577.14C193.525 580.883 190.481 583.927 186.738 583.927Z" fill="#3F3D56"/>
<path d="M273.197 597.037H179.618C178.391 597.036 177.396 596.041 177.395 594.814V568.387C177.396 567.16 178.391 566.165 179.618 566.164H273.197C274.425 566.165 275.419 567.16 275.421 568.387V594.814C275.419 596.041 274.425 597.036 273.197 597.037Z" fill="white"/>
<path d="M273.199 597.457H179.62C178.161 597.455 176.978 596.273 176.977 594.814V568.388C176.978 566.928 178.161 565.746 179.62 565.744H273.199C274.658 565.746 275.84 566.928 275.842 568.388V594.814C275.84 596.273 274.658 597.455 273.199 597.457ZM179.62 566.584C178.624 566.585 177.817 567.392 177.816 568.388V594.814C177.817 595.809 178.624 596.616 179.62 596.618H273.199C274.195 596.616 275.001 595.809 275.003 594.814V568.388C275.001 567.392 274.195 566.585 273.199 566.584L179.62 566.584Z" fill="#CCCCCC"/>
<path d="M188.151 578.69C190.144 578.69 191.759 577.075 191.759 575.082C191.759 573.089 190.144 571.474 188.151 571.474C186.158 571.474 184.543 573.089 184.543 575.082C184.543 577.075 186.158 578.69 188.151 578.69Z" fill="#F2C6BD"/>
<path d="M267.208 584.174H185.619C185.025 584.175 184.544 583.694 184.543 583.101C184.542 582.508 185.023 582.026 185.616 582.025H267.208C267.802 582.024 268.283 582.505 268.284 583.098C268.285 583.691 267.805 584.173 267.211 584.174H267.208Z" fill="#F2C6BD"/>
<path d="M258.433 588.42H185.617C185.024 588.42 184.543 587.939 184.543 587.345C184.543 586.752 185.024 586.271 185.617 586.271H258.433C259.026 586.271 259.507 586.752 259.507 587.345C259.507 587.939 259.026 588.42 258.433 588.42Z" fill="#F2C6BD"/>
<path d="M239.884 173.439L239.805 173.012C237.177 158.524 241.055 143.614 250.409 132.242C253.027 129.111 256.028 126.322 259.342 123.941L259.658 123.713L259.796 124.077C261.444 128.424 263.525 132.776 264.473 134.703L265.113 120.321L265.478 120.127C268.901 118.293 273.095 118.726 276.071 121.22C279.149 123.694 280.413 127.792 279.262 131.569C278.765 133.259 278.295 135.012 277.841 136.707C276.28 142.532 274.667 148.556 271.539 153.628C266.668 161.356 258.57 166.472 249.499 167.552L239.884 173.439Z" fill="#F2F2F2"/>
<path d="M49.764 264.05L49.414 263.154C51.752 262.944 53.684 261.992 53.796 260.62H49.918V259.71H53.852V258.436H55V259.71H58.934V260.62H55.042C55.154 261.992 57.072 262.944 59.438 263.154L59.088 264.05C57.016 263.826 55.182 263.084 54.426 261.852C53.656 263.084 51.836 263.826 49.764 264.05ZM54.412 270.154C56.4 270.154 57.548 269.72 57.548 268.936C57.548 268.152 56.4 267.704 54.412 267.704C52.424 267.704 51.276 268.152 51.276 268.936C51.276 269.72 52.424 270.154 54.412 270.154ZM54.412 266.85C57.114 266.85 58.71 267.578 58.71 268.936C58.71 270.294 57.114 271.022 54.412 271.022C51.71 271.022 50.114 270.294 50.114 268.936C50.114 267.578 51.71 266.85 54.412 266.85ZM55 264.988H60.096V265.912H48.742V264.988H53.852V263.434H55V264.988ZM68.1118 264.582C67.4678 264.582 66.6418 264.96 66.0118 265.898C66.1658 268.026 66.9358 269.188 68.2238 269.188C69.2038 269.188 69.9738 268.25 69.9738 266.85C69.9738 265.464 69.3578 264.582 68.1118 264.582ZM68.2238 270.182C66.2498 270.182 64.7938 268.488 64.7938 265.1C64.7938 261.082 66.5998 259.542 68.5878 259.542C69.6518 259.542 70.4218 259.99 70.9818 260.592L70.2818 261.39C69.8758 260.9 69.2598 260.606 68.6298 260.606C67.2298 260.606 66.0398 261.684 65.9838 264.876C66.6138 264.106 67.5098 263.63 68.3218 263.63C70.0578 263.63 71.1638 264.708 71.1638 266.85C71.1638 268.838 69.8198 270.182 68.2238 270.182ZM72.9934 260.102H77.8934C77.8934 263.336 76.7594 266.332 73.1894 268.348L72.5174 267.522C75.4014 265.912 76.5914 263.644 76.7594 261.04H72.9934V260.102ZM82.0654 258.478H83.1714V271.036H82.0654V264.47H80.3574V270.406H79.2794V258.814H80.3574V263.532H82.0654V258.478ZM89.4703 259.402C91.4303 259.402 92.8303 260.592 92.8303 262.356C92.8303 264.106 91.4303 265.31 89.4703 265.31C87.5243 265.31 86.1103 264.106 86.1103 262.356C86.1103 260.592 87.5243 259.402 89.4703 259.402ZM89.4703 260.382C88.1823 260.382 87.2303 261.18 87.2303 262.356C87.2303 263.518 88.1823 264.33 89.4703 264.33C90.7723 264.33 91.7103 263.518 91.7103 262.356C91.7103 261.18 90.7723 260.382 89.4703 260.382ZM94.4823 258.478H95.6303V271.064H94.4823V258.478ZM85.6203 268.306L85.4803 267.34C87.7623 267.34 90.9123 267.326 93.6563 266.906L93.7543 267.76C90.9263 268.278 87.8883 268.306 85.6203 268.306ZM108.476 265.912V262.566H106.81V261.642H108.476V258.688H109.568V265.912H108.476ZM107.3 264.022L107.398 264.946C105.97 265.226 104.78 265.282 102.778 265.282H101.98V259.29H106.726V260.214H103.086V261.768H106.236V262.664H103.086V264.358C104.864 264.358 105.998 264.288 107.3 264.022ZM104.878 267.55V269.944H110.884V267.55H104.878ZM103.758 270.868V266.64H112.004V270.868H103.758ZM110.898 258.478H112.004V266.038H110.898V258.478ZM121.509 262.146V259.752H118.387V262.146H121.509ZM117.239 262.146V259.752H115.335V258.87H124.547V259.752H122.657V262.146H124.505V263.028H115.377V262.146H117.239ZM116.805 268.852V270.028H124.561V270.896H115.685V268.026H123.049V266.948H115.643V266.094H124.183V268.852H116.805ZM114.271 264.078H125.639V264.988H114.271V264.078ZM137.454 258.478V266.976H136.306V258.478H137.454ZM127.822 261.95H132.358V260.214H127.78V259.276H133.492V262.832H128.942V264.666C131.252 264.666 132.876 264.596 134.808 264.26L134.92 265.184C132.918 265.534 131.252 265.604 128.83 265.604H127.822V261.95ZM133.982 266.346V266.71C133.982 268.46 135.942 269.762 138.196 270.112L137.762 270.994C135.858 270.658 134.15 269.72 133.394 268.292C132.652 269.734 130.916 270.658 129.026 270.994L128.578 270.112C130.818 269.762 132.806 268.474 132.806 266.71V266.346H133.982ZM146.595 265.52L145.447 265.408C145.797 263.322 145.825 261.796 145.825 260.788H140.603V259.85H146.945V260.536C146.945 261.544 146.945 263.182 146.595 265.52ZM143.711 263.434V267.27C145.083 267.214 146.483 267.13 147.757 266.976L147.827 267.816C145.223 268.236 142.269 268.292 140.043 268.292L139.917 267.34C140.715 267.34 141.639 267.326 142.577 267.298V263.434H143.711ZM151.677 263.728V264.694H149.675V271.036H148.527V258.478H149.675V263.728H151.677ZM166.875 264.792L166.357 265.744C164.453 265.31 162.493 263.966 161.695 262.118C160.897 263.952 158.937 265.296 157.047 265.744L156.529 264.792C158.727 264.358 161.093 262.468 161.093 260.326V259.36H162.297V260.326C162.297 262.468 164.677 264.372 166.875 264.792ZM156.053 268.404H167.435V269.356H156.053V268.404ZM174.825 263.98L174.923 264.918C173.495 265.198 172.291 265.254 170.275 265.254H169.477V259.276H174.321V260.214H170.583V261.754H174.195V262.636H170.583V264.316C172.375 264.316 173.509 264.246 174.825 263.98ZM172.403 267.438V269.944H178.409V267.438H172.403ZM171.283 270.868V266.528H179.529V270.868H171.283ZM178.423 258.478H179.529V265.912H178.423V262.622H176.743V265.744H175.651V258.73H176.743V261.684H178.423V258.478ZM189.034 265.03V260.662H185.912V265.03H189.034ZM184.764 265.03V260.662H182.818V259.738H192.128V260.662H190.182V265.03H192.1V265.968H182.846V265.03H184.764ZM181.81 268.474H193.192V269.426H181.81V268.474ZM198.296 260.102H203.196C203.196 263.336 202.062 266.332 198.492 268.348L197.82 267.522C200.704 265.912 201.894 263.644 202.062 261.04H198.296V260.102ZM207.368 258.478H208.474V271.036H207.368V264.47H205.66V270.406H204.582V258.814H205.66V263.532H207.368V258.478ZM221.507 263.266L221.031 264.19C219.085 263.854 217.195 262.762 216.383 261.25C215.599 262.776 213.709 263.854 211.749 264.19L211.287 263.266C213.569 262.93 215.781 261.418 215.781 259.626V258.926H216.985V259.626C216.985 261.376 219.225 262.93 221.507 263.266ZM222.053 265.548L222.067 266.5H216.929V271.05H215.781V266.5H210.713V265.548H222.053ZM223.886 272.66L223.578 271.904C224.46 271.512 224.978 270.826 224.978 270C224.922 270.014 224.88 270.014 224.824 270.014C224.334 270.014 223.886 269.706 223.886 269.118C223.886 268.572 224.334 268.222 224.852 268.222C225.524 268.222 225.93 268.796 225.93 269.734C225.93 271.078 225.146 272.128 223.886 272.66ZM228.51 265.884L228.02 264.946C230.19 264.582 232.57 262.832 232.57 260.83V260.564H228.412V259.626H237.918V260.564H233.76V260.83C233.76 262.832 236.154 264.554 238.338 264.904L237.876 265.828C235.958 265.45 233.97 264.218 233.172 262.496C232.374 264.232 230.4 265.478 228.51 265.884ZM233.746 268.474H238.87V269.426H227.474V268.474H232.598V265.436H233.746V268.474ZM246.821 262.356H249.537V258.492H250.699V267.76H249.537V263.294H246.821V262.356ZM241.179 259.458H246.877C246.877 262.692 244.595 265.142 241.039 266.318L240.549 265.394C243.419 264.442 245.393 262.65 245.645 260.396H241.179V259.458ZM243.909 269.818H251.021V270.756H242.761V266.822H243.909V269.818ZM253.596 259.836H256.998C256.998 262.86 256.368 265.8 254.086 268.208L253.19 267.564C255.052 265.632 255.78 263.308 255.906 260.788H253.596V259.836ZM257.418 259.836H260.428C260.428 262.86 259.994 266.318 257.684 269.048L256.76 268.418C258.692 266.192 259.252 263.448 259.35 260.788H257.418V259.836ZM264.964 263.658V264.61H263.102V271.036H261.954V258.478H263.102V263.658H264.964ZM270.591 260.718V262.314C270.591 264.442 272.103 266.612 273.951 267.396L273.307 268.32C271.851 267.648 270.619 266.206 270.017 264.484C269.443 266.318 268.211 267.9 266.783 268.628L266.111 267.704C267.917 266.85 269.443 264.484 269.443 262.314V260.718H266.531V259.766H273.545V260.718H270.591ZM275.239 258.492H276.387V271.036H275.239V258.492ZM49.428 279.78H55.07C55.07 283.42 53.796 286.738 49.386 288.978L48.742 288.068C51.024 286.948 52.41 285.506 53.18 283.84L48.994 284.232L48.784 283.238L53.53 282.93C53.768 282.23 53.88 281.488 53.936 280.718H49.428V279.78ZM57.926 278.492H59.074V291.036H57.926V284.456H55.028V283.518H57.926V278.492ZM72.4429 284.792L71.9249 285.744C70.0209 285.31 68.0609 283.966 67.2629 282.118C66.4649 283.952 64.5049 285.296 62.6149 285.744L62.0969 284.792C64.2949 284.358 66.6609 282.468 66.6609 280.326V279.36H67.8649V280.326C67.8649 282.468 70.2449 284.372 72.4429 284.792ZM61.6209 288.404H73.0029V289.356H61.6209V288.404ZM76.2218 284.078V287.088C78.4898 287.088 79.9458 287.004 81.6538 286.696L81.7798 287.634C79.9598 287.956 78.4338 288.026 76.0398 288.026H75.0738V279.612H80.8838V280.564H76.2218V283.154H80.3378V284.078H76.2218ZM83.6978 278.464H84.8458V291.05H83.6978V284.162H81.1078V283.21H83.6978V278.464ZM89.0027 280.662V286.92H92.5167V280.662H89.0027ZM87.8827 287.844V279.738H93.6367V287.844H87.8827ZM99.1107 283.49V284.456H97.0387V291.036H95.8907V278.492H97.0387V283.49H99.1107ZM109.386 278.478H110.534V291.064H109.386V278.478ZM103.912 279.444C105.774 279.444 107.104 281.152 107.104 283.826C107.104 286.5 105.774 288.208 103.912 288.208C102.05 288.208 100.72 286.5 100.72 283.826C100.72 281.152 102.05 279.444 103.912 279.444ZM103.912 280.48C102.68 280.48 101.812 281.796 101.812 283.826C101.812 285.87 102.68 287.186 103.912 287.186C105.13 287.186 105.998 285.87 105.998 283.826C105.998 281.796 105.13 280.48 103.912 280.48ZM123.441 278.492V286.066H122.293V278.492H123.441ZM120.809 284.568L120.249 285.478C118.821 284.988 117.673 283.966 117.099 282.664C116.567 284.092 115.405 285.24 113.921 285.8L113.319 284.89C115.209 284.232 116.483 282.58 116.483 280.76V280.396H113.613V279.458H120.501V280.396H117.659V280.76C117.659 282.44 118.961 283.966 120.809 284.568ZM119.269 290.182C121.173 290.182 122.335 289.65 122.335 288.726C122.335 287.788 121.173 287.27 119.269 287.27C117.365 287.27 116.189 287.788 116.189 288.726C116.189 289.65 117.365 290.182 119.269 290.182ZM119.269 286.36C121.873 286.36 123.483 287.228 123.483 288.726C123.483 290.224 121.873 291.078 119.269 291.078C116.665 291.078 115.055 290.224 115.055 288.726C115.055 287.228 116.665 286.36 119.269 286.36ZM131.685 279.556C129.627 279.556 128.451 280.032 128.451 280.872C128.451 281.712 129.627 282.188 131.685 282.188C133.743 282.188 134.919 281.712 134.919 280.872C134.919 280.032 133.743 279.556 131.685 279.556ZM131.685 283.042C128.927 283.042 127.275 282.286 127.275 280.872C127.275 279.458 128.927 278.688 131.685 278.688C134.443 278.688 136.095 279.458 136.095 280.872C136.095 282.286 134.443 283.042 131.685 283.042ZM128.535 288.726V290H136.291V290.896H127.415V287.886H134.779V286.766H127.373V285.898H135.913V288.726H128.535ZM126.001 283.896H137.369V284.82H126.001V283.896ZM147.695 290.154C149.725 290.154 150.845 289.762 150.845 289.006C150.845 288.264 149.725 287.858 147.695 287.858C145.679 287.858 144.545 288.264 144.545 289.006C144.545 289.762 145.679 290.154 147.695 290.154ZM147.695 287.004C150.425 287.004 151.993 287.704 151.993 289.006C151.993 290.322 150.425 291.022 147.695 291.022C144.965 291.022 143.397 290.322 143.397 289.006C143.397 287.704 144.965 287.004 147.695 287.004ZM148.269 285.128H153.379V286.052H142.011V285.128H147.121V283.896H143.509V278.842H151.979V279.738H144.657V280.9H151.643V281.768H144.657V283H152.049V283.896H148.269V285.128ZM158.012 287.172C158.978 287.172 159.678 286.374 159.678 285.254C159.678 284.162 158.978 283.364 158.012 283.364C157.032 283.364 156.346 284.162 156.346 285.254C156.346 286.374 157.032 287.172 158.012 287.172ZM158.012 282.398C159.566 282.398 160.7 283.574 160.7 285.254C160.7 286.962 159.566 288.124 158.012 288.124C156.458 288.124 155.324 286.962 155.324 285.254C155.324 283.574 156.458 282.398 158.012 282.398ZM158.572 278.842V280.62H161.12V281.558H154.89V280.62H157.438V278.842H158.572ZM164.438 278.464H165.544V291.022H164.438V284.708H162.828V290.42H161.75V278.758H162.828V283.77H164.438V278.464ZM172.552 279.696V286.892C174.358 286.892 176.22 286.738 178.25 286.332L178.39 287.284C176.248 287.718 174.33 287.858 172.412 287.858H171.418V279.696H172.552ZM182.59 283.49V284.442H180.574V291.036H179.426V278.478H180.574V283.49H182.59ZM188.959 284.498V280.522H185.431V284.498H188.959ZM190.079 279.598V285.408H184.311V279.598H190.079ZM186.873 286.808V289.818H194.097V290.756H185.725V286.808H186.873ZM193.537 282.3H195.385V283.266H193.537V287.662H192.389V278.464H193.537V282.3ZM200.746 279.402C202.706 279.402 204.106 280.592 204.106 282.356C204.106 284.106 202.706 285.31 200.746 285.31C198.8 285.31 197.386 284.106 197.386 282.356C197.386 280.592 198.8 279.402 200.746 279.402ZM200.746 280.382C199.458 280.382 198.506 281.18 198.506 282.356C198.506 283.518 199.458 284.33 200.746 284.33C202.048 284.33 202.986 283.518 202.986 282.356C202.986 281.18 202.048 280.382 200.746 280.382ZM205.758 278.478H206.906V291.064H205.758V278.478ZM196.896 288.306L196.756 287.34C199.038 287.34 202.188 287.326 204.932 286.906L205.03 287.76C202.202 288.278 199.164 288.306 196.896 288.306ZM223.503 284.792L222.985 285.744C221.081 285.31 219.121 283.966 218.323 282.118C217.525 283.952 215.565 285.296 213.675 285.744L213.157 284.792C215.355 284.358 217.721 282.468 217.721 280.326V279.36H218.925V280.326C218.925 282.468 221.305 284.372 223.503 284.792ZM212.681 288.404H224.063V289.356H212.681V288.404ZM231.454 283.98L231.552 284.918C230.124 285.198 228.92 285.254 226.904 285.254H226.106V279.276H230.95V280.214H227.212V281.754H230.824V282.636H227.212V284.316C229.004 284.316 230.138 284.246 231.454 283.98ZM229.032 287.438V289.944H235.038V287.438H229.032ZM227.912 290.868V286.528H236.158V290.868H227.912ZM235.052 278.478H236.158V285.912H235.052V282.622H233.372V285.744H232.28V278.73H233.372V281.684H235.052V278.478ZM245.663 285.03V280.662H242.541V285.03H245.663ZM241.393 285.03V280.662H239.447V279.738H248.757V280.662H246.811V285.03H248.729V285.968H239.475V285.03H241.393ZM238.439 288.474H249.821V289.426H238.439V288.474ZM260.11 280.676V279.654H252.746V278.842H261.244V281.46H253.908V282.538H261.468V283.364H252.774V280.676H260.11ZM253.838 288.88V290.042H261.678V290.868H252.704V288.082H260.152V287.032H252.676V286.206H261.286V288.88H253.838ZM251.318 284.316H262.7V285.184H251.318V284.316ZM272.494 284.498V280.522H268.966V284.498H272.494ZM273.614 279.598V285.408H267.846V279.598H273.614ZM270.408 286.808V289.818H277.632V290.756H269.26V286.808H270.408ZM277.072 282.3H278.92V283.266H277.072V287.662H275.924V278.464H277.072V282.3ZM290.217 281.782V282.706H281.719V278.898H290.091V279.822H282.867V281.782H290.217ZM282.727 288.698V289.986H290.483V290.882H281.607V287.844H288.971V286.64H281.565V285.744H290.105V288.698H282.727ZM280.207 283.714H291.575V284.652H280.207V283.714ZM296.446 287.186C297.636 287.186 298.476 285.87 298.476 283.826C298.476 281.796 297.636 280.48 296.446 280.48C295.242 280.48 294.402 281.796 294.402 283.826C294.402 285.87 295.242 287.186 296.446 287.186ZM302.284 278.478H303.432V291.064H302.284V284.204H299.554C299.442 286.668 298.196 288.208 296.446 288.208C294.612 288.208 293.31 286.5 293.31 283.826C293.31 281.152 294.612 279.444 296.446 279.444C298.14 279.444 299.372 280.914 299.554 283.266H302.284V278.478ZM311.574 282.552V284.862H317.986V282.552H311.574ZM315.354 288.488H320.478V289.426H309.096V288.488H314.192V285.786H310.44V279.374H311.574V281.614H317.986V279.374H319.106V285.786H315.354V288.488ZM325.698 279.668V282.02C325.698 284.036 326.636 286.164 328.288 287.172L327.63 288.068C326.44 287.34 325.6 286.01 325.152 284.484C324.704 286.15 323.794 287.564 322.548 288.334L321.834 287.48C323.556 286.472 324.592 284.218 324.592 282.062V279.668H325.698ZM329.002 282.986V278.758H330.08V290.42H329.002V283.938H326.93V282.986H329.002ZM331.55 278.478H332.642V291.036H331.55V278.478ZM338.787 285.52V288.474H342.287V285.52C341.755 285.646 341.153 285.716 340.523 285.716C339.907 285.716 339.305 285.646 338.787 285.52ZM340.523 280.172C338.507 280.172 337.065 281.096 337.065 282.496C337.065 283.896 338.507 284.82 340.523 284.82C342.539 284.82 343.995 283.896 343.995 282.496C343.995 281.096 342.539 280.172 340.523 280.172ZM343.435 288.474H346.249V289.426H334.839V288.474H337.639V285.086C336.589 284.54 335.959 283.63 335.959 282.496C335.959 280.536 337.863 279.276 340.523 279.276C343.197 279.276 345.087 280.536 345.087 282.496C345.087 283.63 344.471 284.526 343.435 285.072V288.474Z" fill="#EDEDED"/>
<path d="M70.048 181.548L68.592 184.434C64.432 183.602 61.364 181.288 59.83 178.246C58.296 181.288 55.254 183.628 51.094 184.434L49.638 181.548C55.02 180.638 58.01 176.842 58.01 173.41V171.694H61.676V173.41C61.676 176.92 64.64 180.638 70.048 181.548ZM49.118 188.542H70.802V191.324H49.118V188.542ZM83.8 180.248L84.112 183.004C81.382 183.446 79.068 183.524 75.506 183.524H73.842V171.72H83.254V174.424H77.144V176.244H83.02V178.844H77.144V180.768C79.718 180.742 81.616 180.612 83.8 180.248ZM80.602 188.022V191.272H90.092V188.022H80.602ZM77.222 193.95V185.318H93.446V193.95H77.222ZM90.196 170.316H93.446V184.408H90.196V178.74H88.272V184.2H85.074V170.758H88.272V175.958H90.196V170.316ZM110.188 182.276V175.1H105.3V182.276H110.188ZM101.894 182.276V175.1H98.6439V172.37H116.844V175.1H113.594V182.276H116.766V185.006H98.7739V182.276H101.894ZM96.9539 188.672H118.638V191.454H96.9539V188.672ZM135.499 181.106V174.97H130.819V181.106H135.499ZM138.879 172.266V183.81H127.465V172.266H138.879ZM133.601 186.046V191.09H146.471V193.82H130.169V186.046H133.601ZM145.613 177.206H148.785V180.014H145.613V187.762H142.181V170.29H145.613V177.206ZM169.791 175.594V178.298H153.384V170.758H169.609V173.488H156.791V175.594H169.791ZM156.583 189.972V191.402H170.311V194.028H153.177V187.554H166.307V186.202H153.151V183.628H169.687V189.972H156.583ZM150.707 179.572H172.365V182.276H150.707V179.572ZM183.854 175.412V176.738C183.854 180.638 185.778 184.772 189.782 186.436L187.91 189.14C185.128 187.944 183.23 185.604 182.164 182.718C181.098 185.838 179.174 188.464 176.366 189.738L174.416 187.008C178.42 185.214 180.37 180.82 180.37 176.738V175.412H175.378V172.578H188.794V175.412H183.854ZM191.004 170.29H194.436V194.236H191.004V170.29ZM213.143 178.662V174.086H208.463V178.662H213.143ZM216.523 171.408V181.366H205.109V171.408H216.523ZM210.881 189.738V191.298H223.959V193.95H207.475V187.268H219.877V185.838H207.449V183.186H223.257V189.738H210.881ZM223.257 174.892H226.403V177.7H223.257V182.25H219.825V170.29H223.257V174.892ZM246.967 186.098L243.535 185.708C244.445 181.184 244.497 177.856 244.497 175.074H230.535V172.344H247.929V174.632C247.929 177.622 247.929 181.002 246.967 186.098ZM239.427 188.594H250.009V191.35H228.351V188.594H235.995V180.352H239.427V188.594ZM65.706 225.97V216.168H61.312V213.386H65.706V208.29H69.138V225.97H65.706ZM63.418 219.834L61.598 222.486C59.102 221.576 57.386 219.834 56.398 217.624C55.384 220.094 53.538 222.044 50.756 223.058L48.962 220.38C52.914 219.054 54.578 215.726 54.578 212.32V209.746H58.062V212.346C58.062 215.466 59.674 218.508 63.418 219.834ZM56.762 229.09H69.658V231.82H53.33V224.202H56.762V229.09ZM83.8 218.716L84.112 221.446C81.382 221.888 79.068 221.966 75.506 221.966H73.842V209.902H83.254V212.606H77.144V214.582H83.02V217.182H77.144V219.21C79.718 219.184 81.616 219.054 83.8 218.716ZM76.962 226.672V223.942H93.446V232.262H90.014V226.672H76.962ZM90.196 208.29H93.446V222.902H90.196V216.896H88.272V222.746H85.074V208.706H88.272V214.166H90.196V208.29ZM103.87 224.54C105.482 224.54 106.652 223.448 106.652 221.602C106.652 219.808 105.482 218.69 103.87 218.69C102.258 218.69 101.062 219.808 101.062 221.628C101.062 223.448 102.258 224.54 103.87 224.54ZM103.87 215.908C107.328 215.908 109.902 218.274 109.902 221.602C109.902 224.982 107.328 227.348 103.87 227.348C100.386 227.348 97.7859 224.982 97.7859 221.602C97.7859 218.274 100.386 215.908 103.87 215.908ZM105.56 208.706V211.826H110.76V214.556H96.8239V211.826H102.128V208.706H105.56ZM119.184 217.65V220.484H115.752V232.236H112.32V208.29H115.752V217.65H119.184ZM128.516 210.37V214.27C128.516 218.144 129.556 222.122 132.806 224.28L130.934 226.932C128.906 225.684 127.632 223.656 126.878 221.238C126.046 223.89 124.642 226.178 122.484 227.478L120.43 224.904C123.94 222.772 125.214 218.482 125.214 214.4V210.37H128.516ZM133.3 216.376V208.68H136.498V231.17H133.3V219.158H130.284V216.376H133.3ZM138.162 208.29H141.412V232.236H138.162V208.29ZM152.98 222.096V226.672H158.258V222.096C157.426 222.252 156.542 222.33 155.606 222.33C154.67 222.33 153.812 222.252 152.98 222.096ZM155.606 212.164C152.278 212.164 150.068 213.516 150.068 215.908C150.068 218.274 152.278 219.652 155.606 219.652C158.934 219.652 161.17 218.274 161.17 215.908C161.17 213.516 158.934 212.164 155.606 212.164ZM161.664 226.672H166.474V229.454H144.79V226.672H149.574V220.822C147.754 219.704 146.662 217.988 146.688 215.908C146.688 211.982 150.458 209.46 155.606 209.46C160.78 209.46 164.55 211.982 164.55 215.908C164.55 217.988 163.458 219.704 161.664 220.822V226.672ZM171.152 223.448L170.606 213.854L170.476 210.24H174.324L174.194 213.854L173.648 223.448H171.152ZM172.4 230.364C171.048 230.364 170.034 229.272 170.034 227.868C170.034 226.438 171.048 225.372 172.4 225.372C173.752 225.372 174.792 226.438 174.792 227.868C174.792 229.272 173.752 230.364 172.4 230.364Z" fill="#FDFDFD"/>
<defs>
<linearGradient id="paint0_linear_523_992" x1="419.411" y1="531.216" x2="519.947" y2="451.692" gradientUnits="userSpaceOnUse">
<stop stop-color="white"/>
<stop offset="1" stop-color="#EEEEEE"/>
</linearGradient>
<linearGradient id="paint1_linear_523_992" x1="84.6625" y1="623.854" x2="-18.4543" y2="680.702" gradientUnits="userSpaceOnUse">
<stop stop-color="white"/>
<stop offset="1" stop-color="#EEEEEE"/>
</linearGradient>
</defs>
</svg>
