<svg width="177" height="54" viewBox="0 0 177 54" fill="none" xmlns="http://www.w3.org/2000/svg">
<path d="M29.9269 33.3248C29.9192 36.9785 28.5825 40.5046 26.1662 43.2451C23.7499 45.9857 20.419 47.7535 16.795 48.2188C13.1711 48.684 9.50167 47.8149 6.47144 45.7735C3.44121 43.7322 1.25719 40.6581 0.326887 37.1248H0.339888C0.115749 36.5777 0.000923157 35.992 0.00188828 35.4008C-0.0311527 34.2861 0.372503 33.2026 1.12682 32.3812C1.88113 31.5598 2.92644 31.0655 4.03993 31.0037C5.15342 30.9418 6.24702 31.3174 7.08762 32.0502C7.92822 32.7831 8.44934 33.8153 8.53989 34.9268L8.56789 34.9188C8.95829 36.3829 9.86736 37.6553 11.1259 38.4991C12.3844 39.3429 13.9067 39.7007 15.4094 39.5059C16.912 39.3111 18.2927 38.5769 19.2945 37.44C20.2962 36.3032 20.8508 34.841 20.8549 33.3258C20.8356 32.1034 21.3027 30.9233 22.1533 30.0451C23.0039 29.167 24.1685 28.6625 25.3909 28.6428C26.6131 28.6628 27.7773 29.1672 28.6278 30.0451C29.4784 30.923 29.9456 32.1026 29.9269 33.3248Z" fill="#555E75"/>
<path d="M25.267 43.9618C23.8658 42.5683 22.7549 40.9108 21.9986 39.0851C21.2424 37.2594 20.8557 35.3019 20.861 33.3258V15.4118C20.861 14.2088 21.3389 13.055 22.1895 12.2044C23.0402 11.3537 24.1939 10.8758 25.397 10.8758C26.6 10.8758 27.7537 11.3537 28.6044 12.2044C29.4551 13.055 29.933 14.2088 29.933 15.4118V33.3248C29.933 34.8428 30.4856 36.309 31.4875 37.4494C32.4895 38.5897 33.8723 39.3264 35.3778 39.5218C36.8832 39.7171 38.4082 39.3578 39.6681 38.5109C40.928 37.6641 41.8365 36.3875 42.224 34.9198L42.252 34.9268C42.3426 33.8155 42.8637 32.7835 43.7042 32.0508C44.5447 31.318 45.6381 30.9425 46.7514 31.0042C47.8647 31.0659 48.9099 31.5599 49.6643 32.381C50.4187 33.202 50.8226 34.2853 50.79 35.3998C50.7909 35.991 50.6761 36.5767 50.452 37.1238H50.465C49.795 39.6871 48.4602 42.0281 46.5955 43.9101C44.7307 45.7921 42.4021 47.1485 39.8451 47.842C37.2881 48.5355 34.5933 48.5417 32.0332 47.8598C29.473 47.178 27.1383 45.8323 25.265 43.9588L25.267 43.9618Z" fill="#F2C6BD"/>
<path d="M39.2549 52.3028H12.4089C12.1532 52.3028 11.9459 52.5101 11.9459 52.7658C11.9459 53.0215 12.1532 53.2288 12.4089 53.2288H39.2549C39.5106 53.2288 39.7179 53.0215 39.7179 52.7658C39.7179 52.5101 39.5106 52.3028 39.2549 52.3028Z" fill="#555E75"/>
<path d="M23.4079 13.6538V8.57478C22.4885 8.12954 21.7473 7.38555 21.3056 6.46445C20.8639 5.54335 20.7477 4.49963 20.9761 3.50396C21.2045 2.50828 21.764 1.61954 22.563 0.983057C23.362 0.346574 24.3533 0 25.3749 0C26.3964 0 27.3877 0.346574 28.1868 0.983057C28.9858 1.61954 29.5452 2.50828 29.7736 3.50396C30.002 4.49963 29.8859 5.54335 29.4442 6.46445C29.0024 7.38555 28.2613 8.12954 27.3419 8.57478V13.6538H23.4079Z" fill="#F2C6BD"/>
<path d="M68.693 38.0458C67.8957 38.0458 67.198 37.9384 66.6 37.7238C66.0173 37.5244 65.5343 37.2408 65.151 36.8728C64.7677 36.5048 64.484 36.0678 64.3 35.5618C64.116 35.0404 64.024 34.4731 64.024 33.8598C64.024 33.2464 64.116 32.6868 64.3 32.1808C64.484 31.6594 64.7677 31.2148 65.151 30.8468C65.5343 30.4634 66.0173 30.1644 66.6 29.9498C67.198 29.7351 67.8957 29.6278 68.693 29.6278H79.457C80.239 29.6278 80.9213 29.7351 81.504 29.9498C82.102 30.1491 82.5927 30.4404 82.976 30.8238C83.3593 31.1918 83.643 31.6364 83.827 32.1578C84.0263 32.6791 84.126 33.2464 84.126 33.8598C84.126 35.1171 83.7427 36.1291 82.976 36.8958C82.2093 37.6624 81.0363 38.0458 79.457 38.0458H68.693ZM68.417 28.7998C67.727 28.7998 67.0677 28.7078 66.439 28.5238C65.8103 28.3398 65.2583 28.0561 64.783 27.6728C64.323 27.2894 63.955 26.8141 63.679 26.2468C63.403 25.6794 63.265 25.0048 63.265 24.2228V22.6128C63.265 22.1374 63.357 21.7004 63.541 21.3018C63.127 21.2251 62.8127 21.0488 62.598 20.7728C62.3987 20.4968 62.299 20.1824 62.299 19.8298C62.299 19.4158 62.4293 19.0478 62.69 18.7258C62.966 18.4038 63.3877 18.2428 63.955 18.2428H66.347C66.347 17.5528 66.5387 17.0468 66.922 16.7248C67.3053 16.3874 67.8037 16.2188 68.417 16.2188C69.015 16.2188 69.5057 16.3874 69.889 16.7248C70.2723 17.0468 70.4717 17.5528 70.487 18.2428H72.833C73.4157 18.2428 73.8297 18.4038 74.075 18.7258C74.3357 19.0478 74.466 19.4158 74.466 19.8298C74.466 20.1824 74.374 20.4968 74.19 20.7728C74.006 21.0488 73.707 21.2251 73.293 21.3018C73.3697 21.5011 73.431 21.7081 73.477 21.9228C73.5383 22.1374 73.569 22.3674 73.569 22.6128V24.2228C73.569 25.0048 73.431 25.6794 73.155 26.2468C72.879 26.8141 72.5033 27.2894 72.028 27.6728C71.568 28.0561 71.0237 28.3398 70.395 28.5238C69.7663 28.7078 69.107 28.7998 68.417 28.7998ZM79.986 24.4068H79.02V28.9148H75.018V18.3348C75.018 17.6908 75.2173 17.2078 75.616 16.8858C76.0147 16.5484 76.4823 16.3798 77.019 16.3798C77.5403 16.3798 78.0003 16.5484 78.399 16.8858C78.813 17.2078 79.02 17.6908 79.02 18.3348V20.8648H79.986V18.3348C79.986 17.6908 80.1853 17.2078 80.584 16.8858C80.9827 16.5484 81.4503 16.3798 81.987 16.3798C82.5083 16.3798 82.976 16.5484 83.39 16.8858C83.804 17.2078 84.011 17.6908 84.011 18.3348V28.9148H79.986V24.4068ZM78.215 34.9408C78.6903 34.9408 79.0123 34.8411 79.181 34.6418C79.365 34.4271 79.457 34.1664 79.457 33.8598C79.457 33.5531 79.365 33.3078 79.181 33.1238C79.0123 32.9244 78.6903 32.8248 78.215 32.8248H69.935C69.4597 32.8248 69.13 32.9244 68.946 33.1238C68.7773 33.3078 68.693 33.5531 68.693 33.8598C68.693 34.1664 68.7773 34.4271 68.946 34.6418C69.13 34.8411 69.4597 34.9408 69.935 34.9408H78.215ZM68.417 25.6028C68.7237 25.6028 68.9997 25.5031 69.245 25.3038C69.5057 25.1044 69.636 24.7518 69.636 24.2458V22.5898C69.636 22.0838 69.5057 21.7311 69.245 21.5318C68.9997 21.3324 68.7237 21.2328 68.417 21.2328C68.1103 21.2328 67.8267 21.3324 67.566 21.5318C67.3207 21.7311 67.198 22.0838 67.198 22.5898V24.2458C67.198 24.7518 67.3207 25.1044 67.566 25.3038C67.8267 25.5031 68.1103 25.6028 68.417 25.6028ZM94.108 26.5228V25.2118H89.991C89.301 25.2118 88.7413 25.1581 88.312 25.0508C87.8827 24.9281 87.5453 24.7364 87.3 24.4758C87.07 24.1998 86.909 23.8394 86.817 23.3948C86.7403 22.9501 86.702 22.3904 86.702 21.7158V18.4728C86.702 18.1048 86.7633 17.7904 86.886 17.5298C87.024 17.2538 87.2003 17.0391 87.415 16.8858C87.645 16.7171 87.898 16.5944 88.174 16.5178C88.4653 16.4411 88.7643 16.4028 89.071 16.4028C89.5617 16.4028 90.0217 16.5331 90.451 16.7938C90.8957 17.0544 91.1793 17.4608 91.302 18.0128H101.675C101.782 17.4301 102.051 17.0161 102.48 16.7708C102.925 16.5254 103.415 16.4028 103.952 16.4028C104.243 16.4028 104.527 16.4411 104.803 16.5178C105.094 16.5944 105.347 16.7171 105.562 16.8858C105.777 17.0544 105.953 17.2691 106.091 17.5298C106.229 17.7904 106.298 18.1048 106.298 18.4728V25.2118H98.8V26.5228H105.355C106.045 26.5228 106.536 26.7068 106.827 27.0748C107.118 27.4274 107.264 27.8338 107.264 28.2938C107.264 28.7538 107.111 29.1678 106.804 29.5358C106.513 29.9038 106.03 30.0878 105.355 30.0878H87.645C86.9703 30.0878 86.4797 29.9038 86.173 29.5358C85.8817 29.1678 85.736 28.7538 85.736 28.2938C85.736 27.8338 85.8817 27.4274 86.173 27.0748C86.4643 26.7068 86.955 26.5228 87.645 26.5228H94.108ZM88.565 34.7798C87.9363 34.7798 87.4533 34.6264 87.116 34.3198C86.794 33.9978 86.633 33.5761 86.633 33.0548C86.633 32.5334 86.794 32.1271 87.116 31.8358C87.4533 31.5291 87.9363 31.3758 88.565 31.3758H103.009C103.699 31.3758 104.259 31.4294 104.688 31.5368C105.117 31.6288 105.447 31.8051 105.677 32.0658C105.922 32.3111 106.083 32.6561 106.16 33.1008C106.252 33.5301 106.298 34.0744 106.298 34.7338V37.9768H101.698V35.2858C101.698 34.9484 101.529 34.7798 101.192 34.7798H88.565ZM101.652 22.2448V20.8648H91.348V21.5318C91.348 21.7618 91.394 21.9381 91.486 22.0608C91.5933 22.1834 91.785 22.2448 92.061 22.2448H101.652ZM121.823 19.1398C121.808 19.8298 121.7 20.5351 121.501 21.2558C122.467 21.2864 123.425 21.4781 124.376 21.8308C125.327 22.1834 126.185 22.7124 126.952 23.4178C127.719 24.1231 128.355 25.0124 128.861 26.0858C129.382 27.1591 129.697 28.4318 129.804 29.9038H125.135C125.028 29.1218 124.813 28.4241 124.491 27.8108C124.169 27.1821 123.763 26.6608 123.272 26.2468C122.797 25.8174 122.252 25.4954 121.639 25.2808C121.026 25.0661 120.374 24.9664 119.684 24.9818C119.163 25.7024 118.572 26.3618 117.913 26.9598C117.254 27.5578 116.556 28.0714 115.82 28.5008C115.099 28.9301 114.348 29.2674 113.566 29.5128C112.799 29.7581 112.04 29.8884 111.289 29.9038C110.722 29.9191 110.231 29.7734 109.817 29.4668C109.403 29.1448 109.165 28.7001 109.104 28.1328C109.043 27.5808 109.158 27.0978 109.449 26.6838C109.74 26.2698 110.177 26.0014 110.76 25.8788C111.511 25.7101 112.24 25.4264 112.945 25.0278C113.666 24.6291 114.31 24.1308 114.877 23.5328C115.444 22.9194 115.92 22.2141 116.303 21.4168C116.686 20.6194 116.939 19.7378 117.062 18.7718C117.154 18.0358 117.445 17.4991 117.936 17.1618C118.442 16.8091 119.017 16.6558 119.661 16.7018C120.336 16.7631 120.872 17.0008 121.271 17.4148C121.67 17.8288 121.854 18.4038 121.823 19.1398ZM128.286 33.6298C128.639 33.6298 128.938 33.6911 129.183 33.8138C129.444 33.9211 129.651 34.0668 129.804 34.2508C129.973 34.4348 130.088 34.6494 130.149 34.8948C130.226 35.1248 130.264 35.3548 130.264 35.5848C130.264 35.8301 130.226 36.0678 130.149 36.2978C130.072 36.5278 129.95 36.7348 129.781 36.9188C129.628 37.1028 129.428 37.2484 129.183 37.3558C128.938 37.4631 128.639 37.5168 128.286 37.5168H110.714C110.361 37.5168 110.062 37.4631 109.817 37.3558C109.572 37.2484 109.365 37.1028 109.196 36.9188C109.043 36.7348 108.928 36.5278 108.851 36.2978C108.774 36.0678 108.736 35.8301 108.736 35.5848C108.736 35.3548 108.767 35.1248 108.828 34.8948C108.905 34.6494 109.02 34.4348 109.173 34.2508C109.342 34.0668 109.549 33.9211 109.794 33.8138C110.055 33.6911 110.361 33.6298 110.714 33.6298H128.286ZM136.451 37.9768C135.761 37.9768 135.201 37.9154 134.772 37.7928C134.343 37.6854 134.005 37.4938 133.76 37.2178C133.53 36.9571 133.369 36.6044 133.277 36.1598C133.2 35.7151 133.162 35.1554 133.162 34.4808V33.1468C133.162 32.4874 133.2 31.9354 133.277 31.4908C133.369 31.0308 133.53 30.6704 133.76 30.4098C134.005 30.1338 134.343 29.9421 134.772 29.8348C135.201 29.7121 135.761 29.6508 136.451 29.6508H149.722C150.412 29.6508 150.972 29.7121 151.401 29.8348C151.83 29.9421 152.16 30.1338 152.39 30.4098C152.635 30.6704 152.796 31.0308 152.873 31.4908C152.965 31.9354 153.011 32.4874 153.011 33.1468V37.9768H136.451ZM135.255 28.6618C134.657 28.6618 134.166 28.6158 133.783 28.5238C133.4 28.4164 133.093 28.2478 132.863 28.0178C132.648 27.7878 132.495 27.4811 132.403 27.0978C132.326 26.7144 132.288 26.2314 132.288 25.6488V19.9908C132.288 19.4234 132.326 18.9481 132.403 18.5648C132.495 18.1814 132.648 17.8748 132.863 17.6448C133.093 17.4148 133.4 17.2538 133.783 17.1618C134.166 17.0544 134.657 17.0008 135.255 17.0008H141.281C141.818 17.0008 142.209 17.1618 142.454 17.4838C142.715 17.8058 142.845 18.1814 142.845 18.6108C142.845 19.0554 142.715 19.4311 142.454 19.7378C142.209 20.0291 141.818 20.1748 141.281 20.1748H137.164C136.903 20.1748 136.735 20.2131 136.658 20.2898C136.581 20.3664 136.543 20.5351 136.543 20.7958V21.3478H141.281C141.542 21.3478 141.756 21.3938 141.925 21.4858C142.109 21.5778 142.255 21.7004 142.362 21.8538C142.485 21.9918 142.569 22.1528 142.615 22.3368C142.676 22.5208 142.707 22.6971 142.707 22.8658C142.707 23.2031 142.592 23.5328 142.362 23.8548C142.147 24.1768 141.787 24.3378 141.281 24.3378H136.543V24.9128C136.543 25.1734 136.581 25.3421 136.658 25.4188C136.735 25.4954 136.903 25.5338 137.164 25.5338H141.833C142.37 25.5338 142.761 25.6871 143.006 25.9938C143.251 26.2851 143.374 26.6454 143.374 27.0748C143.374 27.5194 143.251 27.8951 143.006 28.2018C142.761 28.5084 142.37 28.6618 141.833 28.6618H135.255ZM148.986 24.4068H147.905V28.7998H143.903V18.3348C143.903 17.6908 144.102 17.2078 144.501 16.8858C144.9 16.5484 145.367 16.3798 145.904 16.3798C146.425 16.3798 146.885 16.5484 147.284 16.8858C147.698 17.2078 147.905 17.6908 147.905 18.3348V20.8648H148.986V18.3348C148.986 17.6908 149.185 17.2078 149.584 16.8858C149.983 16.5484 150.45 16.3798 150.987 16.3798C151.508 16.3798 151.976 16.5484 152.39 16.8858C152.804 17.2078 153.011 17.6908 153.011 18.3348V28.7998H148.986V24.4068ZM137.693 34.2048C137.693 34.4501 137.724 34.6034 137.785 34.6648C137.846 34.7108 137.977 34.7338 138.176 34.7338H148.48V33.3998C148.48 33.1851 148.442 33.0471 148.365 32.9858C148.304 32.9091 148.173 32.8708 147.974 32.8708H138.176C137.977 32.8708 137.846 32.9091 137.785 32.9858C137.724 33.0471 137.693 33.1851 137.693 33.3998V34.2048ZM158.761 26.2468V24.1998C158.761 23.3718 158.976 22.7738 159.405 22.4058C159.85 22.0378 160.425 21.8538 161.13 21.8538C161.82 21.8538 162.38 22.0454 162.809 22.4288C163.238 22.7968 163.453 23.3871 163.453 24.1998V26.2468H167.547V24.1998C167.547 23.3718 167.762 22.7738 168.191 22.4058C168.636 22.0378 169.211 21.8538 169.916 21.8538C170.606 21.8538 171.166 22.0454 171.595 22.4288C172.024 22.7968 172.239 23.3871 172.239 24.1998V26.2468H173.803C174.508 26.2468 175.007 26.4384 175.298 26.8218C175.589 27.2051 175.735 27.6268 175.735 28.0868C175.735 28.5621 175.582 28.9914 175.275 29.3748C174.984 29.7428 174.493 29.9268 173.803 29.9268H157.197C156.507 29.9268 156.009 29.7428 155.702 29.3748C155.411 28.9914 155.265 28.5621 155.265 28.0868C155.265 27.6268 155.411 27.2051 155.702 26.8218C155.993 26.4384 156.492 26.2468 157.197 26.2468H158.761ZM174.286 33.6298C174.639 33.6298 174.938 33.6911 175.183 33.8138C175.444 33.9211 175.651 34.0668 175.804 34.2508C175.973 34.4348 176.088 34.6494 176.149 34.8948C176.226 35.1248 176.264 35.3548 176.264 35.5848C176.264 35.8301 176.226 36.0678 176.149 36.2978C176.072 36.5278 175.95 36.7348 175.781 36.9188C175.628 37.1028 175.428 37.2484 175.183 37.3558C174.938 37.4631 174.639 37.5168 174.286 37.5168H156.714C156.361 37.5168 156.062 37.4631 155.817 37.3558C155.572 37.2484 155.365 37.1028 155.196 36.9188C155.043 36.7348 154.928 36.5278 154.851 36.2978C154.774 36.0678 154.736 35.8301 154.736 35.5848C154.736 35.3548 154.767 35.1248 154.828 34.8948C154.905 34.6494 155.02 34.4348 155.173 34.2508C155.342 34.0668 155.549 33.9211 155.794 33.8138C156.055 33.6911 156.361 33.6298 156.714 33.6298H174.286ZM173.527 17.1388C173.88 17.1388 174.179 17.2001 174.424 17.3228C174.669 17.4301 174.869 17.5758 175.022 17.7598C175.175 17.9438 175.283 18.1508 175.344 18.3808C175.421 18.6108 175.459 18.8408 175.459 19.0708C175.459 19.3008 175.421 19.5308 175.344 19.7608C175.283 19.9908 175.168 20.1978 174.999 20.3818C174.846 20.5658 174.646 20.7191 174.401 20.8418C174.156 20.9491 173.864 21.0028 173.527 21.0028H157.473C157.12 21.0028 156.821 20.9491 156.576 20.8418C156.346 20.7191 156.147 20.5658 155.978 20.3818C155.825 20.1978 155.71 19.9908 155.633 19.7608C155.572 19.5308 155.541 19.3008 155.541 19.0708C155.541 18.8408 155.572 18.6108 155.633 18.3808C155.71 18.1508 155.825 17.9438 155.978 17.7598C156.131 17.5758 156.331 17.4301 156.576 17.3228C156.821 17.2001 157.12 17.1388 157.473 17.1388H173.527Z" fill="#555E75"/>
</svg>
