<svg width="663" height="655" viewBox="0 0 663 655" fill="none" xmlns="http://www.w3.org/2000/svg">
<g clip-path="url(#clip0_54_4)">
<path d="M257.282 388.778C151.631 363.673 86.0269 257.207 111.128 151.54C136.228 45.8728 242.678 -19.7413 348.329 5.36325C410.624 20.1977 461.852 64.3589 485.698 123.811L483.53 124.61C459.913 65.8423 409.255 22.1376 347.758 7.53137C243.248 -17.3449 138.054 47.4704 113.295 151.997C88.537 256.523 153.228 361.733 257.738 386.496C316.725 400.76 378.906 386.496 425.799 348.04L427.282 349.866C379.819 388.778 316.839 403.156 257.282 388.778Z" fill="#236E8C"/>
<path d="M613.141 276.949H455.235C446.678 276.949 439.718 267.249 439.718 255.382V93.115C439.718 81.2474 446.678 71.5479 455.235 71.5479H647.597C656.154 71.5479 663.114 81.2474 663.114 93.115V207.569C663 245.91 640.638 276.949 613.141 276.949Z" fill="#236E8C"/>
<path d="M327.107 629.667H339.658L351.866 534.955H323.342L327.107 629.667Z" fill="#FFEFDE"/>
<path d="M323 621.109L343.08 619.854V628.526L362.248 641.763C364.644 643.475 365.329 646.784 363.617 649.294C362.59 650.778 360.993 651.577 359.168 651.577H335.208L331.101 643.018L329.503 651.577H320.49L323 621.109Z" fill="#3D516F"/>
<path d="M140.107 599.656L151.517 604.791L201.49 523.429L175.477 511.676L140.107 599.656Z" fill="#FFEFDE"/>
<path d="M139.879 590.071L158.705 597.26L155.168 605.133L167.262 624.989C168.859 627.499 167.946 630.808 165.436 632.406C163.953 633.319 162.013 633.433 160.416 632.748L138.51 622.935L138.282 613.463L133.376 620.538L125.161 616.887L139.879 590.071Z" fill="#3D516F"/>
<path d="M230.698 328.299L289 320.425C289 320.425 363.846 493.646 360.765 582.197L313.188 588.017C313.188 588.017 313.53 551.729 316.154 548.876C318.779 546.024 322.087 549.675 318.778 541.687C315.47 533.699 312.96 531.76 316.839 527.88C320.718 524 274.51 456.218 274.51 456.218C274.51 456.218 201.832 547.735 197.839 550.246C193.846 552.756 189.51 553.441 192.02 559.945C194.53 566.449 189.966 579.002 189.966 579.002C189.966 579.002 161.329 574.666 149.577 546.024C149.577 546.024 196.926 459.755 201.262 458.386C205.597 457.017 207.537 464.091 205.597 456.902C203.658 449.713 199.778 452.338 203.658 449.713C206.282 448.002 209.134 446.747 212.101 445.834L227.275 405.78C215.638 379.193 216.436 353.289 230.698 328.299Z" fill="#5BCCD9"/>
<path d="M230.127 282.426L232.295 302.281L231.04 328.299L288.658 321.452L294.02 282.426L287.174 282.54L230.127 282.426Z" fill="#FFB6B6"/>
<path d="M279.074 218.409L257.396 201.293L245.987 200.608L229.101 211.449L224.993 232.559L215.181 256.294L229.557 320.425C229.557 320.425 230.926 324.99 227.389 325.56C223.852 326.131 224.309 332.863 224.309 332.863C224.309 332.863 224.993 338.797 221.571 339.253C218.148 339.71 209.02 339.824 217.007 350.094C224.993 360.364 289.685 321.452 289.685 321.452L297.329 273.411C297.329 273.411 315.128 249.562 295.96 235.868L279.074 218.409Z" fill="#3D516F"/>
<path d="M184.49 363.902C180.839 359.451 181.637 352.833 186.087 349.181C186.543 348.839 187.114 348.497 187.57 348.154L214.839 256.637L231.839 265.195L202.174 352.947C204.57 358.196 202.288 364.472 197.04 366.868C192.705 368.922 187.456 367.781 184.49 363.902Z" fill="#FFEFDE"/>
<path d="M233.094 210.536C233.094 210.536 228.188 207.911 224.879 219.208C222.255 228.223 200.577 281.627 200.235 294.636C196.584 295.435 193.846 298.63 193.731 302.281L220.544 305.819C225.221 301.825 226.476 296.576 224.651 294.978L230.47 279.117L254.772 228.565L236.745 212.362L233.094 210.536Z" fill="#3D516F"/>
<path d="M376.168 333.89C377.423 328.299 374 322.707 368.41 321.338C367.839 321.224 367.155 321.11 366.584 321.11L304.061 249.676L290.826 265.537L355.517 331.836C355.631 337.656 360.423 342.22 366.128 342.22C370.92 341.992 375.141 338.569 376.168 333.89Z" fill="#FFEFDE"/>
<path d="M266.067 216.584C266.067 216.584 269.376 212.133 277.248 220.806C283.523 227.767 326.195 266.564 332.013 278.204C335.664 277.291 339.43 279.003 341.141 282.312L318.55 297.146C312.617 295.663 309.195 291.327 310.107 289.159L298.013 277.291L254.315 242.259L263.557 219.779L266.067 216.584Z" fill="#3D516F"/>
<path d="M277.134 202.091C279.644 198.44 257.967 189.996 253.745 191.593C245.188 194.902 234.92 202.091 227.047 203.118C227.161 199.923 226.933 196.842 226.248 193.761C225.336 196.842 224.537 200.037 223.738 203.118C216.322 202.091 203.772 189.539 206.852 160.669C208.107 148.801 216.893 136.135 245.416 131.456C271.772 127.12 278.161 146.747 280.671 159.414C286.148 188.398 283.41 201.635 277.134 202.091Z" fill="#2F2E41"/>
<path d="M252.604 191.707C265.648 191.707 276.222 181.132 276.222 168.086C276.222 155.041 265.648 144.465 252.604 144.465C239.561 144.465 228.987 155.041 228.987 168.086C228.987 181.132 239.561 191.707 252.604 191.707Z" fill="#FFEFDE"/>
<path d="M284.322 159.642L273.027 161.354C268.007 158.273 266.181 153.594 265.953 148.117L267.094 162.267L261.732 163.065C258.195 160.669 256.597 158.159 257.624 155.42L258.309 163.636C243.933 168.771 229.899 172.651 218.148 169.798C215.638 153.138 227.047 137.504 243.819 134.88L249.638 133.967C266.181 131.456 281.812 142.868 284.322 159.642Z" fill="#2F2E41"/>
<path d="M77.0135 629.667C75.302 629.781 73.7047 628.412 73.7047 626.586C73.7047 625.673 74.047 624.761 74.7316 624.076L74.9598 623.163C74.9598 623.049 74.8457 623.049 74.8457 622.935C73.0202 618.599 68 616.545 63.5504 618.37C61.4967 619.283 59.7853 620.881 58.9866 623.049C56.3624 629.325 53.0537 635.601 52.2551 642.22C51.9128 645.186 52.0269 648.153 52.7114 651.006C46.6645 637.655 43.4698 623.277 43.4698 608.671C43.4698 605.019 43.698 601.368 44.0403 597.716C44.3826 594.749 44.839 591.782 45.4094 588.815C48.7181 572.84 55.6779 557.777 65.8322 545.111C70.7383 542.372 74.7316 538.264 77.2416 533.243C78.1544 531.417 78.839 529.477 79.1812 527.537C78.6108 527.652 77.1275 519.093 77.4698 518.637C76.6712 517.496 75.302 516.925 74.5034 515.784C70.2819 510.078 64.4631 511.105 61.4967 518.865C54.9933 522.174 54.9933 527.537 58.9866 532.787C61.4967 536.096 61.839 540.546 64.1208 544.084C63.8926 544.426 63.6645 544.654 63.4363 544.997C59.2148 550.36 55.6779 556.065 52.5973 562.227C53.2819 555.381 52.4832 548.534 49.9732 542.144C47.4631 536.21 42.8994 531.189 38.792 526.054C33.8859 519.892 23.8457 522.517 23.047 530.39C23.047 530.504 23.047 530.504 23.047 530.619C23.6175 530.961 24.1879 531.303 24.8725 531.76C26.8121 533.129 27.3826 535.754 26.1275 537.808C25.443 538.835 24.4161 539.519 23.1611 539.633H23.047C23.2752 541.801 23.6175 543.97 24.1879 546.138C18.9396 566.335 30.2349 573.753 46.3222 574.095C46.6645 574.323 47.0067 574.437 47.349 574.666C44.2685 583.338 42.3289 592.353 41.6443 601.482C41.1879 606.845 41.302 612.322 41.7584 617.686V617.457C40.6175 611.409 37.4228 606.046 32.6309 602.166C25.6712 596.461 15.745 594.293 8.21479 589.728C5.93291 588.245 2.85238 588.929 1.36915 591.212C0.684591 592.239 0.456403 593.38 0.570497 594.521C0.570497 594.635 0.570497 594.635 0.570497 594.749C1.71144 595.206 2.73828 595.776 3.87922 596.347C4.44969 596.689 5.02016 597.031 5.70472 597.488C7.64432 598.857 8.21479 601.482 6.95976 603.536C6.27519 604.563 5.24835 605.247 3.99332 605.362H3.87922C3.76513 605.362 3.76513 605.362 3.65103 605.362C5.59063 609.926 8.21479 614.148 11.6376 617.8C14.9463 635.487 28.9799 637.085 43.9262 631.95C45.5235 639.139 47.9195 646.099 51 652.718H76.443C76.5571 652.49 76.6712 652.147 76.6712 651.805C74.2752 651.919 71.9933 651.805 69.5973 651.348C71.5369 649.066 73.3624 646.67 75.302 644.388L75.4161 644.274C76.3289 643.132 77.3557 641.877 78.2685 640.736C78.2685 636.856 77.8121 633.205 77.0135 629.667Z" fill="#236E8C"/>
<path d="M589.866 338.341H376.624C368.067 338.341 361.107 331.38 361.107 322.821V124.61C361.107 116.051 368.067 109.091 376.624 109.091H589.866C598.423 109.091 605.383 116.051 605.383 124.61V322.821C605.383 331.38 598.423 338.341 589.866 338.341Z" fill="#FFAF94"/>
<path d="M545.027 327.842H387.121C378.564 327.842 371.604 320.882 371.604 312.323V134.994C371.604 126.436 378.564 119.475 387.121 119.475H579.483C588.04 119.475 595 126.436 595 134.994V277.861C594.886 305.476 572.638 327.842 545.027 327.842Z" fill="white"/>
<path d="M461.054 178.699C461.054 191.251 450.785 201.521 438.235 201.521C425.684 201.521 415.416 191.251 415.416 178.699C415.416 166.146 425.684 155.876 438.235 155.876C450.899 155.876 461.054 166.032 461.054 178.699Z" fill="#236E8C"/>
<path d="M421.349 219.893H476.799C479.993 219.893 482.618 222.517 482.618 225.713V228.451C482.618 231.646 479.993 234.271 476.799 234.271H421.349C418.154 234.271 415.53 231.646 415.53 228.451V225.713C415.53 222.403 418.154 219.893 421.349 219.893Z" fill="#3D516F"/>
<path d="M421.463 248.535H545.027C548.222 248.535 550.846 251.159 550.846 254.355V257.093C550.846 260.288 548.222 262.913 545.027 262.913H421.463C418.269 262.913 415.645 260.288 415.645 257.093V254.355C415.759 251.159 418.269 248.535 421.463 248.535Z" fill="#3D516F"/>
<path d="M421.463 277.177H545.027C548.222 277.177 550.846 279.801 550.846 282.997V285.735C550.846 288.93 548.222 291.555 545.027 291.555H421.463C418.269 291.555 415.645 288.93 415.645 285.735V282.997C415.759 279.801 418.269 277.177 421.463 277.177Z" fill="#3D516F"/>
<path d="M438.805 182.008C443.216 182.008 446.792 178.432 446.792 174.02C446.792 169.608 443.216 166.032 438.805 166.032C434.395 166.032 430.819 169.608 430.819 174.02C430.819 178.432 434.395 182.008 438.805 182.008Z" fill="white"/>
<path d="M447.362 184.861H430.248C428.08 184.861 426.255 186.686 426.255 188.855C426.483 192.278 427.054 195.701 427.852 199.01C434.812 202.662 443.141 202.32 449.872 198.326C450.557 195.245 451.127 192.05 451.356 188.855C451.356 186.572 449.53 184.861 447.362 184.861Z" fill="white"/>
<path d="M569.215 158.044C560.886 158.044 554.154 151.312 554.154 142.982C554.154 134.652 560.886 127.919 569.215 127.919C577.544 127.919 584.275 134.652 584.275 142.982C584.275 151.312 577.544 158.044 569.215 158.044Z" fill="#E6E6E6"/>
<path d="M574.463 146.177L571.268 142.982L574.463 139.787C575.034 139.216 575.034 138.303 574.463 137.733C573.893 137.162 572.98 137.162 572.409 137.733L569.215 140.928L566.02 137.733C565.45 137.162 564.537 137.162 563.966 137.733C563.396 138.303 563.396 139.216 563.966 139.787L567.161 142.982L563.966 146.177C563.396 146.747 563.396 147.66 563.966 148.231C564.537 148.801 565.45 148.801 566.02 148.231L569.215 145.036L572.409 148.231C572.98 148.801 573.893 148.801 574.463 148.231C575.034 147.66 575.034 146.747 574.463 146.177Z" fill="white"/>
</g>
<defs>
<clipPath id="clip0_54_4">
<rect width="663" height="655" fill="white"/>
</clipPath>
</defs>
</svg>
