<svg width="1920" height="1000" viewBox="0 0 1920 1000" fill="none" xmlns="http://www.w3.org/2000/svg">
<path d="M45.9998 266C-59.6002 258 -59.3335 60 -46.0002 -38H504C506 34 492 182 420 198C330 218 360 48 262 46C164 44 196 106 196 130C196 154 178 276 45.9998 266Z" fill="#236E8C"/>
<path d="M-24 146C-35.2 93.2 -28.6666 -6.66667 -24 -50L346 -138C366 -108.667 407.6 -24 414 80C422 210 334 224 288 196C242 168 166 146 100 196C34 246 -9.99998 212 -24 146Z" fill="#FFD2C3"/>
<path d="M197.485 1090.28C161.135 1130.18 76.2125 1183.14 38.295 1204.63L-249.032 955.454C-236.875 922.097 -192.378 838.916 -111.644 773.046C-10.7259 690.708 51.983 754.014 56.0775 807.709C60.1719 861.405 86.6411 935.966 165.754 960.402C244.868 984.837 242.922 1040.41 197.485 1090.28Z" fill="#236E8C"/>
<path d="M1041 89C965.8 72.6 996 -32.1667 1020.5 -82.5C1033.7 -82.5 1541.67 -120.833 1794 -140L2136 102V1128L1426 1140C1393.33 1097.33 1337.6 1003.6 1376 970C1424 928 1630 940 1628 802C1626 664 1752 654 1780 578C1808 502 1818 306 1708 248C1598 190 1606 180 1572 89C1538 -2 1371.5 142 1290 64.5C1208.5 -13 1135 109.5 1041 89Z" fill="#FFD2C4"/>
</svg>
